Bungee-Regular.ufo
<glyph name="quotedbl" format="1">
  <advance width="646"/>
  <unicode hex="0022"/>
  <outline>
    <contour>
      <point x="240" y="345" type="line" smooth="yes"/>
      <point x="275" y="345"/>
      <point x="280" y="351"/>
      <point x="282" y="386" type="curve"/>
      <point x="290" y="679" type="line" smooth="yes"/>
      <point x="291" y="714"/>
      <point x="285" y="720"/>
      <point x="251" y="720" type="curve" smooth="yes"/>
      <point x="86" y="720" type="line" smooth="yes"/>
      <point x="51" y="720"/>
      <point x="45" y="714"/>
      <point x="46" y="679" type="curve" smooth="yes"/>
      <point x="54" y="386" type="line" smooth="yes"/>
      <point x="55" y="351"/>
      <point x="61" y="345"/>
      <point x="96" y="345" type="curve" smooth="yes"/>
    </contour>
    <contour>
      <point x="550" y="345" type="line" smooth="yes"/>
      <point x="585" y="345"/>
      <point x="590" y="351"/>
      <point x="592" y="386" type="curve"/>
      <point x="600" y="679" type="line" smooth="yes"/>
      <point x="601" y="714"/>
      <point x="595" y="720"/>
      <point x="561" y="720" type="curve" smooth="yes"/>
      <point x="396" y="720" type="line" smooth="yes"/>
      <point x="361" y="720"/>
      <point x="355" y="714"/>
      <point x="356" y="679" type="curve" smooth="yes"/>
      <point x="364" y="386" type="line" smooth="yes"/>
      <point x="365" y="351"/>
      <point x="371" y="345"/>
      <point x="406" y="345" type="curve" smooth="yes"/>
    </contour>
  </outline>
</glyph>
<glyph name="dollar" format="2">
  <advance width="650"/>
  <unicode hex="0024"/>
  <outline>
    <contour>
      <point x="224" y="83" type="line"/>
      <point x="224" y="-54" type="line" smooth="yes"/>
      <point x="224" y="-79"/>
      <point x="235" y="-90"/>
      <point x="260" y="-90" type="curve" smooth="yes"/>
      <point x="405" y="-90" type="line" smooth="yes"/>
      <point x="430" y="-90"/>
      <point x="441" y="-79"/>
      <point x="441" y="-54" type="curve" smooth="yes"/>
      <point x="441" y="83" type="line"/>
    </contour>
    <contour>
      <point x="441" y="622" type="line"/>
      <point x="441" y="774" type="line" smooth="yes"/>
      <point x="441" y="799"/>
      <point x="430" y="810"/>
      <point x="405" y="810" type="curve" smooth="yes"/>
      <point x="260" y="810" type="line" smooth="yes"/>
      <point x="235" y="810"/>
      <point x="224" y="799"/>
      <point x="224" y="774" type="curve" smooth="yes"/>
      <point x="224" y="622" type="line"/>
    </contour>
    <component base="S"/>
  </outline>
</glyph>
<glyph name="quotesingle" format="2">
  <advance width="356"/>
  <unicode hex="0027"/>
  <outline>
    <contour>
      <point x="250" y="345" type="line" smooth="yes"/>
      <point x="285" y="345"/>
      <point x="290" y="351"/>
      <point x="292" y="386" type="curve" smooth="yes"/>
      <point x="300" y="679" type="line" smooth="yes"/>
      <point x="301" y="714"/>
      <point x="295" y="720"/>
      <point x="261" y="720" type="curve" smooth="yes"/>
      <point x="96" y="720" type="line" smooth="yes"/>
      <point x="61" y="720"/>
      <point x="55" y="714"/>
      <point x="56" y="679" type="curve" smooth="yes"/>
      <point x="64" y="386" type="line" smooth="yes"/>
      <point x="65" y="351"/>
      <point x="71" y="345"/>
      <point x="106" y="345" type="curve" smooth="yes"/>
    </contour>
  </outline>
</glyph>
<glyph name="parenleft" format="2">
  <advance height="1000" width="429"/>
  <unicode hex="0028"/>
  <outline>
    <contour>
      <point x="348" y="-80" type="line" smooth="yes"/>
      <point x="373" y="-80"/>
      <point x="384" y="-69"/>
      <point x="384" y="-44" type="curve" smooth="yes"/>
      <point x="384" y="75" type="line" smooth="yes"/>
      <point x="384" y="100"/>
      <point x="373" y="111"/>
      <point x="348" y="111" type="curve" smooth="yes"/>
      <point x="317" y="111" type="line" smooth="yes"/>
      <point x="285" y="111"/>
      <point x="276" y="126"/>
      <point x="276" y="161" type="curve"/>
      <point x="276" y="557" type="line" smooth="yes"/>
      <point x="276" y="592"/>
      <point x="285" y="607"/>
      <point x="317" y="607" type="curve" smooth="yes"/>
      <point x="348" y="607" type="line" smooth="yes"/>
      <point x="373" y="607"/>
      <point x="384" y="618"/>
      <point x="384" y="643" type="curve" smooth="yes"/>
      <point x="384" y="764" type="line" smooth="yes"/>
      <point x="384" y="789"/>
      <point x="373" y="800"/>
      <point x="348" y="800" type="curve" smooth="yes"/>
      <point x="294" y="800" type="line" smooth="yes"/>
      <point x="105" y="800"/>
      <point x="48" y="717"/>
      <point x="48" y="595" type="curve" smooth="yes"/>
      <point x="48" y="124" type="line" smooth="yes"/>
      <point x="48" y="3"/>
      <point x="105" y="-80"/>
      <point x="294" y="-80" type="curve" smooth="yes"/>
    </contour>
  </outline>
</glyph>
<glyph name="parenright" format="2">
  <advance height="1000" width="429"/>
  <unicode hex="0029"/>
  <outline>
    <contour>
      <point x="135" y="-80" type="line" smooth="yes"/>
      <point x="324" y="-80"/>
      <point x="381" y="3"/>
      <point x="381" y="124" type="curve" smooth="yes"/>
      <point x="381" y="595" type="line" smooth="yes"/>
      <point x="381" y="717"/>
      <point x="324" y="800"/>
      <point x="135" y="800" type="curve" smooth="yes"/>
      <point x="81" y="800" type="line" smooth="yes"/>
      <point x="56" y="800"/>
      <point x="45" y="789"/>
      <point x="45" y="764" type="curve" smooth="yes"/>
      <point x="45" y="643" type="line" smooth="yes"/>
      <point x="45" y="618"/>
      <point x="56" y="607"/>
      <point x="81" y="607" type="curve" smooth="yes"/>
      <point x="112" y="607" type="line" smooth="yes"/>
      <point x="144" y="607"/>
      <point x="153" y="592"/>
      <point x="153" y="557" type="curve" smooth="yes"/>
      <point x="153" y="161" type="line"/>
      <point x="153" y="126"/>
      <point x="144" y="111"/>
      <point x="112" y="111" type="curve" smooth="yes"/>
      <point x="81" y="111" type="line" smooth="yes"/>
      <point x="56" y="111"/>
      <point x="45" y="100"/>
      <point x="45" y="75" type="curve" smooth="yes"/>
      <point x="45" y="-44" type="line" smooth="yes"/>
      <point x="45" y="-69"/>
      <point x="56" y="-80"/>
      <point x="81" y="-80" type="curve" smooth="yes"/>
    </contour>
  </outline>
</glyph>
<glyph name="comma" format="2">
  <advance width="384"/>
  <unicode hex="002C"/>
  <outline>
    <contour>
      <point x="181" y="-100" type="line" smooth="yes"/>
      <point x="271" y="-100"/>
      <point x="329" y="-51"/>
      <point x="329" y="51" type="curve" smooth="yes"/>
      <point x="329" y="239" type="line" smooth="yes"/>
      <point x="329" y="264"/>
      <point x="318" y="275"/>
      <point x="293" y="275" type="curve" smooth="yes"/>
      <point x="91" y="275" type="line" smooth="yes"/>
      <point x="66" y="275"/>
      <point x="55" y="264"/>
      <point x="55" y="239" type="curve" smooth="yes"/>
      <point x="55" y="91" type="line" smooth="yes"/>
      <point x="55" y="66"/>
      <point x="66" y="55"/>
      <point x="91" y="55" type="curve" smooth="yes"/>
      <point x="200" y="55" type="line"/>
      <point x="200" y="40" type="line" smooth="yes"/>
      <point x="200" y="22"/>
      <point x="191" y="12"/>
      <point x="173" y="12" type="curve" smooth="yes"/>
      <point x="104" y="12" type="line" smooth="yes"/>
      <point x="79" y="12"/>
      <point x="68" y="1"/>
      <point x="68" y="-24" type="curve" smooth="yes"/>
      <point x="68" y="-64" type="line" smooth="yes"/>
      <point x="68" y="-90"/>
      <point x="79" y="-100"/>
      <point x="104" y="-100" type="curve" smooth="yes"/>
    </contour>
  </outline>
</glyph>
<glyph name="hyphen" format="2">
  <advance height="1000" width="420"/>
  <unicode hex="002D"/>
  <unicode hex="00AD"/>
  <unicode hex="2010"/>
  <outline>
    <contour>
      <point x="76.0" y="257.0" type="curve"/>
      <point x="344.0" y="257.0" type="line" smooth="yes"/>
      <point x="369.0" y="257.0"/>
      <point x="380.0" y="267.0"/>
      <point x="380.0" y="293.0" type="curve" smooth="yes"/>
      <point x="380.0" y="427.0" type="line" smooth="yes"/>
      <point x="380.0" y="453.0"/>
      <point x="369.0" y="463.0"/>
      <point x="344.0" y="463.0" type="curve" smooth="yes"/>
      <point x="76.0" y="463.0" type="line" smooth="yes"/>
      <point x="51.0" y="463.0"/>
      <point x="40.0" y="452.0"/>
      <point x="40.0" y="427.0" type="curve" smooth="yes"/>
      <point x="40.0" y="293.0" type="line" smooth="yes"/>
      <point x="40.0" y="267.0"/>
      <point x="51.0" y="257.0"/>
    </contour>
  </outline>
</glyph>
<glyph name="zero" format="2">
  <advance height="1000" width="727"/>
  <unicode hex="0030"/>
  <anchor x="363" y="747" name="top"/>
  <anchor x="363" y="0" name="bottom"/>
  <outline>
    <contour>
      <point x="669" y="189" type="curve" smooth="yes"/>
      <point x="669" y="530" type="line" smooth="yes"/>
      <point x="669" y="652"/>
      <point x="610" y="735"/>
      <point x="364" y="735" type="curve" smooth="yes"/>
      <point x="118" y="735"/>
      <point x="58" y="652"/>
      <point x="58" y="530" type="curve" smooth="yes"/>
      <point x="58" y="189" type="line" smooth="yes"/>
      <point x="58" y="67"/>
      <point x="118" y="-15"/>
      <point x="364" y="-15" type="curve" smooth="yes"/>
      <point x="610" y="-15"/>
      <point x="669" y="67"/>
    </contour>
    <contour>
      <point x="284" y="225" type="curve" smooth="yes"/>
      <point x="284" y="494" type="line" smooth="yes"/>
      <point x="284" y="520"/>
      <point x="296" y="540"/>
      <point x="364" y="540" type="curve" smooth="yes"/>
      <point x="433" y="540"/>
      <point x="444" y="520"/>
      <point x="444" y="494" type="curve" smooth="yes"/>
      <point x="444" y="225" type="line" smooth="yes"/>
      <point x="444" y="198"/>
      <point x="433" y="178"/>
      <point x="364" y="178" type="curve" smooth="yes"/>
      <point x="296" y="178"/>
      <point x="284" y="198"/>
    </contour>
  </outline>
</glyph>
<glyph name="four" format="1">
  <advance width="709"/>
  <unicode hex="0034"/>
  <outline>
    <contour>
      <point x="414" y="167" type="line"/>
      <point x="414" y="36" type="line" smooth="yes"/>
      <point x="414" y="11"/>
      <point x="425" y="0"/>
      <point x="450" y="0" type="curve" smooth="yes"/>
      <point x="604" y="0" type="line" smooth="yes"/>
      <point x="629" y="0"/>
      <point x="640" y="11"/>
      <point x="640" y="36" type="curve" smooth="yes"/>
      <point x="640" y="684" type="line" smooth="yes"/>
      <point x="640" y="709"/>
      <point x="629" y="720"/>
      <point x="604" y="720" type="curve" smooth="yes"/>
      <point x="450" y="720" type="line" smooth="yes"/>
      <point x="425" y="720"/>
      <point x="414" y="709"/>
      <point x="414" y="684" type="curve" smooth="yes"/>
      <point x="414" y="376" type="line"/>
      <point x="321" y="376" type="line" smooth="yes"/>
      <point x="302" y="376"/>
      <point x="290" y="389"/>
      <point x="290" y="410" type="curve" smooth="yes"/>
      <point x="290" y="684" type="line" smooth="yes"/>
      <point x="290" y="709"/>
      <point x="279" y="720"/>
      <point x="254" y="720" type="curve" smooth="yes"/>
      <point x="99" y="720" type="line" smooth="yes"/>
      <point x="74" y="720"/>
      <point x="63" y="709"/>
      <point x="63" y="684" type="curve" smooth="yes"/>
      <point x="63" y="333" type="line" smooth="yes"/>
      <point x="63" y="219"/>
      <point x="115" y="167"/>
      <point x="245" y="167" type="curve" smooth="yes"/>
    </contour>
  </outline>
</glyph>
<glyph name="five" format="2">
  <advance height="1000" width="647"/>
  <unicode hex="0035"/>
  <outline>
    <contour>
      <point x="409" y="0" type="line" smooth="yes"/>
      <point x="529" y="0"/>
      <point x="604" y="64"/>
      <point x="604" y="166" type="curve" smooth="yes"/>
      <point x="604" y="305" type="line" smooth="yes"/>
      <point x="604" y="411"/>
      <point x="537" y="464"/>
      <point x="429" y="464" type="curve" smooth="yes"/>
      <point x="292" y="464" type="line"/>
      <point x="292" y="529" type="line"/>
      <point x="532" y="529" type="line" smooth="yes"/>
      <point x="557" y="529"/>
      <point x="568" y="540"/>
      <point x="568" y="565" type="curve" smooth="yes"/>
      <point x="568" y="684" type="line" smooth="yes"/>
      <point x="568" y="709"/>
      <point x="557" y="720"/>
      <point x="532" y="720" type="curve" smooth="yes"/>
      <point x="101" y="720" type="line" smooth="yes"/>
      <point x="76" y="720"/>
      <point x="65" y="709"/>
      <point x="65" y="684" type="curve" smooth="yes"/>
      <point x="65" y="310" type="line" smooth="yes"/>
      <point x="65" y="285"/>
      <point x="76" y="274"/>
      <point x="101" y="274" type="curve" smooth="yes"/>
      <point x="349" y="274" type="line" smooth="yes"/>
      <point x="365" y="274"/>
      <point x="376" y="267"/>
      <point x="376" y="251" type="curve" smooth="yes"/>
      <point x="376" y="212" type="line" smooth="yes"/>
      <point x="376" y="196"/>
      <point x="365" y="189"/>
      <point x="349" y="189" type="curve" smooth="yes"/>
      <point x="91" y="189" type="line" smooth="yes"/>
      <point x="66" y="189"/>
      <point x="55" y="178"/>
      <point x="55" y="153" type="curve" smooth="yes"/>
      <point x="55" y="36" type="line" smooth="yes"/>
      <point x="55" y="11"/>
      <point x="66" y="0"/>
      <point x="91" y="0" type="curve" smooth="yes"/>
    </contour>
  </outline>
</glyph>
<glyph name="six" format="1">
  <advance width="693"/>
  <unicode hex="0036"/>
  <outline>
    <contour>
      <point x="284" y="262" type="line" smooth="yes"/>
      <point x="284" y="282"/>
      <point x="293" y="298"/>
      <point x="351" y="298" type="curve" smooth="yes"/>
      <point x="411" y="298"/>
      <point x="420" y="282"/>
      <point x="420" y="262" type="curve" smooth="yes"/>
      <point x="420" y="203" type="line" smooth="yes"/>
      <point x="420" y="182"/>
      <point x="411" y="166"/>
      <point x="351" y="166" type="curve" smooth="yes"/>
      <point x="293" y="166"/>
      <point x="284" y="182"/>
      <point x="284" y="203" type="curve" smooth="yes"/>
    </contour>
    <contour>
      <point x="284" y="332" type="line"/>
      <point x="284" y="470" type="line" smooth="yes"/>
      <point x="284" y="519"/>
      <point x="298" y="530"/>
      <point x="347" y="530" type="curve" smooth="yes"/>
      <point x="534" y="530" type="line" smooth="yes"/>
      <point x="559" y="530"/>
      <point x="570" y="541"/>
      <point x="570" y="566" type="curve" smooth="yes"/>
      <point x="570" y="684" type="line" smooth="yes"/>
      <point x="570" y="709"/>
      <point x="560" y="720"/>
      <point x="534" y="720" type="curve" smooth="yes"/>
      <point x="304" y="720" type="line" smooth="yes"/>
      <point x="115" y="720"/>
      <point x="58" y="637"/>
      <point x="58" y="515" type="curve" smooth="yes"/>
      <point x="58" y="187" type="line" smooth="yes"/>
      <point x="58" y="65"/>
      <point x="112" y="-15"/>
      <point x="358" y="-15" type="curve" smooth="yes"/>
      <point x="588" y="-15"/>
      <point x="646" y="65"/>
      <point x="646" y="187" type="curve" smooth="yes"/>
      <point x="646" y="283" type="line" smooth="yes"/>
      <point x="646" y="402"/>
      <point x="592" y="463"/>
      <point x="411" y="463" type="curve" smooth="yes"/>
      <point x="221" y="463"/>
      <point x="179" y="396"/>
      <point x="179" y="298" type="curve"/>
    </contour>
  </outline>
</glyph>
<glyph name="less" format="2">
  <advance height="1000" width="714"/>
  <unicode hex="003C"/>
  <outline>
    <contour>
      <point x="588.0" y="59.0" type="line" smooth="yes"/>
      <point x="613.0" y="54.0"/>
      <point x="624.0" y="64.0"/>
      <point x="624.0" y="90.0" type="curve" smooth="yes"/>
      <point x="624.0" y="222.0" type="line" smooth="yes"/>
      <point x="624.0" y="248.0"/>
      <point x="613.0" y="259.0"/>
      <point x="588.0" y="263.0" type="curve" smooth="yes"/>
      <point x="301.0" y="340.0" type="line" smooth="yes"/>
      <point x="287.0" y="343.0"/>
      <point x="284.0" y="347.0"/>
      <point x="284.0" y="359.0" type="curve" smooth="yes"/>
      <point x="284.0" y="371.0"/>
      <point x="287.0" y="375.0"/>
      <point x="301.0" y="378.0" type="curve" smooth="yes"/>
      <point x="588.0" y="455.0" type="line" smooth="yes"/>
      <point x="613.0" y="459.0"/>
      <point x="624.0" y="470.0"/>
      <point x="624.0" y="496.0" type="curve" smooth="yes"/>
      <point x="624.0" y="628.0" type="line" smooth="yes"/>
      <point x="624.0" y="654.0"/>
      <point x="613.0" y="664.0"/>
      <point x="588.0" y="659.0" type="curve" smooth="yes"/>
      <point x="207.0" y="550.0" type="line" smooth="yes"/>
      <point x="124.0" y="526.0"/>
      <point x="80.0" y="494.0"/>
      <point x="80.0" y="395.0" type="curve" smooth="yes"/>
      <point x="80.0" y="323.0" type="line" smooth="yes"/>
      <point x="80.0" y="224.0"/>
      <point x="124.0" y="192.0"/>
      <point x="207.0" y="168.0" type="curve"/>
    </contour>
  </outline>
</glyph>
<glyph name="equal" format="2">
  <advance height="1000" width="734"/>
  <unicode hex="003D"/>
  <outline>
    <contour>
      <point x="106" y="417" type="curve"/>
      <point x="628" y="417" type="line" smooth="yes"/>
      <point x="653" y="417"/>
      <point x="664" y="427"/>
      <point x="664" y="453" type="curve" smooth="yes"/>
      <point x="664" y="567" type="line" smooth="yes"/>
      <point x="664" y="593"/>
      <point x="653" y="603"/>
      <point x="628" y="603" type="curve" smooth="yes"/>
      <point x="106" y="603" type="line" smooth="yes"/>
      <point x="81" y="603"/>
      <point x="70" y="592"/>
      <point x="70" y="567" type="curve" smooth="yes"/>
      <point x="70" y="453" type="line" smooth="yes"/>
      <point x="70" y="427"/>
      <point x="81" y="417"/>
    </contour>
    <contour>
      <point x="106" y="117" type="curve"/>
      <point x="628" y="117" type="line" smooth="yes"/>
      <point x="653" y="117"/>
      <point x="664" y="127"/>
      <point x="664" y="153" type="curve" smooth="yes"/>
      <point x="664" y="267" type="line" smooth="yes"/>
      <point x="664" y="293"/>
      <point x="653" y="303"/>
      <point x="628" y="303" type="curve" smooth="yes"/>
      <point x="106" y="303" type="line" smooth="yes"/>
      <point x="81" y="303"/>
      <point x="70" y="292"/>
      <point x="70" y="267" type="curve" smooth="yes"/>
      <point x="70" y="153" type="line" smooth="yes"/>
      <point x="70" y="127"/>
      <point x="81" y="117"/>
    </contour>
  </outline>
</glyph>
<glyph name="question" format="2">
  <advance height="1000" width="656"/>
  <unicode hex="003F"/>
  <outline>
    <contour>
      <point x="456.0" y="273.0" type="line" smooth="yes"/>
      <point x="551.0" y="286.0"/>
      <point x="611.0" y="327.0"/>
      <point x="611.0" y="439.0" type="curve" smooth="yes"/>
      <point x="611.0" y="544.0" type="line" smooth="yes"/>
      <point x="611.0" y="658.0"/>
      <point x="534.0" y="720.0"/>
      <point x="404.0" y="720.0" type="curve" smooth="yes"/>
      <point x="81.0" y="720.0" type="line" smooth="yes"/>
      <point x="56.0" y="720.0"/>
      <point x="45.0" y="709.0"/>
      <point x="45.0" y="684.0" type="curve"/>
      <point x="45.0" y="563.0" type="line" smooth="yes"/>
      <point x="45.0" y="537.0"/>
      <point x="56.0" y="527.0"/>
      <point x="81.0" y="527.0" type="curve" smooth="yes"/>
      <point x="357.0" y="527.0" type="line" smooth="yes"/>
      <point x="374.0" y="527.0"/>
      <point x="384.0" y="518.0"/>
      <point x="384.0" y="499.0" type="curve" smooth="yes"/>
      <point x="384.0" y="479.0"/>
      <point x="377.0" y="471.0"/>
      <point x="357.0" y="468.0" type="curve" smooth="yes"/>
      <point x="158.0" y="440.0" type="line" smooth="yes"/>
      <point x="133.0" y="437.0"/>
      <point x="121.0" y="425.0"/>
      <point x="125.0" y="399.0" type="curve" smooth="yes"/>
      <point x="146.0" y="267.0" type="line" smooth="yes"/>
      <point x="150.0" y="242.0"/>
      <point x="160.0" y="233.0"/>
      <point x="185.0" y="236.0" type="curve" smooth="yes"/>
    </contour>
    <contour>
      <point x="344.0" y="0.0" type="line" smooth="yes"/>
      <point x="369.0" y="0.0"/>
      <point x="380.0" y="11.0"/>
      <point x="380.0" y="36.0" type="curve" smooth="yes"/>
      <point x="380.0" y="167.0" type="line" smooth="yes"/>
      <point x="380.0" y="193.0"/>
      <point x="369.0" y="203.0"/>
      <point x="344.0" y="203.0" type="curve" smooth="yes"/>
      <point x="161.0" y="203.0" type="line" smooth="yes"/>
      <point x="135.0" y="203.0"/>
      <point x="125.0" y="193.0"/>
      <point x="125.0" y="167.0" type="curve" smooth="yes"/>
      <point x="125.0" y="36.0" type="line" smooth="yes"/>
      <point x="125.0" y="11.0"/>
      <point x="135.0" y="0.0"/>
      <point x="161.0" y="0.0" type="curve" smooth="yes"/>
    </contour>
  </outline>
</glyph>
<glyph name="C" format="2">
  <advance width="628"/>
  <unicode hex="0043"/>
  <outline>
    <contour>
      <point x="548" y="0" type="line" smooth="yes"/>
      <point x="573" y="0"/>
      <point x="584" y="11"/>
      <point x="584" y="36" type="curve" smooth="yes"/>
      <point x="584" y="155" type="line" smooth="yes"/>
      <point x="584" y="180"/>
      <point x="573" y="191"/>
      <point x="548" y="191" type="curve" smooth="yes"/>
      <point x="347" y="191" type="line" smooth="yes"/>
      <point x="305" y="191"/>
      <point x="286" y="206"/>
      <point x="286" y="239" type="curve" smooth="yes"/>
      <point x="286" y="477" type="line" smooth="yes"/>
      <point x="286" y="511"/>
      <point x="305" y="527"/>
      <point x="347" y="527" type="curve" smooth="yes"/>
      <point x="548" y="527" type="line" smooth="yes"/>
      <point x="573" y="527"/>
      <point x="584" y="538"/>
      <point x="584" y="563" type="curve" smooth="yes"/>
      <point x="584" y="684" type="line" smooth="yes"/>
      <point x="584" y="709"/>
      <point x="573" y="720"/>
      <point x="548" y="720" type="curve" smooth="yes"/>
      <point x="304" y="720" type="line" smooth="yes"/>
      <point x="136" y="720"/>
      <point x="58" y="655"/>
      <point x="58" y="515" type="curve" smooth="yes"/>
      <point x="58" y="204" type="line" smooth="yes"/>
      <point x="58" y="65"/>
      <point x="136" y="0"/>
      <point x="304" y="0" type="curve" smooth="yes"/>
    </contour>
  </outline>
</glyph>
<glyph name="D" format="2">
  <advance height="1000" width="746"/>
  <unicode hex="0044"/>
  <anchor x="365" y="747" name="top"/>
  <outline>
    <contour>
      <point x="442" y="0" type="line" smooth="yes"/>
      <point x="610" y="0"/>
      <point x="688" y="65"/>
      <point x="688" y="204" type="curve" smooth="yes"/>
      <point x="688" y="516" type="line" smooth="yes"/>
      <point x="688" y="655"/>
      <point x="610" y="720"/>
      <point x="442" y="720" type="curve" smooth="yes"/>
      <point x="105" y="720" type="line" smooth="yes"/>
      <point x="80" y="720"/>
      <point x="69" y="709"/>
      <point x="69" y="684" type="curve" smooth="yes"/>
      <point x="69" y="36" type="line" smooth="yes"/>
      <point x="69" y="11"/>
      <point x="80" y="0"/>
      <point x="105" y="0" type="curve" smooth="yes"/>
    </contour>
    <contour>
      <point x="296" y="529" type="line"/>
      <point x="415" y="529" type="line" smooth="yes"/>
      <point x="447" y="529"/>
      <point x="462" y="514"/>
      <point x="462" y="481" type="curve" smooth="yes"/>
      <point x="462" y="238" type="line" smooth="yes"/>
      <point x="462" y="204"/>
      <point x="447" y="189"/>
      <point x="415" y="189" type="curve" smooth="yes"/>
      <point x="296" y="189" type="line"/>
    </contour>
  </outline>
</glyph>
<glyph name="F" format="1">
  <advance width="618"/>
  <unicode hex="0046"/>
  <outline>
    <contour>
      <point x="260" y="0" type="line" smooth="yes"/>
      <point x="285" y="0"/>
      <point x="296" y="11"/>
      <point x="296" y="36" type="curve" smooth="yes"/>
      <point x="296" y="233" type="line"/>
      <point x="470" y="233" type="line" smooth="yes"/>
      <point x="495" y="233"/>
      <point x="506" y="244"/>
      <point x="506" y="269" type="curve" smooth="yes"/>
      <point x="506" y="389" type="line" smooth="yes"/>
      <point x="506" y="414"/>
      <point x="495" y="425"/>
      <point x="470" y="425" type="curve" smooth="yes"/>
      <point x="296" y="425" type="line"/>
      <point x="296" y="529" type="line"/>
      <point x="551" y="529" type="line" smooth="yes"/>
      <point x="576" y="529"/>
      <point x="587" y="540"/>
      <point x="587" y="565" type="curve" smooth="yes"/>
      <point x="587" y="684" type="line" smooth="yes"/>
      <point x="587" y="709"/>
      <point x="576" y="720"/>
      <point x="551" y="720" type="curve" smooth="yes"/>
      <point x="105" y="720" type="line" smooth="yes"/>
      <point x="80" y="720"/>
      <point x="69" y="709"/>
      <point x="69" y="684" type="curve" smooth="yes"/>
      <point x="69" y="36" type="line" smooth="yes"/>
      <point x="69" y="11"/>
      <point x="80" y="0"/>
      <point x="105" y="0" type="curve" smooth="yes"/>
    </contour>
  </outline>
</glyph>
<glyph name="G" format="1">
  <advance width="708"/>
  <unicode hex="0047"/>
  <outline>
    <contour>
      <point x="619" y="0" type="line" smooth="yes"/>
      <point x="644" y="0"/>
      <point x="655" y="11"/>
      <point x="655" y="36" type="curve" smooth="yes"/>
      <point x="655" y="345" type="line" smooth="yes"/>
      <point x="655" y="370"/>
      <point x="644" y="381"/>
      <point x="619" y="381" type="curve" smooth="yes"/>
      <point x="464" y="381" type="line" smooth="yes"/>
      <point x="439" y="381"/>
      <point x="428" y="370"/>
      <point x="428" y="345" type="curve" smooth="yes"/>
      <point x="428" y="189" type="line"/>
      <point x="331" y="189" type="line" smooth="yes"/>
      <point x="300" y="189"/>
      <point x="285" y="204"/>
      <point x="285" y="238" type="curve" smooth="yes"/>
      <point x="285" y="477" type="line" smooth="yes"/>
      <point x="285" y="511"/>
      <point x="304" y="527"/>
      <point x="346" y="527" type="curve" smooth="yes"/>
      <point x="554" y="527" type="line" smooth="yes"/>
      <point x="579" y="527"/>
      <point x="590" y="538"/>
      <point x="590" y="563" type="curve" smooth="yes"/>
      <point x="590" y="684" type="line" smooth="yes"/>
      <point x="590" y="709"/>
      <point x="579" y="720"/>
      <point x="554" y="720" type="curve" smooth="yes"/>
      <point x="304" y="720" type="line" smooth="yes"/>
      <point x="136" y="720"/>
      <point x="58" y="655"/>
      <point x="58" y="516" type="curve" smooth="yes"/>
      <point x="58" y="204" type="line" smooth="yes"/>
      <point x="58" y="65"/>
      <point x="136" y="0"/>
      <point x="304" y="0" type="curve" smooth="yes"/>
    </contour>
  </outline>
</glyph>
<glyph name="I" format="2">
  <advance height="1000" width="605"/>
  <unicode hex="0049"/>
  <outline>
    <contour>
      <point x="89" y="0" type="curve" smooth="yes"/>
      <point x="515" y="0" type="line" smooth="yes"/>
      <point x="540" y="0"/>
      <point x="551" y="11"/>
      <point x="551" y="36" type="curve" smooth="yes"/>
      <point x="551" y="155" type="line" smooth="yes"/>
      <point x="551" y="180"/>
      <point x="540" y="191"/>
      <point x="515" y="191" type="curve" smooth="yes"/>
      <point x="418" y="191" type="line"/>
      <point x="418" y="527" type="line"/>
      <point x="515" y="527" type="line" smooth="yes"/>
      <point x="540" y="527"/>
      <point x="551" y="538"/>
      <point x="551" y="563" type="curve" smooth="yes"/>
      <point x="551" y="684" type="line" smooth="yes"/>
      <point x="551" y="709"/>
      <point x="540" y="720"/>
      <point x="515" y="720" type="curve" smooth="yes"/>
      <point x="89" y="720" type="line" smooth="yes"/>
      <point x="64" y="720"/>
      <point x="53" y="709"/>
      <point x="53" y="684" type="curve" smooth="yes"/>
      <point x="53" y="563" type="line" smooth="yes"/>
      <point x="53" y="538"/>
      <point x="64" y="527"/>
      <point x="89" y="527" type="curve" smooth="yes"/>
      <point x="188" y="527" type="line"/>
      <point x="188" y="191" type="line"/>
      <point x="89" y="191" type="line" smooth="yes"/>
      <point x="64" y="191"/>
      <point x="53" y="180"/>
      <point x="53" y="155" type="curve" smooth="yes"/>
      <point x="53" y="36" type="line" smooth="yes"/>
      <point x="53" y="11"/>
      <point x="64" y="0"/>
    </contour>
  </outline>
</glyph>
<glyph name="J" format="1">
  <advance width="688"/>
  <unicode hex="004A"/>
  <outline>
    <contour>
      <point x="624" y="189" type="curve" smooth="yes"/>
      <point x="624" y="684" type="line" smooth="yes"/>
      <point x="624" y="709"/>
      <point x="613" y="720"/>
      <point x="588" y="720" type="curve" smooth="yes"/>
      <point x="431" y="720" type="line" smooth="yes"/>
      <point x="406" y="720"/>
      <point x="395" y="709"/>
      <point x="395" y="684" type="curve" smooth="yes"/>
      <point x="395" y="229" type="line" smooth="yes"/>
      <point x="395" y="202"/>
      <point x="387" y="182"/>
      <point x="329" y="182" type="curve" smooth="yes"/>
      <point x="267" y="182"/>
      <point x="258" y="202"/>
      <point x="258" y="229" type="curve" smooth="yes"/>
      <point x="258" y="351" type="line" smooth="yes"/>
      <point x="258" y="377"/>
      <point x="247" y="387"/>
      <point x="222" y="387" type="curve" smooth="yes"/>
      <point x="77" y="387" type="line" smooth="yes"/>
      <point x="52" y="387"/>
      <point x="41" y="377"/>
      <point x="41" y="351" type="curve" smooth="yes"/>
      <point x="41" y="189" type="line" smooth="yes"/>
      <point x="41" y="67"/>
      <point x="98" y="-15"/>
      <point x="331" y="-15" type="curve" smooth="yes"/>
      <point x="566" y="-15"/>
      <point x="624" y="67"/>
    </contour>
  </outline>
</glyph>
<glyph name="K" format="1">
  <advance width="746"/>
  <unicode hex="004B"/>
  <outline>
    <contour>
      <point x="260" y="0" type="line" smooth="yes"/>
      <point x="285" y="0"/>
      <point x="296" y="11"/>
      <point x="296" y="36" type="curve" smooth="yes"/>
      <point x="296" y="265" type="line"/>
      <point x="428" y="265" type="line" smooth="yes"/>
      <point x="449" y="265"/>
      <point x="460" y="253"/>
      <point x="460" y="231" type="curve" smooth="yes"/>
      <point x="460" y="36" type="line" smooth="yes"/>
      <point x="460" y="11"/>
      <point x="471" y="0"/>
      <point x="496" y="0" type="curve" smooth="yes"/>
      <point x="650" y="0" type="line" smooth="yes"/>
      <point x="675" y="0"/>
      <point x="686" y="11"/>
      <point x="686" y="36" type="curve" smooth="yes"/>
      <point x="686" y="318" type="line" smooth="yes"/>
      <point x="686" y="398"/>
      <point x="638" y="450"/>
      <point x="563" y="454" type="curve"/>
      <point x="665" y="687" type="line" smooth="yes"/>
      <point x="674" y="708"/>
      <point x="666" y="720"/>
      <point x="643" y="720" type="curve" smooth="yes"/>
      <point x="489" y="720" type="line" smooth="yes"/>
      <point x="463" y="720"/>
      <point x="449" y="711"/>
      <point x="439" y="687" type="curve" smooth="yes"/>
      <point x="336" y="454" type="line"/>
      <point x="296" y="454" type="line"/>
      <point x="296" y="684" type="line" smooth="yes"/>
      <point x="296" y="709"/>
      <point x="285" y="720"/>
      <point x="260" y="720" type="curve" smooth="yes"/>
      <point x="105" y="720" type="line" smooth="yes"/>
      <point x="80" y="720"/>
      <point x="69" y="709"/>
      <point x="69" y="684" type="curve" smooth="yes"/>
      <point x="69" y="36" type="line" smooth="yes"/>
      <point x="69" y="11"/>
      <point x="80" y="0"/>
      <point x="105" y="0" type="curve" smooth="yes"/>
    </contour>
  </outline>
</glyph>
<glyph name="M" format="1">
  <advance width="849"/>
  <unicode hex="004D"/>
  <outline>
    <contour>
      <point x="254" y="0" type="line" smooth="yes"/>
      <point x="279" y="0"/>
      <point x="290" y="11"/>
      <point x="290" y="36" type="curve" smooth="yes"/>
      <point x="290" y="388" type="line"/>
      <point x="349" y="279" type="line" smooth="yes"/>
      <point x="361" y="256"/>
      <point x="376" y="247"/>
      <point x="402" y="247" type="curve" smooth="yes"/>
      <point x="442" y="247" type="line" smooth="yes"/>
      <point x="468" y="247"/>
      <point x="483" y="256"/>
      <point x="495" y="279" type="curve" smooth="yes"/>
      <point x="554" y="388" type="line"/>
      <point x="554" y="36" type="line" smooth="yes"/>
      <point x="554" y="11"/>
      <point x="564" y="0"/>
      <point x="590" y="0" type="curve" smooth="yes"/>
      <point x="744" y="0" type="line" smooth="yes"/>
      <point x="769" y="0"/>
      <point x="780" y="11"/>
      <point x="780" y="36" type="curve" smooth="yes"/>
      <point x="780" y="684" type="line" smooth="yes"/>
      <point x="780" y="709"/>
      <point x="769" y="720"/>
      <point x="744" y="720" type="curve" smooth="yes"/>
      <point x="582" y="720" type="line" smooth="yes"/>
      <point x="561" y="720"/>
      <point x="548" y="712"/>
      <point x="536" y="690" type="curve" smooth="yes"/>
      <point x="447" y="527" type="line" smooth="yes"/>
      <point x="440" y="515"/>
      <point x="437" y="510"/>
      <point x="429" y="510" type="curve" smooth="yes"/>
      <point x="420" y="510" type="line" smooth="yes"/>
      <point x="412" y="510"/>
      <point x="409" y="515"/>
      <point x="402" y="527" type="curve" smooth="yes"/>
      <point x="312" y="690" type="line" smooth="yes"/>
      <point x="300" y="712"/>
      <point x="287" y="720"/>
      <point x="266" y="720" type="curve" smooth="yes"/>
      <point x="105" y="720" type="line" smooth="yes"/>
      <point x="80" y="720"/>
      <point x="69" y="709"/>
      <point x="69" y="684" type="curve" smooth="yes"/>
      <point x="69" y="36" type="line" smooth="yes"/>
      <point x="69" y="11"/>
      <point x="80" y="0"/>
      <point x="105" y="0" type="curve" smooth="yes"/>
    </contour>
  </outline>
</glyph>
<glyph name="O" format="2">
  <advance width="737"/>
  <unicode hex="004F"/>
  <outline>
    <contour>
      <point x="679" y="189" type="curve" smooth="yes"/>
      <point x="679" y="530" type="line" smooth="yes"/>
      <point x="679" y="652"/>
      <point x="619" y="735"/>
      <point x="369" y="735" type="curve" smooth="yes"/>
      <point x="119" y="735"/>
      <point x="58" y="652"/>
      <point x="58" y="530" type="curve" smooth="yes"/>
      <point x="58" y="189" type="line" smooth="yes"/>
      <point x="58" y="67"/>
      <point x="119" y="-15"/>
      <point x="369" y="-15" type="curve" smooth="yes"/>
      <point x="619" y="-15"/>
      <point x="679" y="67"/>
    </contour>
    <contour>
      <point x="285" y="225" type="curve" smooth="yes"/>
      <point x="285" y="494" type="line" smooth="yes"/>
      <point x="285" y="520"/>
      <point x="297" y="540"/>
      <point x="369" y="540" type="curve" smooth="yes"/>
      <point x="442" y="540"/>
      <point x="453" y="520"/>
      <point x="453" y="494" type="curve" smooth="yes"/>
      <point x="453" y="225" type="line" smooth="yes"/>
      <point x="453" y="198"/>
      <point x="442" y="178"/>
      <point x="369" y="178" type="curve" smooth="yes"/>
      <point x="297" y="178"/>
      <point x="285" y="198"/>
    </contour>
  </outline>
</glyph>
<glyph name="P" format="1">
  <advance width="682"/>
  <unicode hex="0050"/>
  <outline>
    <contour>
      <point x="260" y="0" type="line" smooth="yes"/>
      <point x="285" y="0"/>
      <point x="296" y="11"/>
      <point x="296" y="36" type="curve" smooth="yes"/>
      <point x="296" y="202" type="line"/>
      <point x="411" y="202" type="line" smooth="yes"/>
      <point x="593" y="202"/>
      <point x="647" y="281"/>
      <point x="647" y="397" type="curve" smooth="yes"/>
      <point x="647" y="525" type="line" smooth="yes"/>
      <point x="647" y="641"/>
      <point x="593" y="720"/>
      <point x="411" y="720" type="curve" smooth="yes"/>
      <point x="105" y="720" type="line" smooth="yes"/>
      <point x="80" y="720"/>
      <point x="69" y="709"/>
      <point x="69" y="684" type="curve" smooth="yes"/>
      <point x="69" y="36" type="line" smooth="yes"/>
      <point x="69" y="11"/>
      <point x="80" y="0"/>
      <point x="105" y="0" type="curve" smooth="yes"/>
    </contour>
    <contour>
      <point x="294" y="533" type="line"/>
      <point x="384" y="533" type="line" smooth="yes"/>
      <point x="423" y="533"/>
      <point x="431" y="510"/>
      <point x="431" y="484" type="curve" smooth="yes"/>
      <point x="431" y="431" type="line" smooth="yes"/>
      <point x="431" y="405"/>
      <point x="423" y="382"/>
      <point x="384" y="382" type="curve" smooth="yes"/>
      <point x="294" y="382" type="line"/>
    </contour>
  </outline>
</glyph>
<glyph name="R" format="2">
  <advance height="1000" width="743"/>
  <unicode hex="0052"/>
  <anchor x="350" y="747" name="top"/>
  <outline>
    <contour>
      <point x="295" y="540" type="line"/>
      <point x="370" y="540" type="line" smooth="yes"/>
      <point x="405" y="540"/>
      <point x="414" y="520"/>
      <point x="414" y="493" type="curve" smooth="yes"/>
      <point x="414" y="459" type="line" smooth="yes"/>
      <point x="414" y="432"/>
      <point x="405" y="412"/>
      <point x="370" y="412" type="curve" smooth="yes"/>
      <point x="295" y="412" type="line"/>
    </contour>
    <contour>
      <point x="259" y="0" type="line" smooth="yes"/>
      <point x="284" y="0"/>
      <point x="295" y="11"/>
      <point x="295" y="36" type="curve" smooth="yes"/>
      <point x="295" y="232" type="line"/>
      <point x="435" y="232" type="line" smooth="yes"/>
      <point x="463" y="232"/>
      <point x="473" y="219"/>
      <point x="473" y="189" type="curve" smooth="yes"/>
      <point x="473" y="36" type="line" smooth="yes"/>
      <point x="473" y="11"/>
      <point x="484" y="0"/>
      <point x="509" y="0" type="curve" smooth="yes"/>
      <point x="664" y="0" type="line" smooth="yes"/>
      <point x="689" y="0"/>
      <point x="700" y="11"/>
      <point x="700" y="36" type="curve" smooth="yes"/>
      <point x="700" y="248" type="line" smooth="yes"/>
      <point x="700" y="332"/>
      <point x="652" y="385"/>
      <point x="579" y="393" type="curve"/>
      <point x="621" y="411"/>
      <point x="635" y="451"/>
      <point x="635" y="507" type="curve" smooth="yes"/>
      <point x="635" y="553" type="line" smooth="yes"/>
      <point x="635" y="652"/>
      <point x="588" y="720"/>
      <point x="438" y="720" type="curve" smooth="yes"/>
      <point x="105" y="720" type="line" smooth="yes"/>
      <point x="80" y="720"/>
      <point x="69" y="709"/>
      <point x="69" y="684" type="curve" smooth="yes"/>
      <point x="69" y="36" type="line" smooth="yes"/>
      <point x="69" y="11"/>
      <point x="80" y="0"/>
      <point x="105" y="0" type="curve" smooth="yes"/>
    </contour>
  </outline>
</glyph>
<glyph name="S" format="2">
  <advance height="1000" width="650"/>
  <unicode hex="0053"/>
  <outline>
    <contour>
      <point x="403" y="0" type="line" smooth="yes"/>
      <point x="532" y="0"/>
      <point x="610" y="62"/>
      <point x="610" y="176" type="curve" smooth="yes"/>
      <point x="610" y="281" type="line" smooth="yes"/>
      <point x="610" y="393"/>
      <point x="548" y="433"/>
      <point x="454" y="447" type="curve" smooth="yes"/>
      <point x="305" y="467" type="line" smooth="yes"/>
      <point x="288" y="469"/>
      <point x="278" y="481"/>
      <point x="278" y="499" type="curve" smooth="yes"/>
      <point x="278" y="517"/>
      <point x="288" y="529"/>
      <point x="305" y="529" type="curve" smooth="yes"/>
      <point x="538" y="529" type="line" smooth="yes"/>
      <point x="563" y="529"/>
      <point x="574" y="540"/>
      <point x="574" y="565" type="curve" smooth="yes"/>
      <point x="574" y="684" type="line" smooth="yes"/>
      <point x="574" y="709"/>
      <point x="563" y="720"/>
      <point x="538" y="720" type="curve" smooth="yes"/>
      <point x="258" y="720" type="line" smooth="yes"/>
      <point x="128" y="720"/>
      <point x="51" y="658"/>
      <point x="51" y="544" type="curve" smooth="yes"/>
      <point x="51" y="439" type="line" smooth="yes"/>
      <point x="51" y="327"/>
      <point x="112" y="287"/>
      <point x="206" y="273" type="curve" smooth="yes"/>
      <point x="356" y="252" type="line" smooth="yes"/>
      <point x="373" y="250"/>
      <point x="382" y="241"/>
      <point x="382" y="218" type="curve" smooth="yes"/>
      <point x="382" y="202"/>
      <point x="373" y="189"/>
      <point x="356" y="189" type="curve" smooth="yes"/>
      <point x="87" y="189" type="line" smooth="yes"/>
      <point x="62" y="189"/>
      <point x="51" y="178"/>
      <point x="51" y="153" type="curve" smooth="yes"/>
      <point x="51" y="36" type="line" smooth="yes"/>
      <point x="51" y="11"/>
      <point x="62" y="0"/>
      <point x="87" y="0" type="curve" smooth="yes"/>
    </contour>
  </outline>
</glyph>
<glyph name="T" format="1">
  <advance width="656"/>
  <unicode hex="0054"/>
  <outline>
    <contour>
      <point x="409" y="0" type="line" smooth="yes"/>
      <point x="434" y="0"/>
      <point x="445" y="11"/>
      <point x="445" y="36" type="curve" smooth="yes"/>
      <point x="445" y="527" type="line"/>
      <point x="592" y="527" type="line" smooth="yes"/>
      <point x="617" y="527"/>
      <point x="628" y="538"/>
      <point x="628" y="563" type="curve" smooth="yes"/>
      <point x="628" y="684" type="line" smooth="yes"/>
      <point x="628" y="709"/>
      <point x="617" y="720"/>
      <point x="592" y="720" type="curve" smooth="yes"/>
      <point x="64" y="720" type="line" smooth="yes"/>
      <point x="39" y="720"/>
      <point x="28" y="709"/>
      <point x="28" y="684" type="curve" smooth="yes"/>
      <point x="28" y="563" type="line" smooth="yes"/>
      <point x="28" y="538"/>
      <point x="39" y="527"/>
      <point x="64" y="527" type="curve" smooth="yes"/>
      <point x="211" y="527" type="line"/>
      <point x="211" y="36" type="line" smooth="yes"/>
      <point x="211" y="11"/>
      <point x="222" y="0"/>
      <point x="247" y="0" type="curve" smooth="yes"/>
    </contour>
  </outline>
</glyph>
<glyph name="V" format="1">
  <advance width="730"/>
  <unicode hex="0056"/>
  <outline>
    <contour>
      <point x="495" y="0" type="line" smooth="yes"/>
      <point x="521" y="0"/>
      <point x="536" y="8"/>
      <point x="546" y="33" type="curve" smooth="yes"/>
      <point x="644" y="278" type="line" smooth="yes"/>
      <point x="668" y="338"/>
      <point x="676" y="357"/>
      <point x="676" y="420" type="curve" smooth="yes"/>
      <point x="676" y="684" type="line" smooth="yes"/>
      <point x="676" y="709"/>
      <point x="666" y="720"/>
      <point x="640" y="720" type="curve" smooth="yes"/>
      <point x="483" y="720" type="line" smooth="yes"/>
      <point x="458" y="720"/>
      <point x="447" y="709"/>
      <point x="447" y="684" type="curve" smooth="yes"/>
      <point x="447" y="409" type="line" smooth="yes"/>
      <point x="447" y="395"/>
      <point x="444" y="383"/>
      <point x="439" y="368" type="curve" smooth="yes"/>
      <point x="392" y="227" type="line" smooth="yes"/>
      <point x="388" y="214"/>
      <point x="384" y="210"/>
      <point x="373" y="210" type="curve" smooth="yes"/>
      <point x="362" y="210" type="line" smooth="yes"/>
      <point x="351" y="210"/>
      <point x="347" y="214"/>
      <point x="343" y="227" type="curve" smooth="yes"/>
      <point x="296" y="367" type="line" smooth="yes"/>
      <point x="291" y="382"/>
      <point x="288" y="394"/>
      <point x="288" y="408" type="curve" smooth="yes"/>
      <point x="288" y="684" type="line" smooth="yes"/>
      <point x="288" y="709"/>
      <point x="274" y="720"/>
      <point x="249" y="720" type="curve" smooth="yes"/>
      <point x="90" y="720" type="line" smooth="yes"/>
      <point x="65" y="720"/>
      <point x="54" y="709"/>
      <point x="54" y="684" type="curve" smooth="yes"/>
      <point x="54" y="420" type="line" smooth="yes"/>
      <point x="54" y="357"/>
      <point x="62" y="338"/>
      <point x="86" y="278" type="curve" smooth="yes"/>
      <point x="184" y="33" type="line" smooth="yes"/>
      <point x="194" y="8"/>
      <point x="209" y="0"/>
      <point x="235" y="0" type="curve"/>
    </contour>
    <contour>
      <point x="365.0" y="747.0" type="move" name="top"/>
    </contour>
    <contour>
      <point x="365.0" y="0.0" type="move" name="bottom"/>
    </contour>
  </outline>
</glyph>
<glyph name="X" format="2">
  <advance height="1000" width="737"/>
  <unicode hex="0058"/>
  <anchor x="368.0" y="747.0" name="top"/>
  <anchor x="368.0" y="0.0" name="bottom"/>
  <outline>
    <contour>
      <point x="284" y="36" type="curve" smooth="yes"/>
      <point x="284" y="135" type="line" smooth="yes"/>
      <point x="284" y="149"/>
      <point x="283" y="163"/>
      <point x="293" y="177" type="curve" smooth="yes"/>
      <point x="338" y="240" type="line" smooth="yes"/>
      <point x="346" y="252"/>
      <point x="351" y="257"/>
      <point x="362" y="257" type="curve" smooth="yes"/>
      <point x="376" y="257" type="line" smooth="yes"/>
      <point x="387" y="257"/>
      <point x="392" y="252"/>
      <point x="400" y="240" type="curve" smooth="yes"/>
      <point x="444" y="177" type="line" smooth="yes"/>
      <point x="454" y="163"/>
      <point x="453" y="149"/>
      <point x="453" y="135" type="curve" smooth="yes"/>
      <point x="453" y="36" type="line" smooth="yes"/>
      <point x="453" y="11"/>
      <point x="464" y="0"/>
      <point x="489" y="0" type="curve" smooth="yes"/>
      <point x="641" y="0" type="line" smooth="yes"/>
      <point x="666" y="0"/>
      <point x="677" y="11"/>
      <point x="677" y="36" type="curve" smooth="yes"/>
      <point x="677" y="143" type="line" smooth="yes"/>
      <point x="677" y="205"/>
      <point x="670" y="225"/>
      <point x="639" y="266" type="curve" smooth="yes"/>
      <point x="558" y="374" type="line"/>
      <point x="639" y="484" type="line" smooth="yes"/>
      <point x="669" y="525"/>
      <point x="677" y="545"/>
      <point x="677" y="607" type="curve" smooth="yes"/>
      <point x="677" y="684" type="line" smooth="yes"/>
      <point x="677" y="709"/>
      <point x="666" y="720"/>
      <point x="641" y="720" type="curve" smooth="yes"/>
      <point x="489" y="720" type="line" smooth="yes"/>
      <point x="464" y="720"/>
      <point x="453" y="709"/>
      <point x="453" y="684" type="curve" smooth="yes"/>
      <point x="453" y="615" type="line" smooth="yes"/>
      <point x="453" y="601"/>
      <point x="453" y="586"/>
      <point x="444" y="573" type="curve" smooth="yes"/>
      <point x="399" y="510" type="line" smooth="yes"/>
      <point x="391" y="499"/>
      <point x="386" y="493"/>
      <point x="375" y="493" type="curve" smooth="yes"/>
      <point x="363" y="493" type="line" smooth="yes"/>
      <point x="352" y="493"/>
      <point x="346" y="499"/>
      <point x="339" y="510" type="curve" smooth="yes"/>
      <point x="295" y="573" type="line" smooth="yes"/>
      <point x="286" y="586"/>
      <point x="286" y="601"/>
      <point x="286" y="615" type="curve" smooth="yes"/>
      <point x="286" y="684" type="line" smooth="yes"/>
      <point x="286" y="709"/>
      <point x="275" y="720"/>
      <point x="250" y="720" type="curve" smooth="yes"/>
      <point x="96" y="720" type="line" smooth="yes"/>
      <point x="71" y="720"/>
      <point x="60" y="709"/>
      <point x="60" y="684" type="curve" smooth="yes"/>
      <point x="60" y="607" type="line" smooth="yes"/>
      <point x="60" y="545"/>
      <point x="67" y="525"/>
      <point x="98" y="484" type="curve" smooth="yes"/>
      <point x="179" y="375" type="line"/>
      <point x="98" y="266" type="line" smooth="yes"/>
      <point x="68" y="225"/>
      <point x="60" y="205"/>
      <point x="60" y="143" type="curve" smooth="yes"/>
      <point x="60" y="36" type="line" smooth="yes"/>
      <point x="60" y="11"/>
      <point x="71" y="0"/>
      <point x="96" y="0" type="curve" smooth="yes"/>
      <point x="248" y="0" type="line" smooth="yes"/>
      <point x="273" y="0"/>
      <point x="284" y="11"/>
    </contour>
  </outline>
</glyph>
<glyph name="Y" format="2">
  <advance height="1000" width="705"/>
  <unicode hex="0059"/>
  <anchor x="352" y="747" name="top"/>
  <anchor x="352" y="0" name="bottom"/>
  <outline>
    <contour>
      <point x="455" y="143" type="line"/>
      <point x="622" y="369" type="line" smooth="yes"/>
      <point x="652" y="410"/>
      <point x="660" y="430"/>
      <point x="660" y="492" type="curve" smooth="yes"/>
      <point x="660" y="684" type="line" smooth="yes"/>
      <point x="660" y="709"/>
      <point x="649" y="720"/>
      <point x="624" y="720" type="curve" smooth="yes"/>
      <point x="475" y="720" type="line" smooth="yes"/>
      <point x="450" y="720"/>
      <point x="439" y="709"/>
      <point x="439" y="684" type="curve" smooth="yes"/>
      <point x="439" y="520" type="line" smooth="yes"/>
      <point x="439" y="506"/>
      <point x="439" y="492"/>
      <point x="430" y="478" type="curve" smooth="yes"/>
      <point x="384" y="406" type="line" smooth="yes"/>
      <point x="377" y="394"/>
      <point x="371" y="389"/>
      <point x="360" y="389" type="curve"/>
      <point x="350" y="389" type="line" smooth="yes"/>
      <point x="339" y="389"/>
      <point x="333" y="394"/>
      <point x="326" y="406" type="curve" smooth="yes"/>
      <point x="280" y="478" type="line" smooth="yes"/>
      <point x="271" y="492"/>
      <point x="271" y="506"/>
      <point x="271" y="520" type="curve" smooth="yes"/>
      <point x="271" y="684" type="line" smooth="yes"/>
      <point x="271" y="709"/>
      <point x="260" y="720"/>
      <point x="235" y="720" type="curve" smooth="yes"/>
      <point x="81" y="720" type="line" smooth="yes"/>
      <point x="56" y="720"/>
      <point x="45" y="709"/>
      <point x="45" y="684" type="curve" smooth="yes"/>
      <point x="45" y="492" type="line" smooth="yes"/>
      <point x="45" y="430"/>
      <point x="52" y="410"/>
      <point x="83" y="369" type="curve" smooth="yes"/>
      <point x="252" y="143" type="line"/>
    </contour>
    <contour>
      <point x="434" y="0" type="line" smooth="yes"/>
      <point x="459" y="0"/>
      <point x="470" y="11"/>
      <point x="470" y="36" type="curve" smooth="yes"/>
      <point x="470" y="224" type="line"/>
      <point x="236" y="224" type="line"/>
      <point x="236" y="36" type="line" smooth="yes"/>
      <point x="236" y="11"/>
      <point x="246" y="0"/>
      <point x="272" y="0" type="curve" smooth="yes"/>
    </contour>
  </outline>
</glyph>
<glyph name="Z" format="2">
  <advance height="1000" width="660"/>
  <unicode hex="005A"/>
  <anchor x="330" y="747" name="top"/>
  <anchor x="330" y="0" name="bottom"/>
  <outline>
    <contour>
      <point x="578" y="0" type="line" smooth="yes"/>
      <point x="603" y="0"/>
      <point x="614" y="11"/>
      <point x="614" y="36" type="curve" smooth="yes"/>
      <point x="614" y="155" type="line" smooth="yes"/>
      <point x="614" y="180"/>
      <point x="603" y="191"/>
      <point x="578" y="191" type="curve" smooth="yes"/>
      <point x="339" y="191" type="line"/>
      <point x="571" y="472" type="line" smooth="yes"/>
      <point x="589" y="491"/>
      <point x="596" y="508"/>
      <point x="596" y="535" type="curve" smooth="yes"/>
      <point x="596" y="684" type="line" smooth="yes"/>
      <point x="596" y="709"/>
      <point x="585" y="720"/>
      <point x="560" y="720" type="curve" smooth="yes"/>
      <point x="100" y="720" type="line" smooth="yes"/>
      <point x="75" y="720"/>
      <point x="64" y="709"/>
      <point x="64" y="684" type="curve"/>
      <point x="64" y="563" type="line"/>
      <point x="64" y="538"/>
      <point x="75" y="527"/>
      <point x="100" y="527" type="curve" smooth="yes"/>
      <point x="314" y="527" type="line"/>
      <point x="71" y="232" type="line" smooth="yes"/>
      <point x="53" y="213"/>
      <point x="46" y="196"/>
      <point x="46" y="170" type="curve"/>
      <point x="46" y="36" type="line"/>
      <point x="46" y="11"/>
      <point x="57" y="0"/>
      <point x="82" y="0" type="curve" smooth="yes"/>
    </contour>
  </outline>
</glyph>
<glyph name="bracketleft" format="2">
  <advance height="1000" width="429"/>
  <unicode hex="005B"/>
  <outline>
    <contour>
      <point x="276" y="607" type="line"/>
      <point x="348" y="607" type="line" smooth="yes"/>
      <point x="373" y="607"/>
      <point x="384" y="618"/>
      <point x="384" y="643" type="curve" smooth="yes"/>
      <point x="384" y="764" type="line" smooth="yes"/>
      <point x="384" y="789"/>
      <point x="373" y="800"/>
      <point x="348" y="800" type="curve" smooth="yes"/>
      <point x="84" y="800" type="line" smooth="yes"/>
      <point x="59" y="800"/>
      <point x="48" y="789"/>
      <point x="48" y="764" type="curve" smooth="yes"/>
      <point x="48" y="-44" type="line" smooth="yes"/>
      <point x="48" y="-69"/>
      <point x="59" y="-80"/>
      <point x="84" y="-80" type="curve" smooth="yes"/>
      <point x="348" y="-80" type="line" smooth="yes"/>
      <point x="373" y="-80"/>
      <point x="384" y="-69"/>
      <point x="384" y="-44" type="curve" smooth="yes"/>
      <point x="384" y="75" type="line" smooth="yes"/>
      <point x="384" y="100"/>
      <point x="373" y="111"/>
      <point x="348" y="111" type="curve" smooth="yes"/>
      <point x="276" y="111" type="line"/>
    </contour>
  </outline>
</glyph>
<glyph name="backslash" format="2">
  <advance height="1000" width="347"/>
  <unicode hex="005C"/>
  <outline>
    <contour>
      <point x="222" y="774" type="line" smooth="yes"/>
      <point x="219" y="799"/>
      <point x="211" y="810"/>
      <point x="186" y="810" type="curve" smooth="yes"/>
      <point x="41" y="810" type="line" smooth="yes"/>
      <point x="16" y="810"/>
      <point x="2" y="799"/>
      <point x="5" y="774" type="curve" smooth="yes"/>
      <point x="125" y="-54" type="line" smooth="yes"/>
      <point x="128" y="-79"/>
      <point x="136" y="-90"/>
      <point x="161" y="-90" type="curve" smooth="yes"/>
      <point x="306" y="-90" type="line" smooth="yes"/>
      <point x="331" y="-90"/>
      <point x="345" y="-79"/>
      <point x="342" y="-54" type="curve" smooth="yes"/>
    </contour>
  </outline>
</glyph>
<glyph name="bracketright" format="1">
  <advance width="429"/>
  <unicode hex="005D"/>
  <outline>
    <contour>
      <point x="153" y="111" type="line"/>
      <point x="81" y="111" type="line" smooth="yes"/>
      <point x="56" y="111"/>
      <point x="45" y="100"/>
      <point x="45" y="75" type="curve" smooth="yes"/>
      <point x="45" y="-44" type="line" smooth="yes"/>
      <point x="45" y="-69"/>
      <point x="56" y="-80"/>
      <point x="81" y="-80" type="curve" smooth="yes"/>
      <point x="345" y="-80" type="line" smooth="yes"/>
      <point x="370" y="-80"/>
      <point x="381" y="-69"/>
      <point x="381" y="-44" type="curve" smooth="yes"/>
      <point x="381" y="764" type="line" smooth="yes"/>
      <point x="381" y="789"/>
      <point x="370" y="800"/>
      <point x="345" y="800" type="curve" smooth="yes"/>
      <point x="81" y="800" type="line" smooth="yes"/>
      <point x="56" y="800"/>
      <point x="45" y="789"/>
      <point x="45" y="764" type="curve" smooth="yes"/>
      <point x="45" y="643" type="line" smooth="yes"/>
      <point x="45" y="618"/>
      <point x="56" y="607"/>
      <point x="81" y="607" type="curve" smooth="yes"/>
      <point x="153" y="607" type="line"/>
    </contour>
  </outline>
</glyph>
<glyph name="grave" format="1">
  <advance width="500"/>
  <unicode hex="0060"/>
  <outline>
    <contour>
      <point x="425" y="753" type="line" smooth="yes"/>
      <point x="448" y="750"/>
      <point x="459" y="763"/>
      <point x="459" y="786" type="curve" smooth="yes"/>
      <point x="459" y="882" type="line" smooth="yes"/>
      <point x="459" y="907"/>
      <point x="448" y="915"/>
      <point x="423" y="918" type="curve" smooth="yes"/>
      <point x="74" y="961" type="line" smooth="yes"/>
      <point x="51" y="964"/>
      <point x="40" y="951"/>
      <point x="40" y="928" type="curve" smooth="yes"/>
      <point x="40" y="832" type="line" smooth="yes"/>
      <point x="40" y="807"/>
      <point x="51" y="799"/>
      <point x="76" y="796" type="curve" smooth="yes"/>
    </contour>
    <contour>
      <point x="250" y="747" type="move" name="_top"/>
    </contour>
    <contour>
      <point x="250" y="0" type="move" name="_bottom"/>
    </contour>
  </outline>
</glyph>
<glyph name="braceleft" format="1">
  <advance width="455"/>
  <unicode hex="007B"/>
  <outline>
    <contour>
      <point x="312" y="161" type="curve"/>
      <point x="312" y="276" type="line"/>
      <point x="312" y="316"/>
      <point x="302" y="332"/>
      <point x="267" y="338" type="curve" smooth="yes"/>
      <point x="234" y="344" type="line" smooth="yes"/>
      <point x="224" y="346"/>
      <point x="221" y="349"/>
      <point x="221" y="358" type="curve" smooth="yes"/>
      <point x="221" y="367"/>
      <point x="224" y="371"/>
      <point x="234" y="372" type="curve"/>
      <point x="267" y="378" type="line" smooth="yes"/>
      <point x="302" y="384"/>
      <point x="312" y="400"/>
      <point x="312" y="440" type="curve" smooth="yes"/>
      <point x="312" y="557" type="line" smooth="yes"/>
      <point x="312" y="592"/>
      <point x="321" y="607"/>
      <point x="353" y="607" type="curve" smooth="yes"/>
      <point x="374" y="607" type="line" smooth="yes"/>
      <point x="399" y="607"/>
      <point x="410" y="618"/>
      <point x="410" y="643" type="curve" smooth="yes"/>
      <point x="410" y="764" type="line" smooth="yes"/>
      <point x="410" y="789"/>
      <point x="399" y="800"/>
      <point x="374" y="800" type="curve" smooth="yes"/>
      <point x="330" y="800" type="line" smooth="yes"/>
      <point x="141" y="800"/>
      <point x="84" y="717"/>
      <point x="84" y="595" type="curve" smooth="yes"/>
      <point x="84" y="462" type="line"/>
      <point x="41" y="449"/>
      <point x="20" y="424"/>
      <point x="20" y="376" type="curve" smooth="yes"/>
      <point x="20" y="341" type="line" smooth="yes"/>
      <point x="20" y="293"/>
      <point x="41" y="267"/>
      <point x="84" y="254" type="curve"/>
      <point x="84" y="124" type="line" smooth="yes"/>
      <point x="84" y="3"/>
      <point x="141" y="-80"/>
      <point x="330" y="-80" type="curve" smooth="yes"/>
      <point x="374" y="-80" type="line" smooth="yes"/>
      <point x="399" y="-80"/>
      <point x="410" y="-69"/>
      <point x="410" y="-44" type="curve" smooth="yes"/>
      <point x="410" y="75" type="line" smooth="yes"/>
      <point x="410" y="100"/>
      <point x="399" y="111"/>
      <point x="374" y="111" type="curve" smooth="yes"/>
      <point x="353" y="111" type="line" smooth="yes"/>
      <point x="321" y="111"/>
      <point x="312" y="126"/>
    </contour>
  </outline>
</glyph>
<glyph name="bar" format="2">
  <advance height="1000" width="347"/>
  <unicode hex="007C"/>
  <outline>
    <contour>
      <point x="282" y="774" type="line" smooth="yes"/>
      <point x="282" y="799"/>
      <point x="271" y="810"/>
      <point x="246" y="810" type="curve" smooth="yes"/>
      <point x="101" y="810" type="line" smooth="yes"/>
      <point x="76" y="810"/>
      <point x="65" y="799"/>
      <point x="65" y="774" type="curve" smooth="yes"/>
      <point x="65" y="-54" type="line" smooth="yes"/>
      <point x="65" y="-79"/>
      <point x="76" y="-90"/>
      <point x="101" y="-90" type="curve" smooth="yes"/>
      <point x="246" y="-90" type="line" smooth="yes"/>
      <point x="271" y="-90"/>
      <point x="282" y="-79"/>
      <point x="282" y="-54" type="curve"/>
    </contour>
  </outline>
</glyph>
<glyph name="sterling" format="2">
  <advance width="695"/>
  <unicode hex="00A3"/>
  <outline>
    <contour>
      <point x="614" y="0" type="line" smooth="yes"/>
      <point x="639" y="0"/>
      <point x="650" y="11"/>
      <point x="650" y="36" type="curve" smooth="yes"/>
      <point x="650" y="291" type="line" smooth="yes"/>
      <point x="650" y="316"/>
      <point x="639" y="327"/>
      <point x="614" y="327" type="curve" smooth="yes"/>
      <point x="469" y="327" type="line" smooth="yes"/>
      <point x="444" y="327"/>
      <point x="433" y="316"/>
      <point x="433" y="291" type="curve" smooth="yes"/>
      <point x="433" y="189" type="line"/>
      <point x="296" y="189" type="line"/>
      <point x="296" y="477" type="line" smooth="yes"/>
      <point x="296" y="503"/>
      <point x="305" y="527"/>
      <point x="357" y="527" type="curve" smooth="yes"/>
      <point x="505" y="527" type="line" smooth="yes"/>
      <point x="530" y="527"/>
      <point x="541" y="538"/>
      <point x="541" y="563" type="curve" smooth="yes"/>
      <point x="541" y="684" type="line" smooth="yes"/>
      <point x="541" y="709"/>
      <point x="530" y="720"/>
      <point x="505" y="720" type="curve" smooth="yes"/>
      <point x="315" y="720" type="line" smooth="yes"/>
      <point x="126" y="720"/>
      <point x="69" y="637"/>
      <point x="69" y="516" type="curve"/>
      <point x="69" y="36" type="line"/>
      <point x="69" y="11"/>
      <point x="80" y="0"/>
      <point x="105" y="0" type="curve" smooth="yes"/>
    </contour>
    <contour>
      <point x="56" y="265" type="curve"/>
      <point x="344" y="265" type="line" smooth="yes"/>
      <point x="369" y="265"/>
      <point x="380" y="275"/>
      <point x="380" y="301" type="curve" smooth="yes"/>
      <point x="380" y="408" type="line" smooth="yes"/>
      <point x="380" y="434"/>
      <point x="369" y="444"/>
      <point x="344" y="444" type="curve" smooth="yes"/>
      <point x="56" y="444" type="line" smooth="yes"/>
      <point x="31" y="444"/>
      <point x="20" y="433"/>
      <point x="20" y="408" type="curve" smooth="yes"/>
      <point x="20" y="301" type="line" smooth="yes"/>
      <point x="20" y="275"/>
      <point x="31" y="265"/>
    </contour>
  </outline>
</glyph>
<glyph name="currency" format="1">
  <advance width="821"/>
  <unicode hex="00A4"/>
  <outline>
    <contour>
      <point x="596" y="421" type="line"/>
      <point x="762" y="587" type="line"/>
      <point x="780" y="603"/>
      <point x="781" y="617"/>
      <point x="762" y="635" type="curve" smooth="yes"/>
      <point x="686" y="711" type="line" smooth="yes"/>
      <point x="668" y="730"/>
      <point x="654" y="729"/>
      <point x="638" y="711" type="curve"/>
      <point x="485" y="558" type="line"/>
    </contour>
    <contour>
      <point x="198" y="272" type="line"/>
      <point x="59" y="133" type="line" smooth="yes"/>
      <point x="42" y="117"/>
      <point x="42" y="102"/>
      <point x="59" y="84" type="curve" smooth="yes"/>
      <point x="135" y="8" type="line" smooth="yes"/>
      <point x="154" y="-10"/>
      <point x="168" y="-9"/>
      <point x="184" y="8" type="curve" smooth="yes"/>
      <point x="322" y="146" type="line"/>
    </contour>
    <contour>
      <point x="501" y="145" type="line"/>
      <point x="638" y="8" type="line" smooth="yes"/>
      <point x="654" y="-9"/>
      <point x="668" y="-10"/>
      <point x="686" y="8" type="curve" smooth="yes"/>
      <point x="762" y="84" type="line" smooth="yes"/>
      <point x="781" y="103"/>
      <point x="780" y="117"/>
      <point x="762" y="133" type="curve"/>
      <point x="611" y="284" type="line"/>
    </contour>
    <contour>
      <point x="334" y="561" type="line"/>
      <point x="184" y="711" type="line"/>
      <point x="168" y="729"/>
      <point x="153" y="729"/>
      <point x="135" y="711" type="curve" smooth="yes"/>
      <point x="59" y="635" type="line" smooth="yes"/>
      <point x="41" y="617"/>
      <point x="42" y="603"/>
      <point x="59" y="587" type="curve" smooth="yes"/>
      <point x="213" y="433" type="line"/>
    </contour>
    <contour>
      <point x="674" y="260" type="curve"/>
      <point x="674" y="459" type="line" smooth="yes"/>
      <point x="674" y="569"/>
      <point x="624" y="644"/>
      <point x="413" y="644" type="curve" smooth="yes"/>
      <point x="202" y="644"/>
      <point x="151" y="569"/>
      <point x="151" y="459" type="curve" smooth="yes"/>
      <point x="151" y="260" type="line" smooth="yes"/>
      <point x="151" y="150"/>
      <point x="202" y="76"/>
      <point x="413" y="76" type="curve" smooth="yes"/>
      <point x="624" y="76"/>
      <point x="674" y="150"/>
    </contour>
    <contour>
      <point x="333" y="289" type="curve"/>
      <point x="333" y="430" type="line" smooth="yes"/>
      <point x="333" y="455"/>
      <point x="345" y="474"/>
      <point x="413" y="474" type="curve" smooth="yes"/>
      <point x="482" y="474"/>
      <point x="493" y="455"/>
      <point x="493" y="430" type="curve" smooth="yes"/>
      <point x="493" y="289" type="line" smooth="yes"/>
      <point x="493" y="263"/>
      <point x="482" y="244"/>
      <point x="413" y="244" type="curve" smooth="yes"/>
      <point x="345" y="244"/>
      <point x="333" y="263"/>
    </contour>
  </outline>
</glyph>
<glyph name="yen" format="2">
  <advance width="703"/>
  <unicode hex="00A5"/>
  <outline>
    <contour>
      <point x="454" y="213" type="line"/>
      <point x="630" y="441" type="line" smooth="yes"/>
      <point x="658" y="479"/>
      <point x="659" y="520"/>
      <point x="659" y="571" type="curve"/>
      <point x="659" y="684" type="line" smooth="yes"/>
      <point x="659" y="709"/>
      <point x="648" y="720"/>
      <point x="623" y="720" type="curve" smooth="yes"/>
      <point x="476" y="720" type="line" smooth="yes"/>
      <point x="450" y="720"/>
      <point x="440" y="709"/>
      <point x="440" y="684" type="curve" smooth="yes"/>
      <point x="440" y="539" type="line" smooth="yes"/>
      <point x="440" y="525"/>
      <point x="441" y="512"/>
      <point x="432" y="498" type="curve" smooth="yes"/>
      <point x="389" y="434" type="line" smooth="yes"/>
      <point x="381" y="422"/>
      <point x="374" y="417"/>
      <point x="363" y="417" type="curve" smooth="yes"/>
      <point x="351" y="417" type="line" smooth="yes"/>
      <point x="340" y="417"/>
      <point x="333" y="423"/>
      <point x="325" y="434" type="curve" smooth="yes"/>
      <point x="279" y="499" type="line" smooth="yes"/>
      <point x="272" y="514"/>
      <point x="271" y="526"/>
      <point x="271" y="540" type="curve" smooth="yes"/>
      <point x="271" y="684" type="line" smooth="yes"/>
      <point x="271" y="709"/>
      <point x="260" y="720"/>
      <point x="235" y="720" type="curve" smooth="yes"/>
      <point x="80" y="720" type="line" smooth="yes"/>
      <point x="55" y="720"/>
      <point x="44" y="709"/>
      <point x="44" y="684" type="curve" smooth="yes"/>
      <point x="44" y="572" type="line" smooth="yes"/>
      <point x="44" y="521"/>
      <point x="44" y="480"/>
      <point x="73" y="442" type="curve" smooth="yes"/>
      <point x="251" y="213" type="line"/>
    </contour>
    <contour>
      <point x="428" y="0" type="line" smooth="yes"/>
      <point x="453" y="0"/>
      <point x="464" y="11"/>
      <point x="464" y="36" type="curve" smooth="yes"/>
      <point x="464" y="254" type="line"/>
      <point x="240" y="254" type="line"/>
      <point x="240" y="36" type="line" smooth="yes"/>
      <point x="240" y="11"/>
      <point x="250" y="0"/>
      <point x="276" y="0" type="curve" smooth="yes"/>
    </contour>
    <contour>
      <point x="131" y="130" type="curve"/>
      <point x="573" y="130" type="line" smooth="yes"/>
      <point x="598" y="130"/>
      <point x="609" y="140"/>
      <point x="609" y="166" type="curve" smooth="yes"/>
      <point x="609" y="263" type="line" smooth="yes"/>
      <point x="609" y="289"/>
      <point x="598" y="299"/>
      <point x="573" y="299" type="curve" smooth="yes"/>
      <point x="131" y="299" type="line" smooth="yes"/>
      <point x="106" y="299"/>
      <point x="95" y="288"/>
      <point x="95" y="263" type="curve" smooth="yes"/>
      <point x="95" y="166" type="line" smooth="yes"/>
      <point x="95" y="140"/>
      <point x="106" y="130"/>
    </contour>
  </outline>
</glyph>
<glyph name="section" format="2">
  <advance height="1000" width="650"/>
  <unicode hex="00A7"/>
  <outline>
    <contour>
      <point x="482" y="205" type="line" smooth="yes"/>
      <point x="507" y="205"/>
      <point x="518" y="216"/>
      <point x="518" y="241" type="curve" smooth="yes"/>
      <point x="518" y="290" type="line" smooth="yes"/>
      <point x="518" y="315"/>
      <point x="507" y="326"/>
      <point x="482" y="326" type="curve" smooth="yes"/>
      <point x="331" y="326" type="line" smooth="yes"/>
      <point x="279" y="326"/>
      <point x="270" y="346"/>
      <point x="270" y="374" type="curve" smooth="yes"/>
      <point x="270" y="517" type="line" smooth="yes"/>
      <point x="270" y="543"/>
      <point x="279" y="567"/>
      <point x="331" y="567" type="curve" smooth="yes"/>
      <point x="538" y="567" type="line" smooth="yes"/>
      <point x="563" y="567"/>
      <point x="574" y="578"/>
      <point x="574" y="603" type="curve" smooth="yes"/>
      <point x="574" y="684" type="line" smooth="yes"/>
      <point x="574" y="709"/>
      <point x="563" y="720"/>
      <point x="538" y="720" type="curve" smooth="yes"/>
      <point x="298" y="720" type="line" smooth="yes"/>
      <point x="109" y="720"/>
      <point x="52" y="637"/>
      <point x="52" y="515" type="curve" smooth="yes"/>
      <point x="52" y="409" type="line" smooth="yes"/>
      <point x="52" y="288"/>
      <point x="109" y="205"/>
      <point x="298" y="205" type="curve" smooth="yes"/>
    </contour>
    <contour>
      <point x="180" y="515" type="line" smooth="yes"/>
      <point x="155" y="515"/>
      <point x="144" y="504"/>
      <point x="144" y="479" type="curve" smooth="yes"/>
      <point x="144" y="430" type="line" smooth="yes"/>
      <point x="144" y="405"/>
      <point x="155" y="394"/>
      <point x="180" y="394" type="curve" smooth="yes"/>
      <point x="331" y="394" type="line" smooth="yes"/>
      <point x="383" y="394"/>
      <point x="392" y="374"/>
      <point x="392" y="346" type="curve" smooth="yes"/>
      <point x="392" y="203" type="line" smooth="yes"/>
      <point x="392" y="177"/>
      <point x="383" y="153"/>
      <point x="331" y="153" type="curve" smooth="yes"/>
      <point x="98" y="153" type="line" smooth="yes"/>
      <point x="73" y="153"/>
      <point x="62" y="142"/>
      <point x="62" y="117" type="curve" smooth="yes"/>
      <point x="62" y="36" type="line" smooth="yes"/>
      <point x="62" y="11"/>
      <point x="73" y="0"/>
      <point x="98" y="0" type="curve" smooth="yes"/>
      <point x="364" y="0" type="line" smooth="yes"/>
      <point x="553" y="0"/>
      <point x="610" y="83"/>
      <point x="610" y="205" type="curve" smooth="yes"/>
      <point x="610" y="311" type="line" smooth="yes"/>
      <point x="610" y="432"/>
      <point x="553" y="515"/>
      <point x="364" y="515" type="curve" smooth="yes"/>
    </contour>
  </outline>
</glyph>
<glyph name="ordfeminine" format="2">
  <advance height="1000" width="520"/>
  <unicode hex="00AA"/>
  <anchor x="263" y="745" name="top"/>
  <anchor x="263" y="207" name="bottom"/>
  <outline>
    <contour>
      <point x="169" y="202" type="line" smooth="yes"/>
      <point x="190" y="202"/>
      <point x="199" y="212"/>
      <point x="199" y="232" type="curve" smooth="yes"/>
      <point x="199" y="436" type="line"/>
      <point x="243" y="568" type="line" smooth="yes"/>
      <point x="244" y="573"/>
      <point x="247" y="578"/>
      <point x="251" y="578" type="curve" smooth="yes"/>
      <point x="264" y="578" type="line" smooth="yes"/>
      <point x="267" y="578"/>
      <point x="271" y="573"/>
      <point x="273" y="568" type="curve" smooth="yes"/>
      <point x="316" y="436" type="line"/>
      <point x="316" y="232" type="line" smooth="yes"/>
      <point x="316" y="212"/>
      <point x="326" y="202"/>
      <point x="346" y="202" type="curve" smooth="yes"/>
      <point x="454" y="202" type="line" smooth="yes"/>
      <point x="476" y="202"/>
      <point x="484" y="212"/>
      <point x="484" y="232" type="curve" smooth="yes"/>
      <point x="484" y="411" type="line" smooth="yes"/>
      <point x="484" y="451"/>
      <point x="475" y="488"/>
      <point x="464" y="519" type="curve" smooth="yes"/>
      <point x="402" y="688" type="line"/>
      <point x="392" y="711"/>
      <point x="381" y="720"/>
      <point x="355" y="720" type="curve" smooth="yes"/>
      <point x="166" y="720" type="line" smooth="yes"/>
      <point x="139" y="720"/>
      <point x="128" y="711"/>
      <point x="118" y="688" type="curve"/>
      <point x="99" y="634"/>
      <point x="76" y="574"/>
      <point x="57" y="519" type="curve"/>
      <point x="45" y="488"/>
      <point x="36" y="451"/>
      <point x="36" y="411" type="curve" smooth="yes"/>
      <point x="36" y="232" type="line" smooth="yes"/>
      <point x="36" y="212"/>
      <point x="46" y="202"/>
      <point x="66" y="202" type="curve" smooth="yes"/>
    </contour>
    <contour>
      <point x="354" y="327" type="line"/>
      <point x="354" y="463" type="line"/>
      <point x="162" y="463" type="line"/>
      <point x="162" y="327" type="line"/>
    </contour>
    <contour>
      <point x="72" y="0" type="curve"/>
      <point x="448" y="0" type="line" smooth="yes"/>
      <point x="473" y="0"/>
      <point x="484" y="10"/>
      <point x="484" y="36" type="curve" smooth="yes"/>
      <point x="484" y="103" type="line" smooth="yes"/>
      <point x="484" y="129"/>
      <point x="473" y="139"/>
      <point x="448" y="139" type="curve" smooth="yes"/>
      <point x="72" y="139" type="line" smooth="yes"/>
      <point x="47" y="139"/>
      <point x="36" y="128"/>
      <point x="36" y="103" type="curve" smooth="yes"/>
      <point x="36" y="36" type="line" smooth="yes"/>
      <point x="36" y="10"/>
      <point x="47" y="0"/>
    </contour>
  </outline>
</glyph>
<glyph name="guillemotleft" format="1">
  <advance width="812"/>
  <unicode hex="00AB"/>
  <outline>
    <contour>
      <point x="356" y="106" type="line" smooth="yes"/>
      <point x="380" y="99"/>
      <point x="392" y="113"/>
      <point x="392" y="137" type="curve" smooth="yes"/>
      <point x="392" y="254" type="line" smooth="yes"/>
      <point x="392" y="280"/>
      <point x="380" y="296"/>
      <point x="356" y="303" type="curve" smooth="yes"/>
      <point x="261" y="330" type="line" smooth="yes"/>
      <point x="247" y="335"/>
      <point x="244" y="337"/>
      <point x="244" y="349" type="curve" smooth="yes"/>
      <point x="244" y="361"/>
      <point x="248" y="363"/>
      <point x="261" y="368" type="curve" smooth="yes"/>
      <point x="356" y="396" type="line" smooth="yes"/>
      <point x="379" y="405"/>
      <point x="392" y="419"/>
      <point x="392" y="445" type="curve" smooth="yes"/>
      <point x="392" y="562" type="line" smooth="yes"/>
      <point x="392" y="588"/>
      <point x="377" y="599"/>
      <point x="356" y="593" type="curve" smooth="yes"/>
      <point x="177" y="541" type="line" smooth="yes"/>
      <point x="94" y="516"/>
      <point x="50" y="485"/>
      <point x="50" y="386" type="curve" smooth="yes"/>
      <point x="50" y="312" type="line" smooth="yes"/>
      <point x="50" y="213"/>
      <point x="94" y="181"/>
      <point x="177" y="157" type="curve" smooth="yes"/>
    </contour>
    <contour>
      <point x="716" y="109" type="line" smooth="yes"/>
      <point x="740" y="102"/>
      <point x="752" y="116"/>
      <point x="752" y="140" type="curve" smooth="yes"/>
      <point x="752" y="254" type="line" smooth="yes"/>
      <point x="752" y="280"/>
      <point x="740" y="296"/>
      <point x="716" y="303" type="curve" smooth="yes"/>
      <point x="621" y="330" type="line" smooth="yes"/>
      <point x="607" y="334"/>
      <point x="604" y="337"/>
      <point x="604" y="349" type="curve" smooth="yes"/>
      <point x="604" y="361"/>
      <point x="608" y="364"/>
      <point x="621" y="368" type="curve" smooth="yes"/>
      <point x="716" y="396" type="line"/>
      <point x="739" y="405"/>
      <point x="752" y="419"/>
      <point x="752" y="445" type="curve" smooth="yes"/>
      <point x="752" y="559" type="line" smooth="yes"/>
      <point x="752" y="582"/>
      <point x="739" y="597"/>
      <point x="716" y="590" type="curve" smooth="yes"/>
      <point x="547" y="541" type="line" smooth="yes"/>
      <point x="463" y="517"/>
      <point x="420" y="485"/>
      <point x="420" y="386" type="curve" smooth="yes"/>
      <point x="420" y="312" type="line" smooth="yes"/>
      <point x="420" y="213"/>
      <point x="464" y="181"/>
      <point x="547" y="157" type="curve" smooth="yes"/>
    </contour>
  </outline>
</glyph>
<glyph name="logicalnot" format="1">
  <advance width="734"/>
  <unicode hex="00AC"/>
  <outline>
    <contour>
      <point x="628" y="63" type="line" smooth="yes"/>
      <point x="654" y="63"/>
      <point x="664" y="74"/>
      <point x="664" y="99" type="curve" smooth="yes"/>
      <point x="664" y="457" type="line" smooth="yes"/>
      <point x="664" y="483"/>
      <point x="653" y="493"/>
      <point x="628" y="493" type="curve" smooth="yes"/>
      <point x="106" y="493" type="line" smooth="yes"/>
      <point x="81" y="493"/>
      <point x="70" y="482"/>
      <point x="70" y="457" type="curve" smooth="yes"/>
      <point x="70" y="343" type="line" smooth="yes"/>
      <point x="70" y="317"/>
      <point x="81" y="307"/>
      <point x="106" y="307" type="curve"/>
      <point x="468" y="307" type="line"/>
      <point x="468" y="99" type="line" smooth="yes"/>
      <point x="468" y="74"/>
      <point x="478" y="63"/>
      <point x="504" y="63" type="curve" smooth="yes"/>
    </contour>
  </outline>
</glyph>
<glyph name="registered" format="2">
  <advance width="560"/>
  <unicode hex="00AE"/>
  <outline>
    <contour>
      <point x="234.0" y="326.0" type="line" smooth="yes"/>
      <point x="244.0" y="326.0"/>
      <point x="248.0" y="331.0"/>
      <point x="248.0" y="341.0" type="curve" smooth="yes"/>
      <point x="248.0" y="424.0" type="line"/>
      <point x="306.0" y="424.0" type="line" smooth="yes"/>
      <point x="317.0" y="424.0"/>
      <point x="321.0" y="419.0"/>
      <point x="321.0" y="407.0" type="curve" smooth="yes"/>
      <point x="321.0" y="341.0" type="line" smooth="yes"/>
      <point x="321.0" y="331.0"/>
      <point x="326.0" y="326.0"/>
      <point x="336.0" y="326.0" type="curve" smooth="yes"/>
      <point x="400.0" y="326.0" type="line" smooth="yes"/>
      <point x="410.0" y="326.0"/>
      <point x="414.0" y="331.0"/>
      <point x="414.0" y="341.0" type="curve" smooth="yes"/>
      <point x="414.0" y="428.0" type="line" smooth="yes"/>
      <point x="414.0" y="462.0"/>
      <point x="394.0" y="484.0"/>
      <point x="364.0" y="488.0" type="curve"/>
      <point x="382.0" y="495.0"/>
      <point x="388.0" y="511.0"/>
      <point x="388.0" y="534.0" type="curve" smooth="yes"/>
      <point x="388.0" y="553.0" type="line" smooth="yes"/>
      <point x="388.0" y="594.0"/>
      <point x="369.0" y="621.0"/>
      <point x="307.0" y="621.0" type="curve" smooth="yes"/>
      <point x="171.0" y="621.0" type="line" smooth="yes"/>
      <point x="160.0" y="621.0"/>
      <point x="156.0" y="617.0"/>
      <point x="156.0" y="606.0" type="curve"/>
      <point x="156.0" y="341.0" type="line"/>
      <point x="156.0" y="331.0"/>
      <point x="160.0" y="326.0"/>
      <point x="171.0" y="326.0" type="curve" smooth="yes"/>
    </contour>
    <contour>
      <point x="248.0" y="548.0" type="line"/>
      <point x="279.0" y="548.0" type="line" smooth="yes"/>
      <point x="294.0" y="548.0"/>
      <point x="297.0" y="539.0"/>
      <point x="297.0" y="528.0" type="curve" smooth="yes"/>
      <point x="297.0" y="515.0" type="line" smooth="yes"/>
      <point x="297.0" y="503.0"/>
      <point x="294.0" y="495.0"/>
      <point x="279.0" y="495.0" type="curve" smooth="yes"/>
      <point x="248.0" y="495.0" type="line"/>
    </contour>
    <contour>
      <point x="504.0" y="345.0" type="curve" smooth="yes"/>
      <point x="504.0" y="591.0" type="line" smooth="yes"/>
      <point x="504.0" y="680.0"/>
      <point x="461.0" y="740.0"/>
      <point x="280.0" y="740.0" type="curve" smooth="yes"/>
      <point x="100.0" y="740.0"/>
      <point x="56.0" y="680.0"/>
      <point x="56.0" y="591.0" type="curve" smooth="yes"/>
      <point x="56.0" y="345.0" type="line" smooth="yes"/>
      <point x="56.0" y="258.0"/>
      <point x="100.0" y="198.0"/>
      <point x="280.0" y="198.0" type="curve" smooth="yes"/>
      <point x="461.0" y="198.0"/>
      <point x="504.0" y="258.0"/>
    </contour>
    <contour>
      <point x="444.0" y="343.0" type="line"/>
      <point x="444.0" y="291.0"/>
      <point x="412.0" y="256.0"/>
      <point x="280.0" y="256.0" type="curve" smooth="yes"/>
      <point x="148.0" y="256.0"/>
      <point x="116.0" y="291.0"/>
      <point x="116.0" y="343.0" type="curve"/>
      <point x="116.0" y="594.0" type="line"/>
      <point x="116.0" y="646.0"/>
      <point x="148.0" y="682.0"/>
      <point x="280.0" y="682.0" type="curve" smooth="yes"/>
      <point x="412.0" y="682.0"/>
      <point x="444.0" y="646.0"/>
      <point x="444.0" y="594.0" type="curve"/>
    </contour>
  </outline>
</glyph>
<glyph name="twosuperior" format="2">
  <advance height="1000" width="485"/>
  <unicode hex="00B2"/>
  <outline>
    <contour>
      <point x="408" y="202" type="line" smooth="yes"/>
      <point x="426" y="202"/>
      <point x="434" y="210"/>
      <point x="434" y="228" type="curve" smooth="yes"/>
      <point x="434" y="312" type="line" smooth="yes"/>
      <point x="434" y="330"/>
      <point x="426" y="338"/>
      <point x="408" y="338" type="curve"/>
      <point x="203" y="338" type="line"/>
      <point x="203" y="353" type="line" smooth="yes"/>
      <point x="203" y="369"/>
      <point x="207" y="370"/>
      <point x="222" y="375" type="curve" smooth="yes"/>
      <point x="320" y="406" type="line" smooth="yes"/>
      <point x="390" y="427"/>
      <point x="432" y="460"/>
      <point x="432" y="533" type="curve" smooth="yes"/>
      <point x="432" y="601" type="line" smooth="yes"/>
      <point x="432" y="678"/>
      <point x="387" y="720"/>
      <point x="305" y="720" type="curve" smooth="yes"/>
      <point x="93" y="720" type="line" smooth="yes"/>
      <point x="75" y="720"/>
      <point x="67" y="712"/>
      <point x="67" y="694" type="curve" smooth="yes"/>
      <point x="67" y="610" type="line" smooth="yes"/>
      <point x="67" y="592"/>
      <point x="75" y="584"/>
      <point x="93" y="584" type="curve" smooth="yes"/>
      <point x="249" y="584" type="line" smooth="yes"/>
      <point x="264" y="584"/>
      <point x="269" y="580"/>
      <point x="269" y="565" type="curve" smooth="yes"/>
      <point x="269" y="550"/>
      <point x="264" y="544"/>
      <point x="249" y="539" type="curve" smooth="yes"/>
      <point x="153" y="509" type="line" smooth="yes"/>
      <point x="87" y="489"/>
      <point x="40" y="463"/>
      <point x="40" y="352" type="curve" smooth="yes"/>
      <point x="40" y="228" type="line" smooth="yes"/>
      <point x="40" y="210"/>
      <point x="48" y="202"/>
      <point x="66" y="202" type="curve" smooth="yes"/>
    </contour>
  </outline>
</glyph>
<glyph name="acute" format="2">
  <advance width="500"/>
  <unicode hex="00B4"/>
  <anchor x="250" y="747" name="_top"/>
  <anchor x="250" y="0" name="_bottom"/>
  <outline>
    <contour>
      <point x="423" y="796" type="line" smooth="yes"/>
      <point x="448" y="799"/>
      <point x="459" y="807"/>
      <point x="459" y="832" type="curve" smooth="yes"/>
      <point x="459" y="928" type="line" smooth="yes"/>
      <point x="459" y="951"/>
      <point x="448" y="964"/>
      <point x="425" y="961" type="curve"/>
      <point x="76" y="918" type="line" smooth="yes"/>
      <point x="51" y="915"/>
      <point x="40" y="907"/>
      <point x="40" y="882" type="curve" smooth="yes"/>
      <point x="40" y="786" type="line" smooth="yes"/>
      <point x="40" y="763"/>
      <point x="51" y="750"/>
      <point x="74" y="753" type="curve" smooth="yes"/>
    </contour>
  </outline>
</glyph>
<glyph name="paragraph" format="2">
  <advance height="1000" width="682"/>
  <unicode hex="00B6"/>
  <outline>
    <contour>
      <point x="462" y="0" type="line" smooth="yes"/>
      <point x="437" y="0"/>
      <point x="426" y="11"/>
      <point x="426" y="36" type="curve" smooth="yes"/>
      <point x="426" y="202" type="line"/>
      <point x="271" y="202" type="line" smooth="yes"/>
      <point x="89" y="202"/>
      <point x="35" y="281"/>
      <point x="35" y="397" type="curve" smooth="yes"/>
      <point x="35" y="525" type="line" smooth="yes"/>
      <point x="35" y="641"/>
      <point x="89" y="720"/>
      <point x="271" y="720" type="curve" smooth="yes"/>
      <point x="577" y="720" type="line" smooth="yes"/>
      <point x="602" y="720"/>
      <point x="613" y="709"/>
      <point x="613" y="684" type="curve" smooth="yes"/>
      <point x="613" y="36" type="line" smooth="yes"/>
      <point x="613" y="11"/>
      <point x="602" y="0"/>
      <point x="577" y="0" type="curve" smooth="yes"/>
    </contour>
    <contour>
      <point x="375" y="282" type="line"/>
      <point x="375" y="36" type="line" smooth="yes"/>
      <point x="375" y="11"/>
      <point x="364" y="0"/>
      <point x="339" y="0" type="curve" smooth="yes"/>
      <point x="224" y="0" type="line" smooth="yes"/>
      <point x="199" y="0"/>
      <point x="188" y="11"/>
      <point x="188" y="36" type="curve" smooth="yes"/>
      <point x="188" y="282" type="line"/>
    </contour>
  </outline>
</glyph>
<glyph name="onesuperior" format="2">
  <advance height="1000" width="457"/>
  <unicode hex="00B9"/>
  <outline>
    <contour>
      <point x="392" y="202" type="line" smooth="yes"/>
      <point x="410" y="202"/>
      <point x="418" y="210"/>
      <point x="418" y="228" type="curve"/>
      <point x="418" y="315" type="line" smooth="yes"/>
      <point x="418" y="333"/>
      <point x="410" y="341"/>
      <point x="392" y="341" type="curve"/>
      <point x="323" y="341" type="line"/>
      <point x="323" y="694" type="line" smooth="yes"/>
      <point x="323" y="712"/>
      <point x="315" y="720"/>
      <point x="297" y="720" type="curve" smooth="yes"/>
      <point x="88" y="720" type="line" smooth="yes"/>
      <point x="70" y="720"/>
      <point x="62" y="712"/>
      <point x="62" y="694" type="curve" smooth="yes"/>
      <point x="62" y="607" type="line" smooth="yes"/>
      <point x="62" y="589"/>
      <point x="70" y="581"/>
      <point x="88" y="581" type="curve" smooth="yes"/>
      <point x="155" y="581" type="line"/>
      <point x="155" y="341" type="line"/>
      <point x="74" y="341" type="line" smooth="yes"/>
      <point x="56" y="341"/>
      <point x="48" y="333"/>
      <point x="48" y="315" type="curve"/>
      <point x="48" y="228" type="line"/>
      <point x="48" y="210"/>
      <point x="56" y="202"/>
      <point x="74" y="202" type="curve" smooth="yes"/>
    </contour>
  </outline>
</glyph>
<glyph name="ordmasculine" format="2">
  <advance width="525"/>
  <unicode hex="00BA"/>
  <anchor x="265.0" y="745.0" name="top"/>
  <anchor x="265.0" y="207.0" name="bottom"/>
  <outline>
    <contour>
      <point x="486" y="340" type="curve"/>
      <point x="486" y="581" type="line"/>
      <point x="486" y="670"/>
      <point x="443" y="730"/>
      <point x="263" y="730" type="curve" smooth="yes"/>
      <point x="83" y="730"/>
      <point x="39" y="670"/>
      <point x="39" y="581" type="curve"/>
      <point x="39" y="340" type="line"/>
      <point x="39" y="252"/>
      <point x="83" y="192"/>
      <point x="263" y="192" type="curve" smooth="yes"/>
      <point x="443" y="192"/>
      <point x="486" y="252"/>
    </contour>
    <contour>
      <point x="208" y="365" type="curve"/>
      <point x="208" y="555" type="line"/>
      <point x="208" y="571"/>
      <point x="216" y="584"/>
      <point x="263" y="584" type="curve" smooth="yes"/>
      <point x="311" y="584"/>
      <point x="318" y="571"/>
      <point x="318" y="555" type="curve"/>
      <point x="318" y="365" type="line"/>
      <point x="318" y="349"/>
      <point x="311" y="337"/>
      <point x="263" y="337" type="curve" smooth="yes"/>
      <point x="216" y="337"/>
      <point x="208" y="349"/>
    </contour>
    <contour>
      <point x="75" y="0" type="curve"/>
      <point x="450" y="0" type="line" smooth="yes"/>
      <point x="475" y="0"/>
      <point x="486" y="10"/>
      <point x="486" y="36" type="curve" smooth="yes"/>
      <point x="486" y="103" type="line" smooth="yes"/>
      <point x="486" y="129"/>
      <point x="475" y="139"/>
      <point x="450" y="139" type="curve" smooth="yes"/>
      <point x="75" y="139" type="line" smooth="yes"/>
      <point x="50" y="139"/>
      <point x="39" y="128"/>
      <point x="39" y="103" type="curve" smooth="yes"/>
      <point x="39" y="36" type="line" smooth="yes"/>
      <point x="39" y="10"/>
      <point x="50" y="0"/>
    </contour>
  </outline>
</glyph>
<glyph name="questiondown" format="2">
  <advance height="1000" width="656"/>
  <unicode hex="00BF"/>
  <outline>
    <contour>
      <point x="200.0" y="447.0" type="line" smooth="yes"/>
      <point x="105.0" y="434.0"/>
      <point x="45.0" y="393.0"/>
      <point x="45.0" y="281.0" type="curve" smooth="yes"/>
      <point x="45.0" y="176.0" type="line" smooth="yes"/>
      <point x="45.0" y="62.0"/>
      <point x="122.0" y="0.0"/>
      <point x="252.0" y="0.0" type="curve" smooth="yes"/>
      <point x="575.0" y="0.0" type="line" smooth="yes"/>
      <point x="600.0" y="0.0"/>
      <point x="611.0" y="11.0"/>
      <point x="611.0" y="36.0" type="curve"/>
      <point x="611.0" y="157.0" type="line" smooth="yes"/>
      <point x="611.0" y="183.0"/>
      <point x="600.0" y="193.0"/>
      <point x="575.0" y="193.0" type="curve" smooth="yes"/>
      <point x="299.0" y="193.0" type="line" smooth="yes"/>
      <point x="282.0" y="193.0"/>
      <point x="272.0" y="202.0"/>
      <point x="272.0" y="221.0" type="curve" smooth="yes"/>
      <point x="272.0" y="241.0"/>
      <point x="279.0" y="249.0"/>
      <point x="299.0" y="252.0" type="curve" smooth="yes"/>
      <point x="498.0" y="280.0" type="line" smooth="yes"/>
      <point x="523.0" y="283.0"/>
      <point x="535.0" y="295.0"/>
      <point x="531.0" y="321.0" type="curve" smooth="yes"/>
      <point x="510.0" y="453.0" type="line" smooth="yes"/>
      <point x="506.0" y="478.0"/>
      <point x="496.0" y="487.0"/>
      <point x="471.0" y="484.0" type="curve" smooth="yes"/>
    </contour>
    <contour>
      <point x="312.0" y="720.0" type="line" smooth="yes"/>
      <point x="287.0" y="720.0"/>
      <point x="276.0" y="709.0"/>
      <point x="276.0" y="684.0" type="curve" smooth="yes"/>
      <point x="276.0" y="553.0" type="line" smooth="yes"/>
      <point x="276.0" y="527.0"/>
      <point x="287.0" y="517.0"/>
      <point x="312.0" y="517.0" type="curve" smooth="yes"/>
      <point x="495.0" y="517.0" type="line" smooth="yes"/>
      <point x="521.0" y="517.0"/>
      <point x="531.0" y="527.0"/>
      <point x="531.0" y="553.0" type="curve" smooth="yes"/>
      <point x="531.0" y="684.0" type="line" smooth="yes"/>
      <point x="531.0" y="709.0"/>
      <point x="521.0" y="720.0"/>
      <point x="495.0" y="720.0" type="curve" smooth="yes"/>
    </contour>
  </outline>
</glyph>
<glyph name="Aring" format="2">
  <advance width="730"/>
  <unicode hex="00C5"/>
  <outline>
    <contour>
      <point x="582" y="829" type="line" smooth="yes"/>
      <point x="582" y="914"/>
      <point x="539" y="972"/>
      <point x="365" y="972" type="curve" smooth="yes"/>
      <point x="191" y="972"/>
      <point x="148" y="914"/>
      <point x="148" y="829" type="curve" smooth="yes"/>
      <point x="148" y="771" type="line" smooth="yes"/>
      <point x="148" y="686"/>
      <point x="191" y="628"/>
      <point x="365" y="628" type="curve" smooth="yes"/>
      <point x="539" y="628"/>
      <point x="582" y="686"/>
      <point x="582" y="771" type="curve" smooth="yes"/>
    </contour>
    <contour>
      <point x="425" y="764" type="line" smooth="yes"/>
      <point x="425" y="735"/>
      <point x="416" y="721"/>
      <point x="366" y="721" type="curve" smooth="yes"/>
      <point x="317" y="721"/>
      <point x="309" y="735"/>
      <point x="309" y="764" type="curve" smooth="yes"/>
      <point x="309" y="799" type="line" smooth="yes"/>
      <point x="309" y="825"/>
      <point x="317" y="839"/>
      <point x="366" y="839" type="curve" smooth="yes"/>
      <point x="416" y="839"/>
      <point x="425" y="825"/>
      <point x="425" y="799" type="curve" smooth="yes"/>
    </contour>
    <contour>
      <point x="330" y="510" type="line" smooth="yes"/>
      <point x="334" y="522"/>
      <point x="341" y="527"/>
      <point x="349" y="527" type="curve" smooth="yes"/>
      <point x="374" y="527" type="line" smooth="yes"/>
      <point x="382" y="527"/>
      <point x="389" y="522"/>
      <point x="393" y="510" type="curve" smooth="yes"/>
      <point x="440" y="358" type="line"/>
      <point x="283" y="358" type="line"/>
    </contour>
    <contour>
      <point x="273" y="36" type="curve" smooth="yes"/>
      <point x="273" y="176" type="line"/>
      <point x="450" y="176" type="line"/>
      <point x="450" y="36" type="line" smooth="yes"/>
      <point x="450" y="11"/>
      <point x="462" y="0"/>
      <point x="489" y="0" type="curve" smooth="yes"/>
      <point x="640" y="0" type="line" smooth="yes"/>
      <point x="665" y="0"/>
      <point x="676" y="11"/>
      <point x="676" y="36" type="curve" smooth="yes"/>
      <point x="676" y="300" type="line" smooth="yes"/>
      <point x="676" y="340"/>
      <point x="664" y="390"/>
      <point x="637" y="460" type="curve" smooth="yes"/>
      <point x="550" y="687" type="line" smooth="yes"/>
      <point x="542" y="710"/>
      <point x="526" y="720"/>
      <point x="500" y="720" type="curve" smooth="yes"/>
      <point x="231" y="720" type="line" smooth="yes"/>
      <point x="204" y="720"/>
      <point x="188" y="710"/>
      <point x="180" y="687" type="curve" smooth="yes"/>
      <point x="93" y="460" type="line" smooth="yes"/>
      <point x="66" y="390"/>
      <point x="54" y="340"/>
      <point x="54" y="300" type="curve" smooth="yes"/>
      <point x="54" y="36" type="line" smooth="yes"/>
      <point x="54" y="11"/>
      <point x="65" y="0"/>
      <point x="90" y="0" type="curve" smooth="yes"/>
      <point x="237" y="0" type="line" smooth="yes"/>
      <point x="262" y="0"/>
      <point x="273" y="11"/>
    </contour>
  </outline>
</glyph>
<glyph name="Oslash" format="1">
  <advance width="737"/>
  <unicode hex="00D8"/>
  <outline>
    <contour>
      <point x="679" y="189" type="curve"/>
      <point x="679" y="530" type="line" smooth="yes"/>
      <point x="679" y="652"/>
      <point x="619" y="735"/>
      <point x="369" y="735" type="curve" smooth="yes"/>
      <point x="119" y="735"/>
      <point x="58" y="652"/>
      <point x="58" y="530" type="curve" smooth="yes"/>
      <point x="58" y="189" type="line" smooth="yes"/>
      <point x="58" y="67"/>
      <point x="119" y="-15"/>
      <point x="369" y="-15" type="curve" smooth="yes"/>
      <point x="619" y="-15"/>
      <point x="679" y="67"/>
    </contour>
    <contour>
      <point x="265" y="225" type="curve"/>
      <point x="265" y="494" type="line" smooth="yes"/>
      <point x="265" y="526"/>
      <point x="279" y="550"/>
      <point x="369" y="550" type="curve" smooth="yes"/>
      <point x="460" y="550"/>
      <point x="473" y="526"/>
      <point x="473" y="494" type="curve" smooth="yes"/>
      <point x="473" y="225" type="line" smooth="yes"/>
      <point x="473" y="192"/>
      <point x="460" y="168"/>
      <point x="369" y="168" type="curve" smooth="yes"/>
      <point x="279" y="168"/>
      <point x="265" y="192"/>
    </contour>
    <contour>
      <point x="249" y="-70" type="line" smooth="yes"/>
      <point x="274" y="-70"/>
      <point x="283" y="-56"/>
      <point x="295" y="-34" type="curve"/>
      <point x="341" y="74" type="line"/>
      <point x="334" y="119" type="line"/>
      <point x="523" y="564" type="line"/>
      <point x="552" y="573" type="line"/>
      <point x="629" y="754" type="line"/>
      <point x="641" y="776"/>
      <point x="628" y="790"/>
      <point x="603" y="790" type="curve" smooth="yes"/>
      <point x="488" y="790" type="line" smooth="yes"/>
      <point x="463" y="790"/>
      <point x="454" y="776"/>
      <point x="442" y="754" type="curve"/>
      <point x="397" y="649" type="line"/>
      <point x="402" y="599" type="line"/>
      <point x="212" y="152" type="line"/>
      <point x="183" y="144" type="line"/>
      <point x="108" y="-34" type="line"/>
      <point x="96" y="-56"/>
      <point x="109" y="-70"/>
      <point x="134" y="-70" type="curve" smooth="yes"/>
    </contour>
  </outline>
</glyph>
<glyph name="Thorn" format="2">
  <advance height="1000" width="692"/>
  <unicode hex="00DE"/>
  <outline>
    <contour>
      <point x="260" y="0" type="line" smooth="yes"/>
      <point x="285" y="0"/>
      <point x="296" y="11"/>
      <point x="296" y="36" type="curve" smooth="yes"/>
      <point x="296" y="102" type="line"/>
      <point x="411" y="102" type="line" smooth="yes"/>
      <point x="593" y="102"/>
      <point x="647" y="181"/>
      <point x="647" y="297" type="curve" smooth="yes"/>
      <point x="647" y="425" type="line" smooth="yes"/>
      <point x="647" y="541"/>
      <point x="593" y="620"/>
      <point x="411" y="620" type="curve" smooth="yes"/>
      <point x="296" y="620" type="line"/>
      <point x="296" y="684" type="line" smooth="yes"/>
      <point x="296" y="709"/>
      <point x="285" y="720"/>
      <point x="260" y="720" type="curve" smooth="yes"/>
      <point x="105" y="720" type="line" smooth="yes"/>
      <point x="80" y="720"/>
      <point x="69" y="709"/>
      <point x="69" y="684" type="curve" smooth="yes"/>
      <point x="69" y="36" type="line" smooth="yes"/>
      <point x="69" y="11"/>
      <point x="80" y="0"/>
      <point x="105" y="0" type="curve" smooth="yes"/>
    </contour>
    <contour>
      <point x="294" y="433" type="line"/>
      <point x="384" y="433" type="line" smooth="yes"/>
      <point x="423" y="433"/>
      <point x="431" y="410"/>
      <point x="431" y="384" type="curve" smooth="yes"/>
      <point x="431" y="331" type="line" smooth="yes"/>
      <point x="431" y="305"/>
      <point x="423" y="282"/>
      <point x="384" y="282" type="curve" smooth="yes"/>
      <point x="294" y="282" type="line"/>
    </contour>
  </outline>
</glyph>
<glyph name="Hbar" format="2">
  <advance width="779"/>
  <unicode hex="0126"/>
  <outline>
    <contour>
      <point x="267" y="0" type="line" smooth="yes"/>
      <point x="292" y="0"/>
      <point x="303" y="11"/>
      <point x="303" y="36" type="curve" smooth="yes"/>
      <point x="303" y="148" type="line"/>
      <point x="476" y="148" type="line"/>
      <point x="476" y="36" type="line" smooth="yes"/>
      <point x="476" y="11"/>
      <point x="487" y="0"/>
      <point x="512" y="0" type="curve" smooth="yes"/>
      <point x="664" y="0" type="line" smooth="yes"/>
      <point x="689" y="0"/>
      <point x="700" y="11"/>
      <point x="700" y="36" type="curve" smooth="yes"/>
      <point x="700" y="684" type="line" smooth="yes"/>
      <point x="700" y="709"/>
      <point x="689" y="720"/>
      <point x="664" y="720" type="curve" smooth="yes"/>
      <point x="512" y="720" type="line" smooth="yes"/>
      <point x="487" y="720"/>
      <point x="476" y="709"/>
      <point x="476" y="684" type="curve" smooth="yes"/>
      <point x="476" y="347" type="line"/>
      <point x="303" y="347" type="line"/>
      <point x="303" y="684" type="line" smooth="yes"/>
      <point x="303" y="709"/>
      <point x="292" y="720"/>
      <point x="267" y="720" type="curve" smooth="yes"/>
      <point x="115" y="720" type="line" smooth="yes"/>
      <point x="90" y="720"/>
      <point x="79" y="709"/>
      <point x="79" y="684" type="curve" smooth="yes"/>
      <point x="79" y="36" type="line" smooth="yes"/>
      <point x="79" y="11"/>
      <point x="90" y="0"/>
      <point x="115" y="0" type="curve" smooth="yes"/>
    </contour>
    <contour>
      <point x="66" y="425" type="curve"/>
      <point x="713" y="425" type="line" smooth="yes"/>
      <point x="738" y="425"/>
      <point x="749" y="435"/>
      <point x="749" y="461" type="curve" smooth="yes"/>
      <point x="749" y="558" type="line" smooth="yes"/>
      <point x="749" y="584"/>
      <point x="738" y="594"/>
      <point x="713" y="594" type="curve" smooth="yes"/>
      <point x="66" y="594" type="line" smooth="yes"/>
      <point x="41" y="594"/>
      <point x="30" y="583"/>
      <point x="30" y="558" type="curve" smooth="yes"/>
      <point x="30" y="461" type="line" smooth="yes"/>
      <point x="30" y="435"/>
      <point x="41" y="425"/>
    </contour>
  </outline>
</glyph>
<glyph name="Ldot" format="2">
  <advance width="695"/>
  <unicode hex="013F"/>
  <outline>
    <contour>
      <point x="604" y="372" type="line" smooth="yes"/>
      <point x="629" y="372"/>
      <point x="640" y="383"/>
      <point x="640" y="408" type="curve" smooth="yes"/>
      <point x="640" y="535" type="line" smooth="yes"/>
      <point x="640" y="560"/>
      <point x="629" y="571"/>
      <point x="604" y="571" type="curve"/>
      <point x="459" y="571" type="line" smooth="yes"/>
      <point x="434" y="571"/>
      <point x="423" y="560"/>
      <point x="423" y="535" type="curve" smooth="yes"/>
      <point x="423" y="408" type="line" smooth="yes"/>
      <point x="423" y="383"/>
      <point x="434" y="372"/>
      <point x="459" y="372" type="curve" smooth="yes"/>
    </contour>
    <contour>
      <point x="614" y="0" type="line" smooth="yes"/>
      <point x="639" y="0"/>
      <point x="650" y="11"/>
      <point x="650" y="36" type="curve" smooth="yes"/>
      <point x="650" y="271" type="line" smooth="yes"/>
      <point x="650" y="296"/>
      <point x="639" y="307"/>
      <point x="614" y="307" type="curve" smooth="yes"/>
      <point x="469" y="307" type="line" smooth="yes"/>
      <point x="444" y="307"/>
      <point x="433" y="296"/>
      <point x="433" y="271" type="curve" smooth="yes"/>
      <point x="433" y="189" type="line"/>
      <point x="296" y="189" type="line"/>
      <point x="296" y="684" type="line" smooth="yes"/>
      <point x="296" y="709"/>
      <point x="285" y="720"/>
      <point x="260" y="720" type="curve" smooth="yes"/>
      <point x="105" y="720" type="line" smooth="yes"/>
      <point x="80" y="720"/>
      <point x="69" y="709"/>
      <point x="69" y="684" type="curve"/>
      <point x="69" y="36" type="line"/>
      <point x="69" y="11"/>
      <point x="80" y="0"/>
      <point x="105" y="0" type="curve" smooth="yes"/>
    </contour>
  </outline>
</glyph>
<glyph name="Lslash" format="2">
  <advance width="705"/>
  <unicode hex="0141"/>
  <outline>
    <contour>
      <point x="20" y="428" type="curve" smooth="yes"/>
      <point x="20" y="321" type="line" smooth="yes"/>
      <point x="20" y="295"/>
      <point x="31" y="281"/>
      <point x="56" y="285" type="curve" smooth="yes"/>
      <point x="364" y="335" type="line" smooth="yes"/>
      <point x="389" y="339"/>
      <point x="400" y="345"/>
      <point x="400" y="371" type="curve" smooth="yes"/>
      <point x="400" y="478" type="line" smooth="yes"/>
      <point x="400" y="504"/>
      <point x="389" y="518"/>
      <point x="364" y="514" type="curve" smooth="yes"/>
      <point x="56" y="464" type="line" smooth="yes"/>
      <point x="31" y="460"/>
      <point x="20" y="453"/>
    </contour>
    <component base="L" xOffset="10"/>
  </outline>
</glyph>
<glyph name="Eng" format="1">
  <advance width="746"/>
  <unicode hex="014A"/>
  <outline>
    <contour>
      <point x="64" y="531" type="curve" smooth="yes"/>
      <point x="64" y="36" type="line" smooth="yes"/>
      <point x="64" y="11"/>
      <point x="75" y="0"/>
      <point x="100" y="0" type="curve" smooth="yes"/>
      <point x="252" y="0" type="line" smooth="yes"/>
      <point x="278" y="0"/>
      <point x="288" y="11"/>
      <point x="288" y="36" type="curve" smooth="yes"/>
      <point x="288" y="492" type="line" smooth="yes"/>
      <point x="288" y="519"/>
      <point x="300" y="539"/>
      <point x="371" y="539" type="curve" smooth="yes"/>
      <point x="441" y="539"/>
      <point x="453" y="519"/>
      <point x="453" y="492" type="curve" smooth="yes"/>
      <point x="453" y="149" type="line" smooth="yes"/>
      <point x="453" y="121"/>
      <point x="447" y="101"/>
      <point x="412" y="101" type="curve" smooth="yes"/>
      <point x="391" y="101" type="line" smooth="yes"/>
      <point x="366" y="101"/>
      <point x="355" y="90"/>
      <point x="355" y="65" type="curve" smooth="yes"/>
      <point x="355" y="-54" type="line" smooth="yes"/>
      <point x="355" y="-79"/>
      <point x="366" y="-90"/>
      <point x="391" y="-90" type="curve" smooth="yes"/>
      <point x="436" y="-90" type="line" smooth="yes"/>
      <point x="625" y="-90"/>
      <point x="682" y="-7"/>
      <point x="682" y="114" type="curve"/>
      <point x="682" y="531" type="line" smooth="yes"/>
      <point x="682" y="653"/>
      <point x="621" y="735"/>
      <point x="373" y="735" type="curve" smooth="yes"/>
      <point x="125" y="735"/>
      <point x="64" y="653"/>
    </contour>
  </outline>
</glyph>
<glyph name="Uhorn" format="2">
  <advance height="1000" width="756"/>
  <unicode hex="01AF"/>
  <outline>
    <contour>
      <point x="682" y="189" type="curve" smooth="yes"/>
      <point x="682" y="684" type="line" smooth="yes"/>
      <point x="682" y="709"/>
      <point x="671" y="720"/>
      <point x="646" y="720" type="curve" smooth="yes"/>
      <point x="494" y="720" type="line" smooth="yes"/>
      <point x="468" y="720"/>
      <point x="458" y="709"/>
      <point x="458" y="684" type="curve" smooth="yes"/>
      <point x="458" y="228" type="line" smooth="yes"/>
      <point x="458" y="201"/>
      <point x="446" y="181"/>
      <point x="375" y="181" type="curve" smooth="yes"/>
      <point x="305" y="181"/>
      <point x="293" y="201"/>
      <point x="293" y="228" type="curve" smooth="yes"/>
      <point x="293" y="684" type="line" smooth="yes"/>
      <point x="293" y="709"/>
      <point x="282" y="720"/>
      <point x="257" y="720" type="curve" smooth="yes"/>
      <point x="100" y="720" type="line" smooth="yes"/>
      <point x="75" y="720"/>
      <point x="64" y="709"/>
      <point x="64" y="684" type="curve" smooth="yes"/>
      <point x="64" y="189" type="line" smooth="yes"/>
      <point x="64" y="67"/>
      <point x="125" y="-15"/>
      <point x="373" y="-15" type="curve" smooth="yes"/>
      <point x="621" y="-15"/>
      <point x="682" y="67"/>
    </contour>
    <contour>
      <point x="746" y="721" type="curve"/>
      <point x="746" y="765" type="line" smooth="yes"/>
      <point x="746" y="790"/>
      <point x="735" y="801"/>
      <point x="710" y="801" type="curve"/>
      <point x="599" y="801" type="line" smooth="yes"/>
      <point x="576" y="801"/>
      <point x="569" y="794"/>
      <point x="569" y="770" type="curve" smooth="yes"/>
      <point x="569" y="749" type="line" smooth="yes"/>
      <point x="569" y="730"/>
      <point x="562" y="720"/>
      <point x="529" y="720" type="curve"/>
      <point x="529" y="578" type="line"/>
      <point x="703" y="578"/>
      <point x="746" y="636"/>
    </contour>
  </outline>
</glyph>
<glyph name="ascript" format="2">
  <advance height="1000" width="746"/>
  <unicode hex="0251"/>
  <outline>
    <contour>
      <point x="284" y="494" type="line" smooth="yes"/>
      <point x="284" y="520"/>
      <point x="296" y="540"/>
      <point x="366" y="540" type="curve" smooth="yes"/>
      <point x="439" y="540"/>
      <point x="450" y="522"/>
      <point x="450" y="496" type="curve"/>
      <point x="450" y="191" type="line"/>
      <point x="331" y="191" type="line" smooth="yes"/>
      <point x="299" y="191"/>
      <point x="284" y="204"/>
      <point x="284" y="238" type="curve" smooth="yes"/>
    </contour>
    <contour>
      <point x="675" y="530" type="line"/>
      <point x="675.0" y="652.0"/>
      <point x="615.193548387" y="735.0"/>
      <point x="366" y="735" type="curve" smooth="yes"/>
      <point x="119.215434084" y="735.0"/>
      <point x="58" y="652"/>
      <point x="58" y="530" type="curve" smooth="yes"/>
      <point x="58" y="204" type="line" smooth="yes"/>
      <point x="58" y="65"/>
      <point x="136" y="0"/>
      <point x="304" y="0" type="curve" smooth="yes"/>
      <point x="641" y="0" type="line" smooth="yes"/>
      <point x="666" y="0"/>
      <point x="677" y="11"/>
      <point x="677" y="36" type="curve" smooth="yes"/>
    </contour>
  </outline>
</glyph>
<glyph name="gscript" format="2">
  <advance height="1000" width="715"/>
  <unicode hex="0261"/>
  <outline>
    <contour>
      <point x="440" y="496" type="curve"/>
      <point x="440" y="399" type="line"/>
      <point x="323" y="399" type="line" smooth="yes"/>
      <point x="291" y="399"/>
      <point x="276" y="414"/>
      <point x="276" y="448" type="curve" smooth="yes"/>
      <point x="276" y="494" type="line"/>
      <point x="276" y="520"/>
      <point x="288" y="540"/>
      <point x="358" y="540" type="curve" smooth="yes"/>
      <point x="431" y="540"/>
      <point x="440" y="522"/>
    </contour>
    <contour>
      <point x="50" y="530" type="curve"/>
      <point x="50" y="414" type="line" smooth="yes"/>
      <point x="50" y="275"/>
      <point x="126" y="210"/>
      <point x="294" y="210" type="curve" smooth="yes"/>
      <point x="439" y="210" type="line"/>
      <point x="439" y="176" type="line" smooth="yes"/>
      <point x="439" y="148"/>
      <point x="430" y="128"/>
      <point x="378" y="128" type="curve" smooth="yes"/>
      <point x="167" y="128" type="line" smooth="yes"/>
      <point x="142" y="128"/>
      <point x="131" y="117"/>
      <point x="131" y="92" type="curve" smooth="yes"/>
      <point x="131" y="-25" type="line" smooth="yes"/>
      <point x="131" y="-50"/>
      <point x="142" y="-61"/>
      <point x="167" y="-61" type="curve" smooth="yes"/>
      <point x="421" y="-61" type="line" smooth="yes"/>
      <point x="610" y="-61"/>
      <point x="667" y="22"/>
      <point x="667" y="143" type="curve" smooth="yes"/>
      <point x="667" y="530" type="line"/>
      <point x="667" y="652"/>
      <point x="607" y="735"/>
      <point x="358" y="735" type="curve" smooth="yes"/>
      <point x="111" y="735"/>
      <point x="50" y="652"/>
    </contour>
  </outline>
</glyph>
<glyph name="commaturnedmod" format="2">
  <advance height="1000" width="500"/>
  <unicode hex="02BB"/>
  <outline>
    <contour>
      <point x="259" y="720" type="line" smooth="yes"/>
      <point x="183" y="720"/>
      <point x="134" y="678"/>
      <point x="134" y="592" type="curve" smooth="yes"/>
      <point x="134" y="440" type="line" smooth="yes"/>
      <point x="134" y="410"/>
      <point x="143" y="401"/>
      <point x="171" y="401" type="curve" smooth="yes"/>
      <point x="329" y="401" type="line" smooth="yes"/>
      <point x="357" y="401"/>
      <point x="366" y="410"/>
      <point x="366" y="440" type="curve" smooth="yes"/>
      <point x="366" y="549" type="line" smooth="yes"/>
      <point x="366" y="579"/>
      <point x="357" y="588"/>
      <point x="329" y="588" type="curve"/>
      <point x="243" y="588" type="line"/>
      <point x="243" y="601" type="line" smooth="yes"/>
      <point x="243" y="616"/>
      <point x="251" y="625"/>
      <point x="266" y="625" type="curve" smooth="yes"/>
      <point x="325" y="625" type="line" smooth="yes"/>
      <point x="346" y="625"/>
      <point x="355" y="634"/>
      <point x="355" y="655" type="curve" smooth="yes"/>
      <point x="355" y="689" type="line" smooth="yes"/>
      <point x="355" y="711"/>
      <point x="346" y="720"/>
      <point x="325" y="720" type="curve" smooth="yes"/>
    </contour>
  </outline>
</glyph>
<glyph name="ringhalfright" format="1">
  <advance width="312"/>
  <unicode hex="02BE"/>
  <outline>
    <contour>
      <point x="55" y="383" type="curve" smooth="yes"/>
      <point x="164" y="383" type="line" smooth="yes"/>
      <point x="242" y="383"/>
      <point x="279" y="413"/>
      <point x="279" y="478" type="curve" smooth="yes"/>
      <point x="279" y="624" type="line" smooth="yes"/>
      <point x="279" y="689"/>
      <point x="242" y="720"/>
      <point x="164" y="720" type="curve" smooth="yes"/>
      <point x="55" y="720" type="line" smooth="yes"/>
      <point x="39.4705882353" y="720"/>
      <point x="33" y="712.235294118"/>
      <point x="33" y="698" type="curve" smooth="yes"/>
      <point x="33" y="621" type="line" smooth="yes"/>
      <point x="33" y="607.0"/>
      <point x="39" y="599"/>
      <point x="55" y="599" type="curve" smooth="yes"/>
      <point x="104" y="599" type="line" smooth="yes"/>
      <point x="123" y="599"/>
      <point x="132" y="592"/>
      <point x="132" y="576" type="curve" smooth="yes"/>
      <point x="132" y="525" type="line" smooth="yes"/>
      <point x="132" y="509"/>
      <point x="123" y="502"/>
      <point x="104" y="502" type="curve" smooth="yes"/>
      <point x="55" y="502" type="line" smooth="yes"/>
      <point x="39" y="502"/>
      <point x="33" y="495.529411765"/>
      <point x="33" y="480" type="curve" smooth="yes"/>
      <point x="33" y="405" type="line" smooth="yes"/>
      <point x="33" y="389.0"/>
      <point x="39.4705882353" y="383"/>
    </contour>
  </outline>
</glyph>
<glyph name="verticallinemod" format="2">
  <advance width="356"/>
  <unicode hex="02C8"/>
  <outline>
    <contour>
      <point x="253" y="345" type="line" smooth="yes"/>
      <point x="288" y="345"/>
      <point x="295" y="351"/>
      <point x="295" y="386" type="curve" smooth="yes"/>
      <point x="295" y="679" type="line" smooth="yes"/>
      <point x="295" y="714"/>
      <point x="290" y="720"/>
      <point x="256" y="720" type="curve" smooth="yes"/>
      <point x="101" y="720" type="line" smooth="yes"/>
      <point x="66" y="720"/>
      <point x="61" y="714"/>
      <point x="61" y="679" type="curve" smooth="yes"/>
      <point x="61" y="386" type="line" smooth="yes"/>
      <point x="61" y="351"/>
      <point x="68" y="345"/>
      <point x="103" y="345" type="curve" smooth="yes"/>
    </contour>
  </outline>
</glyph>
<glyph name="dotaccent" format="2">
  <advance width="500"/>
  <unicode hex="02D9"/>
  <anchor x="250" y="747" name="_top"/>
  <anchor x="250" y="0" name="_bottom"/>
  <outline>
    <contour>
      <point x="330" y="760" type="line" smooth="yes"/>
      <point x="355" y="760"/>
      <point x="366" y="771"/>
      <point x="366" y="796" type="curve" smooth="yes"/>
      <point x="366" y="923" type="line" smooth="yes"/>
      <point x="366" y="948"/>
      <point x="355" y="959"/>
      <point x="330" y="959" type="curve"/>
      <point x="172" y="959" type="line" smooth="yes"/>
      <point x="147" y="959"/>
      <point x="136" y="948"/>
      <point x="136" y="923" type="curve" smooth="yes"/>
      <point x="136" y="796" type="line" smooth="yes"/>
      <point x="136" y="771"/>
      <point x="147" y="760"/>
      <point x="172" y="760" type="curve" smooth="yes"/>
    </contour>
  </outline>
</glyph>
<glyph name="hungarumlaut" format="1">
  <advance width="500"/>
  <unicode hex="02DD"/>
  <outline>
    <contour>
      <point x="-5" y="794" type="line" smooth="yes"/>
      <point x="-11" y="772"/>
      <point x="5" y="760"/>
      <point x="28" y="760" type="curve" smooth="yes"/>
      <point x="134" y="760" type="line" smooth="yes"/>
      <point x="159" y="760"/>
      <point x="164" y="772"/>
      <point x="170" y="796" type="curve" smooth="yes"/>
      <point x="223" y="1003" type="line" smooth="yes"/>
      <point x="229" y="1025"/>
      <point x="213" y="1037"/>
      <point x="190" y="1037" type="curve" smooth="yes"/>
      <point x="84" y="1037" type="line" smooth="yes"/>
      <point x="59" y="1037"/>
      <point x="54" y="1025"/>
      <point x="48" y="1001" type="curve" smooth="yes"/>
    </contour>
    <contour>
      <point x="255" y="794" type="line" smooth="yes"/>
      <point x="249" y="772"/>
      <point x="265" y="760"/>
      <point x="288" y="760" type="curve" smooth="yes"/>
      <point x="394" y="760" type="line" smooth="yes"/>
      <point x="419" y="760"/>
      <point x="424" y="772"/>
      <point x="430" y="796" type="curve" smooth="yes"/>
      <point x="483" y="1003" type="line" smooth="yes"/>
      <point x="489" y="1025"/>
      <point x="473" y="1037"/>
      <point x="450" y="1037" type="curve" smooth="yes"/>
      <point x="344" y="1037" type="line" smooth="yes"/>
      <point x="319" y="1037"/>
      <point x="314" y="1025"/>
      <point x="308" y="1001" type="curve" smooth="yes"/>
    </contour>
  </outline>
</glyph>
<glyph name="gravecmb" format="2">
  <unicode hex="0300"/>
  <outline>
    <contour>
      <point x="175" y="753" type="line" smooth="yes"/>
      <point x="198" y="750"/>
      <point x="209" y="763"/>
      <point x="209" y="786" type="curve" smooth="yes"/>
      <point x="209" y="882" type="line" smooth="yes"/>
      <point x="209" y="907"/>
      <point x="198" y="915"/>
      <point x="173" y="918" type="curve" smooth="yes"/>
      <point x="-176" y="961" type="line" smooth="yes"/>
      <point x="-199" y="964"/>
      <point x="-210" y="951"/>
      <point x="-210" y="928" type="curve" smooth="yes"/>
      <point x="-210" y="832" type="line" smooth="yes"/>
      <point x="-210" y="807"/>
      <point x="-199" y="799"/>
      <point x="-174" y="796" type="curve" smooth="yes"/>
    </contour>
  </outline>
</glyph>
<glyph name="acutecmb" format="2">
  <unicode hex="0301"/>
  <outline>
    <contour>
      <point x="173" y="796" type="line" smooth="yes"/>
      <point x="198" y="799"/>
      <point x="209" y="807"/>
      <point x="209" y="832" type="curve" smooth="yes"/>
      <point x="209" y="928" type="line" smooth="yes"/>
      <point x="209" y="951"/>
      <point x="198" y="964"/>
      <point x="175" y="961" type="curve"/>
      <point x="-174" y="918" type="line" smooth="yes"/>
      <point x="-199" y="915"/>
      <point x="-210" y="907"/>
      <point x="-210" y="882" type="curve" smooth="yes"/>
      <point x="-210" y="786" type="line" smooth="yes"/>
      <point x="-210" y="763"/>
      <point x="-199" y="750"/>
      <point x="-176" y="753" type="curve" smooth="yes"/>
    </contour>
  </outline>
</glyph>
<glyph name="circumflexcmb" format="2">
  <unicode hex="0302"/>
  <outline>
    <contour>
      <point x="-32" y="797" type="line"/>
      <point x="-9" y="803"/>
      <point x="7" y="803"/>
      <point x="30" y="797" type="curve"/>
      <point x="167" y="757" type="line" smooth="yes"/>
      <point x="202" y="746"/>
      <point x="209" y="752"/>
      <point x="209" y="788" type="curve" smooth="yes"/>
      <point x="209" y="869" type="line" smooth="yes"/>
      <point x="209" y="905"/>
      <point x="201" y="909"/>
      <point x="167" y="922" type="curve" smooth="yes"/>
      <point x="30" y="972" type="line" smooth="yes"/>
      <point x="20" y="976"/>
      <point x="10" y="977"/>
      <point x="-2" y="977" type="curve" smooth="yes"/>
      <point x="-14" y="976"/>
      <point x="-29" y="973"/>
      <point x="-41" y="968" type="curve" smooth="yes"/>
      <point x="-169" y="922" type="line" smooth="yes"/>
      <point x="-201" y="909"/>
      <point x="-210" y="905"/>
      <point x="-210" y="869" type="curve" smooth="yes"/>
      <point x="-210" y="788" type="line" smooth="yes"/>
      <point x="-210" y="752"/>
      <point x="-203" y="746"/>
      <point x="-169" y="757" type="curve" smooth="yes"/>
    </contour>
  </outline>
</glyph>
<glyph name="tildecmb" format="2">
  <advance height="1000"/>
  <unicode hex="0303"/>
  <outline>
    <contour>
      <point x="0" y="764" type="line"/>
      <point x="16" y="762" type="line" smooth="yes"/>
      <point x="96" y="750"/>
      <point x="110" y="748"/>
      <point x="173" y="767" type="curve"/>
      <point x="196" y="776"/>
      <point x="209" y="783"/>
      <point x="209" y="808" type="curve" smooth="yes"/>
      <point x="209" y="909" type="line" smooth="yes"/>
      <point x="209" y="934"/>
      <point x="197" y="942"/>
      <point x="173" y="935" type="curve" smooth="yes"/>
      <point x="114" y="917"/>
      <point x="110" y="914"/>
      <point x="22" y="927" type="curve" smooth="yes"/>
      <point x="0" y="930" type="line"/>
      <point x="-17" y="932" type="line" smooth="yes"/>
      <point x="-97" y="944"/>
      <point x="-110" y="946"/>
      <point x="-173" y="927" type="curve"/>
      <point x="-196" y="918"/>
      <point x="-209" y="911"/>
      <point x="-209" y="886" type="curve" smooth="yes"/>
      <point x="-209" y="785" type="line" smooth="yes"/>
      <point x="-209" y="760"/>
      <point x="-197" y="752"/>
      <point x="-173" y="759" type="curve" smooth="yes"/>
      <point x="-120" y="775"/>
      <point x="-104" y="779"/>
      <point x="-28" y="768" type="curve" smooth="yes"/>
    </contour>
  </outline>
</glyph>
<glyph name="macroncmb" format="2">
  <advance height="1000"/>
  <unicode hex="0304"/>
  <anchor x="0.0" y="747" name="_top"/>
  <anchor x="0.0" y="0" name="_bottom"/>
  <anchor x="0" y="953" name="top"/>
  <outline>
    <contour>
      <point x="173" y="760" type="line" smooth="yes"/>
      <point x="198" y="760"/>
      <point x="209" y="771"/>
      <point x="209" y="796" type="curve" smooth="yes"/>
      <point x="209" y="889" type="line" smooth="yes"/>
      <point x="209" y="914"/>
      <point x="198" y="925"/>
      <point x="173" y="925" type="curve" smooth="yes"/>
      <point x="-174" y="925" type="line" smooth="yes"/>
      <point x="-199" y="925"/>
      <point x="-210" y="914"/>
      <point x="-210" y="889" type="curve" smooth="yes"/>
      <point x="-210" y="796" type="line" smooth="yes"/>
      <point x="-210" y="771"/>
      <point x="-199" y="760"/>
      <point x="-174" y="760" type="curve" smooth="yes"/>
    </contour>
  </outline>
</glyph>
<glyph name="brevecmb" format="2">
  <advance height="1000"/>
  <unicode hex="0306"/>
  <anchor x="0.0" y="747" name="_top"/>
  <anchor x="0.0" y="0" name="_bottom"/>
  <outline>
    <contour>
      <point x="217" y="897" type="curve"/>
      <point x="217" y="941" type="line" smooth="yes"/>
      <point x="217" y="966"/>
      <point x="206" y="977"/>
      <point x="181" y="977" type="curve"/>
      <point x="90" y="977" type="line" smooth="yes"/>
      <point x="67" y="977"/>
      <point x="60" y="970"/>
      <point x="60" y="946" type="curve" smooth="yes"/>
      <point x="60" y="925" type="line" smooth="yes"/>
      <point x="60" y="906"/>
      <point x="51" y="892"/>
      <point x="1" y="892" type="curve" smooth="yes"/>
      <point x="-48" y="892"/>
      <point x="-56" y="906"/>
      <point x="-56" y="925" type="curve" smooth="yes"/>
      <point x="-56" y="946" type="line" smooth="yes"/>
      <point x="-56" y="970"/>
      <point x="-64" y="977"/>
      <point x="-85" y="977" type="curve" smooth="yes"/>
      <point x="-181" y="977" type="line" smooth="yes"/>
      <point x="-206" y="977"/>
      <point x="-217" y="966"/>
      <point x="-217" y="941" type="curve" smooth="yes"/>
      <point x="-217" y="897" type="line" smooth="yes"/>
      <point x="-217" y="812"/>
      <point x="-174" y="754"/>
      <point x="0" y="754" type="curve" smooth="yes"/>
      <point x="174" y="754"/>
      <point x="217" y="812"/>
    </contour>
  </outline>
</glyph>
<glyph name="dotaccentcmb" format="2">
  <advance height="1000"/>
  <unicode hex="0307"/>
  <outline>
    <contour>
      <point x="79" y="760" type="line" smooth="yes"/>
      <point x="104" y="760"/>
      <point x="115" y="771"/>
      <point x="115" y="796" type="curve" smooth="yes"/>
      <point x="115" y="923" type="line" smooth="yes"/>
      <point x="115" y="948"/>
      <point x="104" y="959"/>
      <point x="79" y="959" type="curve"/>
      <point x="-79" y="959" type="line" smooth="yes"/>
      <point x="-104" y="959"/>
      <point x="-115" y="948"/>
      <point x="-115" y="923" type="curve" smooth="yes"/>
      <point x="-115" y="796" type="line" smooth="yes"/>
      <point x="-115" y="771"/>
      <point x="-104" y="760"/>
      <point x="-79" y="760" type="curve" smooth="yes"/>
    </contour>
  </outline>
</glyph>
<glyph name="dieresiscmb" format="2">
  <advance height="1000"/>
  <unicode hex="0308"/>
  <outline>
    <contour>
      <point x="-59" y="760" type="line" smooth="yes"/>
      <point x="-36" y="760"/>
      <point x="-26" y="770"/>
      <point x="-26" y="793" type="curve" smooth="yes"/>
      <point x="-26" y="914" type="line" smooth="yes"/>
      <point x="-26" y="937"/>
      <point x="-36" y="947"/>
      <point x="-59" y="947" type="curve" smooth="yes"/>
      <point x="-197" y="947" type="line" smooth="yes"/>
      <point x="-220" y="947"/>
      <point x="-231" y="937"/>
      <point x="-231" y="914" type="curve" smooth="yes"/>
      <point x="-231" y="793" type="line" smooth="yes"/>
      <point x="-231" y="770"/>
      <point x="-220" y="760"/>
      <point x="-197" y="760" type="curve" smooth="yes"/>
    </contour>
    <contour>
      <point x="199" y="760" type="line" smooth="yes"/>
      <point x="222" y="760"/>
      <point x="232" y="770"/>
      <point x="232" y="793" type="curve" smooth="yes"/>
      <point x="232" y="914" type="line" smooth="yes"/>
      <point x="232" y="937"/>
      <point x="222" y="947"/>
      <point x="199" y="947" type="curve" smooth="yes"/>
      <point x="61" y="947" type="line" smooth="yes"/>
      <point x="38" y="947"/>
      <point x="28" y="937"/>
      <point x="28" y="914" type="curve" smooth="yes"/>
      <point x="28" y="793" type="line" smooth="yes"/>
      <point x="28" y="770"/>
      <point x="38" y="760"/>
      <point x="61" y="760" type="curve" smooth="yes"/>
    </contour>
  </outline>
</glyph>
<glyph name="ringcmb" format="2">
  <advance height="1000"/>
  <unicode hex="030A"/>
  <outline>
    <contour>
      <point x="217" y="995" type="line" smooth="yes"/>
      <point x="217" y="1080"/>
      <point x="174" y="1138"/>
      <point x="0" y="1138" type="curve" smooth="yes"/>
      <point x="-174" y="1138"/>
      <point x="-217" y="1080"/>
      <point x="-217" y="995" type="curve" smooth="yes"/>
      <point x="-217" y="897" type="line" smooth="yes"/>
      <point x="-217" y="812"/>
      <point x="-174" y="754"/>
      <point x="0" y="754" type="curve" smooth="yes"/>
      <point x="174" y="754"/>
      <point x="217" y="812"/>
      <point x="217" y="897" type="curve" smooth="yes"/>
    </contour>
    <contour>
      <point x="60" y="930" type="line" smooth="yes"/>
      <point x="60" y="901"/>
      <point x="51" y="887"/>
      <point x="1" y="887" type="curve" smooth="yes"/>
      <point x="-48" y="887"/>
      <point x="-56" y="901"/>
      <point x="-56" y="930" type="curve" smooth="yes"/>
      <point x="-56" y="965" type="line" smooth="yes"/>
      <point x="-56" y="991"/>
      <point x="-48" y="1005"/>
      <point x="1" y="1005" type="curve" smooth="yes"/>
      <point x="51" y="1005"/>
      <point x="60" y="991"/>
      <point x="60" y="965" type="curve" smooth="yes"/>
    </contour>
  </outline>
</glyph>
<glyph name="hungarumlautcmb" format="2">
  <unicode hex="030B"/>
  <outline>
    <contour>
      <point x="-215" y="794" type="line" smooth="yes"/>
      <point x="-221" y="772"/>
      <point x="-205" y="760"/>
      <point x="-182" y="760" type="curve" smooth="yes"/>
      <point x="-76" y="760" type="line" smooth="yes"/>
      <point x="-51" y="760"/>
      <point x="-46" y="772"/>
      <point x="-40" y="796" type="curve" smooth="yes"/>
      <point x="13" y="1003" type="line" smooth="yes"/>
      <point x="19" y="1025"/>
      <point x="3" y="1037"/>
      <point x="-20" y="1037" type="curve" smooth="yes"/>
      <point x="-126" y="1037" type="line" smooth="yes"/>
      <point x="-151" y="1037"/>
      <point x="-156" y="1025"/>
      <point x="-162" y="1001" type="curve" smooth="yes"/>
    </contour>
    <contour>
      <point x="45" y="794" type="line" smooth="yes"/>
      <point x="39" y="772"/>
      <point x="55" y="760"/>
      <point x="78" y="760" type="curve" smooth="yes"/>
      <point x="184" y="760" type="line" smooth="yes"/>
      <point x="209" y="760"/>
      <point x="214" y="772"/>
      <point x="220" y="796" type="curve" smooth="yes"/>
      <point x="273" y="1003" type="line" smooth="yes"/>
      <point x="279" y="1025"/>
      <point x="263" y="1037"/>
      <point x="240" y="1037" type="curve" smooth="yes"/>
      <point x="134" y="1037" type="line" smooth="yes"/>
      <point x="109" y="1037"/>
      <point x="104" y="1025"/>
      <point x="98" y="1001" type="curve" smooth="yes"/>
    </contour>
  </outline>
</glyph>
<glyph name="caroncmb" format="2">
  <unicode hex="030C"/>
  <outline>
    <contour>
      <point x="31" y="932" type="line"/>
      <point x="8" y="926"/>
      <point x="-8" y="926"/>
      <point x="-31" y="932" type="curve"/>
      <point x="-168" y="972" type="line" smooth="yes"/>
      <point x="-203" y="983"/>
      <point x="-210" y="977"/>
      <point x="-210" y="941" type="curve" smooth="yes"/>
      <point x="-210" y="860" type="line" smooth="yes"/>
      <point x="-210" y="824"/>
      <point x="-202" y="820"/>
      <point x="-168" y="807" type="curve" smooth="yes"/>
      <point x="-31" y="757" type="line" smooth="yes"/>
      <point x="-21" y="753"/>
      <point x="-11" y="752"/>
      <point x="1" y="752" type="curve" smooth="yes"/>
      <point x="13" y="753"/>
      <point x="28" y="756"/>
      <point x="40" y="761" type="curve" smooth="yes"/>
      <point x="168" y="807" type="line" smooth="yes"/>
      <point x="200" y="820"/>
      <point x="209" y="824"/>
      <point x="209" y="860" type="curve" smooth="yes"/>
      <point x="209" y="941" type="line" smooth="yes"/>
      <point x="209" y="977"/>
      <point x="202" y="983"/>
      <point x="168" y="972" type="curve" smooth="yes"/>
    </contour>
  </outline>
</glyph>
<glyph name="horncmb" format="2">
  <advance height="1000"/>
  <unicode hex="031B"/>
  <anchor x="-124" y="652" name="_horn"/>
  <outline>
    <contour>
      <point x="93" y="721" type="curve"/>
      <point x="93" y="765" type="line" smooth="yes"/>
      <point x="93" y="790"/>
      <point x="82" y="801"/>
      <point x="57" y="801" type="curve"/>
      <point x="-54" y="801" type="line" smooth="yes"/>
      <point x="-77" y="801"/>
      <point x="-84" y="794"/>
      <point x="-84" y="770" type="curve" smooth="yes"/>
      <point x="-84" y="749" type="line" smooth="yes"/>
      <point x="-84" y="730"/>
      <point x="-91" y="720"/>
      <point x="-124" y="720" type="curve"/>
      <point x="-124" y="578" type="line"/>
      <point x="50" y="578"/>
      <point x="93" y="636"/>
    </contour>
  </outline>
</glyph>
<glyph name="commaaccent" format="1">
  <advance width="500"/>
  <unicode hex="0326"/>
  <unicode hex="F6C3"/>
  <outline>
    <contour>
      <point x="241" y="-362" type="line" smooth="yes"/>
      <point x="317" y="-362"/>
      <point x="366" y="-320"/>
      <point x="366" y="-234" type="curve" smooth="yes"/>
      <point x="366" y="-82" type="line" smooth="yes"/>
      <point x="366" y="-52"/>
      <point x="357" y="-43"/>
      <point x="329" y="-43" type="curve" smooth="yes"/>
      <point x="171" y="-43" type="line" smooth="yes"/>
      <point x="143" y="-43"/>
      <point x="134" y="-52"/>
      <point x="134" y="-82" type="curve" smooth="yes"/>
      <point x="134" y="-191" type="line" smooth="yes"/>
      <point x="134" y="-221"/>
      <point x="143" y="-230"/>
      <point x="171" y="-230" type="curve"/>
      <point x="257" y="-230" type="line"/>
      <point x="257" y="-243" type="line" smooth="yes"/>
      <point x="257" y="-258"/>
      <point x="249" y="-267"/>
      <point x="234" y="-267" type="curve" smooth="yes"/>
      <point x="175" y="-267" type="line" smooth="yes"/>
      <point x="154" y="-267"/>
      <point x="145" y="-276"/>
      <point x="145" y="-297" type="curve" smooth="yes"/>
      <point x="145" y="-331" type="line" smooth="yes"/>
      <point x="145" y="-353"/>
      <point x="154" y="-362"/>
      <point x="175" y="-362" type="curve" smooth="yes"/>
    </contour>
    <contour>
      <point x="250" y="747" type="move" name="_top"/>
    </contour>
    <contour>
      <point x="250" y="0" type="move" name="_bottom"/>
    </contour>
  </outline>
</glyph>
<glyph name="cedillacmb" format="2">
  <advance height="1000"/>
  <unicode hex="0327"/>
  <anchor x="0.0" y="0" name="_bottom"/>
  <outline>
    <contour>
      <point x="14" y="-126" type="line"/>
      <point x="40" y="-126"/>
      <point x="53" y="-117"/>
      <point x="60" y="-96" type="curve" smooth="yes"/>
      <point x="123" y="81" type="line" smooth="yes"/>
      <point x="130" y="100"/>
      <point x="125" y="113"/>
      <point x="103" y="121" type="curve" smooth="yes"/>
      <point x="-13" y="164" type="line" smooth="yes"/>
      <point x="-37" y="173"/>
      <point x="-49" y="166"/>
      <point x="-57" y="144" type="curve" smooth="yes"/>
      <point x="-142" y="-86" type="line" smooth="yes"/>
      <point x="-151" y="-110"/>
      <point x="-146" y="-126"/>
      <point x="-112" y="-126" type="curve" smooth="yes"/>
    </contour>
  </outline>
</glyph>
<glyph name="ogonekcmb" format="2">
  <unicode hex="0328"/>
  <outline>
    <contour>
      <point x="87" y="67" type="line"/>
      <point x="-76" y="67" type="line"/>
      <point x="-97" y="-51" type="line" smooth="yes"/>
      <point x="-111" y="-144"/>
      <point x="-82" y="-186"/>
      <point x="4" y="-186" type="curve" smooth="yes"/>
      <point x="115" y="-186" type="line" smooth="yes"/>
      <point x="141" y="-186"/>
      <point x="148" y="-178"/>
      <point x="148" y="-152" type="curve" smooth="yes"/>
      <point x="148" y="-80" type="line" smooth="yes"/>
      <point x="148" y="-54"/>
      <point x="140" y="-46"/>
      <point x="112" y="-46" type="curve" smooth="yes"/>
      <point x="71" y="-46" type="line"/>
    </contour>
  </outline>
</glyph>
<glyph name="pi" format="1">
  <advance width="721"/>
  <unicode hex="03C0"/>
  <outline>
    <contour>
      <point x="624" y="0" type="line" smooth="yes"/>
      <point x="649" y="0"/>
      <point x="660" y="11"/>
      <point x="660" y="36" type="curve" smooth="yes"/>
      <point x="660" y="534" type="line" smooth="yes"/>
      <point x="660" y="559"/>
      <point x="649" y="570"/>
      <point x="624" y="570" type="curve" smooth="yes"/>
      <point x="97" y="570" type="line" smooth="yes"/>
      <point x="72" y="570"/>
      <point x="61" y="559"/>
      <point x="61" y="534" type="curve" smooth="yes"/>
      <point x="61" y="36" type="line" smooth="yes"/>
      <point x="61" y="11"/>
      <point x="72" y="0"/>
      <point x="97" y="0" type="curve" smooth="yes"/>
      <point x="252" y="0" type="line" smooth="yes"/>
      <point x="277" y="0"/>
      <point x="288" y="11"/>
      <point x="288" y="36" type="curve" smooth="yes"/>
      <point x="288" y="381" type="line"/>
      <point x="433" y="381" type="line"/>
      <point x="433" y="36" type="line" smooth="yes"/>
      <point x="433" y="11"/>
      <point x="444" y="0"/>
      <point x="469" y="0" type="curve" smooth="yes"/>
    </contour>
  </outline>
</glyph>
<glyph name="emdash" format="2">
  <advance height="1000" width="1134"/>
  <unicode hex="2014"/>
  <outline>
    <contour>
      <point x="106" y="257" type="curve"/>
      <point x="1028" y="257" type="line" smooth="yes"/>
      <point x="1053" y="257"/>
      <point x="1064" y="267"/>
      <point x="1064" y="293" type="curve" smooth="yes"/>
      <point x="1064" y="427" type="line" smooth="yes"/>
      <point x="1064" y="453"/>
      <point x="1053" y="463"/>
      <point x="1028" y="463" type="curve" smooth="yes"/>
      <point x="106" y="463" type="line" smooth="yes"/>
      <point x="81" y="463"/>
      <point x="70" y="452"/>
      <point x="70" y="427" type="curve" smooth="yes"/>
      <point x="70" y="293" type="line" smooth="yes"/>
      <point x="70" y="267"/>
      <point x="81" y="257"/>
    </contour>
  </outline>
</glyph>
<glyph name="quoteleft" format="1">
  <advance width="384"/>
  <unicode hex="2018"/>
  <outline>
    <contour>
      <point x="203" y="720" type="line" smooth="yes"/>
      <point x="113" y="720"/>
      <point x="55" y="671"/>
      <point x="55" y="569" type="curve" smooth="yes"/>
      <point x="55" y="381" type="line" smooth="yes"/>
      <point x="55" y="356"/>
      <point x="66" y="345"/>
      <point x="91" y="345" type="curve" smooth="yes"/>
      <point x="293" y="345" type="line" smooth="yes"/>
      <point x="318" y="345"/>
      <point x="329" y="356"/>
      <point x="329" y="381" type="curve"/>
      <point x="329" y="529" type="line"/>
      <point x="329" y="554"/>
      <point x="318" y="565"/>
      <point x="293" y="565" type="curve" smooth="yes"/>
      <point x="184" y="565" type="line"/>
      <point x="184" y="580" type="line" smooth="yes"/>
      <point x="184" y="598"/>
      <point x="193" y="608"/>
      <point x="211" y="608" type="curve" smooth="yes"/>
      <point x="280" y="608" type="line" smooth="yes"/>
      <point x="305" y="608"/>
      <point x="316" y="619"/>
      <point x="316" y="644" type="curve"/>
      <point x="316" y="684" type="line"/>
      <point x="316" y="710"/>
      <point x="305" y="720"/>
      <point x="280" y="720" type="curve" smooth="yes"/>
    </contour>
  </outline>
</glyph>
<glyph name="quotesinglbase" format="1">
  <advance width="384"/>
  <unicode hex="201A"/>
  <outline>
    <contour>
      <point x="181.0" y="-100.0" type="line" smooth="yes"/>
      <point x="271.0" y="-100.0"/>
      <point x="329.0" y="-51.0"/>
      <point x="329.0" y="51.0" type="curve" smooth="yes"/>
      <point x="329.0" y="239.0" type="line" smooth="yes"/>
      <point x="329.0" y="264.0"/>
      <point x="318.0" y="275.0"/>
      <point x="293.0" y="275.0" type="curve" smooth="yes"/>
      <point x="91.0" y="275.0" type="line" smooth="yes"/>
      <point x="66.0" y="275.0"/>
      <point x="55.0" y="264.0"/>
      <point x="55.0" y="239.0" type="curve"/>
      <point x="55.0" y="91.0" type="line"/>
      <point x="55.0" y="66.0"/>
      <point x="66.0" y="55.0"/>
      <point x="91.0" y="55.0" type="curve" smooth="yes"/>
      <point x="200.0" y="55.0" type="line"/>
      <point x="200.0" y="40.0" type="line" smooth="yes"/>
      <point x="200.0" y="22.0"/>
      <point x="191.0" y="12.0"/>
      <point x="173.0" y="12.0" type="curve" smooth="yes"/>
      <point x="104.0" y="12.0" type="line" smooth="yes"/>
      <point x="79.0" y="12.0"/>
      <point x="68.0" y="1.0"/>
      <point x="68.0" y="-24.0" type="curve"/>
      <point x="68.0" y="-64.0" type="line"/>
      <point x="68.0" y="-90.0"/>
      <point x="79.0" y="-100.0"/>
      <point x="104.0" y="-100.0" type="curve" smooth="yes"/>
    </contour>
  </outline>
</glyph>
<glyph name="dagger" format="2">
  <advance height="1000" width="718"/>
  <unicode hex="2020"/>
  <outline>
    <contour>
      <point x="431" y="0" type="line" smooth="yes"/>
      <point x="466" y="0"/>
      <point x="471" y="6"/>
      <point x="470" y="41" type="curve" smooth="yes"/>
      <point x="451" y="351" type="line"/>
      <point x="626" y="336" type="line" smooth="yes"/>
      <point x="661" y="332"/>
      <point x="668" y="337"/>
      <point x="668" y="372" type="curve" smooth="yes"/>
      <point x="668" y="514" type="line" smooth="yes"/>
      <point x="668" y="549"/>
      <point x="661" y="554"/>
      <point x="626" y="551" type="curve" smooth="yes"/>
      <point x="461" y="535" type="line"/>
      <point x="470" y="679" type="line" smooth="yes"/>
      <point x="471" y="714"/>
      <point x="466" y="720"/>
      <point x="431" y="720" type="curve" smooth="yes"/>
      <point x="287" y="720" type="line" smooth="yes"/>
      <point x="252" y="720"/>
      <point x="246" y="714"/>
      <point x="248" y="679" type="curve" smooth="yes"/>
      <point x="257" y="535" type="line"/>
      <point x="92" y="551" type="line" smooth="yes"/>
      <point x="57" y="554"/>
      <point x="50" y="549"/>
      <point x="50" y="514" type="curve" smooth="yes"/>
      <point x="50" y="372" type="line" smooth="yes"/>
      <point x="50" y="337"/>
      <point x="57" y="332"/>
      <point x="92" y="336" type="curve" smooth="yes"/>
      <point x="266" y="351" type="line"/>
      <point x="248" y="41" type="line" smooth="yes"/>
      <point x="246" y="6"/>
      <point x="252" y="0"/>
      <point x="287" y="0" type="curve" smooth="yes"/>
    </contour>
  </outline>
</glyph>
<glyph name="bullet" format="2">
  <advance height="1000" width="443"/>
  <unicode hex="2022"/>
  <outline>
    <contour>
      <point x="362.0" y="185.0" type="line" smooth="yes"/>
      <point x="387.0" y="185.0"/>
      <point x="398.0" y="196.0"/>
      <point x="398.0" y="221.0" type="curve" smooth="yes"/>
      <point x="398.0" y="503.0" type="line" smooth="yes"/>
      <point x="398.0" y="529.0"/>
      <point x="387.0" y="539.0"/>
      <point x="362.0" y="539.0" type="curve" smooth="yes"/>
      <point x="81.0" y="539.0" type="line" smooth="yes"/>
      <point x="56.0" y="539.0"/>
      <point x="45.0" y="529.0"/>
      <point x="45.0" y="503.0" type="curve" smooth="yes"/>
      <point x="45.0" y="221.0" type="line" smooth="yes"/>
      <point x="45.0" y="196.0"/>
      <point x="56.0" y="185.0"/>
      <point x="81.0" y="185.0" type="curve" smooth="yes"/>
    </contour>
  </outline>
</glyph>
<glyph name="second" format="1">
  <advance width="665.50617284"/>
  <unicode hex="2033"/>
  <outline>
    <contour>
      <point x="240" y="345" type="line" smooth="yes"/>
      <point x="273" y="345"/>
      <point x="279" y="353"/>
      <point x="282" y="386" type="curve" smooth="yes"/>
      <point x="310" y="679" type="line" smooth="yes"/>
      <point x="313" y="712"/>
      <point x="303" y="720"/>
      <point x="271" y="720" type="curve" smooth="yes"/>
      <point x="106" y="720" type="line" smooth="yes"/>
      <point x="73" y="720"/>
      <point x="67" y="712"/>
      <point x="66" y="679" type="curve" smooth="yes"/>
      <point x="54" y="386" type="line" smooth="yes"/>
      <point x="53" y="353"/>
      <point x="63" y="345"/>
      <point x="96" y="345" type="curve" smooth="yes"/>
    </contour>
    <contour>
      <point x="550" y="345" type="line" smooth="yes"/>
      <point x="583" y="345"/>
      <point x="589" y="353"/>
      <point x="592" y="386" type="curve" smooth="yes"/>
      <point x="620" y="679" type="line" smooth="yes"/>
      <point x="623" y="712"/>
      <point x="613" y="720"/>
      <point x="581" y="720" type="curve" smooth="yes"/>
      <point x="416" y="720" type="line" smooth="yes"/>
      <point x="383" y="720"/>
      <point x="377" y="712"/>
      <point x="376" y="679" type="curve" smooth="yes"/>
      <point x="364" y="386" type="line" smooth="yes"/>
      <point x="363" y="353"/>
      <point x="373" y="345"/>
      <point x="406" y="345" type="curve" smooth="yes"/>
    </contour>
  </outline>
</glyph>
<glyph name="fraction" format="2">
  <advance width="317"/>
  <unicode hex="2044"/>
  <unicode hex="2215"/>
  <outline>
    <contour>
      <point x="5" y="36" type="line" smooth="yes"/>
      <point x="0" y="11"/>
      <point x="16" y="0"/>
      <point x="41" y="0" type="curve" smooth="yes"/>
      <point x="156" y="0" type="line" smooth="yes"/>
      <point x="181" y="0"/>
      <point x="187" y="11"/>
      <point x="192" y="36" type="curve" smooth="yes"/>
      <point x="312" y="684" type="line" smooth="yes"/>
      <point x="317" y="709"/>
      <point x="301" y="720"/>
      <point x="276" y="720" type="curve" smooth="yes"/>
      <point x="161" y="720" type="line" smooth="yes"/>
      <point x="136" y="720"/>
      <point x="130" y="709"/>
      <point x="125" y="684" type="curve" smooth="yes"/>
    </contour>
  </outline>
</glyph>
<glyph name="five.sups" format="1">
  <advance width="493"/>
  <unicode hex="2075"/>
  <outline>
    <contour>
      <point x="309" y="202" type="line" smooth="yes"/>
      <point x="396" y="202"/>
      <point x="450" y="248"/>
      <point x="450" y="322" type="curve" smooth="yes"/>
      <point x="450" y="422" type="line" smooth="yes"/>
      <point x="450" y="498"/>
      <point x="402" y="536"/>
      <point x="324" y="536" type="curve" smooth="yes"/>
      <point x="225" y="536" type="line"/>
      <point x="225" y="583" type="line"/>
      <point x="398" y="583" type="line" smooth="yes"/>
      <point x="416" y="583"/>
      <point x="424" y="591"/>
      <point x="424" y="609" type="curve" smooth="yes"/>
      <point x="424" y="694" type="line" smooth="yes"/>
      <point x="424" y="712"/>
      <point x="416" y="720"/>
      <point x="398" y="720" type="curve" smooth="yes"/>
      <point x="88" y="720" type="line" smooth="yes"/>
      <point x="70" y="720"/>
      <point x="62" y="712"/>
      <point x="62" y="694" type="curve" smooth="yes"/>
      <point x="62" y="425" type="line" smooth="yes"/>
      <point x="62" y="407"/>
      <point x="70" y="399"/>
      <point x="88" y="399" type="curve" smooth="yes"/>
      <point x="266" y="399" type="line" smooth="yes"/>
      <point x="278" y="399"/>
      <point x="286" y="394"/>
      <point x="286" y="383" type="curve" smooth="yes"/>
      <point x="286" y="355" type="line" smooth="yes"/>
      <point x="286" y="343"/>
      <point x="278" y="338"/>
      <point x="266" y="338" type="curve" smooth="yes"/>
      <point x="81" y="338" type="line" smooth="yes"/>
      <point x="63" y="338"/>
      <point x="55" y="330"/>
      <point x="55" y="312" type="curve" smooth="yes"/>
      <point x="55" y="228" type="line" smooth="yes"/>
      <point x="55" y="210"/>
      <point x="63" y="202"/>
      <point x="81" y="202" type="curve" smooth="yes"/>
    </contour>
  </outline>
</glyph>
<glyph name="six.sups" format="2">
  <advance height="1000" width="528"/>
  <unicode hex="2076"/>
  <outline>
    <contour>
      <point x="220" y="391" type="line" smooth="yes"/>
      <point x="220" y="405"/>
      <point x="227" y="417"/>
      <point x="269" y="417" type="curve" smooth="yes"/>
      <point x="312" y="417"/>
      <point x="318" y="405"/>
      <point x="318" y="391" type="curve" smooth="yes"/>
      <point x="318" y="348" type="line" smooth="yes"/>
      <point x="318" y="333"/>
      <point x="312" y="322"/>
      <point x="269" y="322" type="curve" smooth="yes"/>
      <point x="227" y="322"/>
      <point x="220" y="333"/>
      <point x="220" y="348" type="curve" smooth="yes"/>
    </contour>
    <contour>
      <point x="220" y="441" type="line"/>
      <point x="220" y="540" type="line" smooth="yes"/>
      <point x="220" y="576"/>
      <point x="231" y="584"/>
      <point x="266" y="584" type="curve" smooth="yes"/>
      <point x="400" y="584" type="line" smooth="yes"/>
      <point x="418" y="584"/>
      <point x="426" y="592"/>
      <point x="426" y="610" type="curve" smooth="yes"/>
      <point x="426" y="694" type="line" smooth="yes"/>
      <point x="426" y="712"/>
      <point x="419" y="720"/>
      <point x="400" y="720" type="curve" smooth="yes"/>
      <point x="235" y="720" type="line" smooth="yes"/>
      <point x="99" y="720"/>
      <point x="58" y="661"/>
      <point x="58" y="573" type="curve" smooth="yes"/>
      <point x="58" y="337" type="line" smooth="yes"/>
      <point x="58" y="249"/>
      <point x="97" y="191"/>
      <point x="274" y="191" type="curve" smooth="yes"/>
      <point x="439" y="191"/>
      <point x="481" y="249"/>
      <point x="481" y="337" type="curve" smooth="yes"/>
      <point x="481" y="406" type="line" smooth="yes"/>
      <point x="481" y="491"/>
      <point x="442" y="535"/>
      <point x="312" y="535" type="curve" smooth="yes"/>
      <point x="175" y="535"/>
      <point x="145" y="487"/>
      <point x="145" y="417" type="curve"/>
    </contour>
  </outline>
</glyph>
<glyph name="seven.sups" format="2">
  <advance width="477"/>
  <unicode hex="2077"/>
  <outline>
    <contour>
      <point x="399" y="720" type="curve"/>
      <point x="64" y="720" type="line" smooth="yes"/>
      <point x="46" y="720"/>
      <point x="38" y="712"/>
      <point x="38" y="694" type="curve" smooth="yes"/>
      <point x="38" y="607" type="line" smooth="yes"/>
      <point x="38" y="589"/>
      <point x="46" y="581"/>
      <point x="64" y="581" type="curve" smooth="yes"/>
      <point x="262" y="581" type="line"/>
      <point x="262" y="517" type="line"/>
      <point x="203" y="501" type="line" smooth="yes"/>
      <point x="126" y="478"/>
      <point x="91" y="450"/>
      <point x="91" y="358" type="curve" smooth="yes"/>
      <point x="91" y="228" type="line" smooth="yes"/>
      <point x="91" y="210"/>
      <point x="99" y="202"/>
      <point x="117" y="202" type="curve" smooth="yes"/>
      <point x="233" y="202" type="line" smooth="yes"/>
      <point x="251" y="202"/>
      <point x="259" y="210"/>
      <point x="259" y="228" type="curve" smooth="yes"/>
      <point x="259" y="354" type="line"/>
      <point x="313" y="370" type="line" smooth="yes"/>
      <point x="390" y="393"/>
      <point x="425" y="421"/>
      <point x="425" y="512" type="curve" smooth="yes"/>
      <point x="425" y="694" type="line" smooth="yes"/>
      <point x="425" y="712"/>
      <point x="417" y="720"/>
    </contour>
  </outline>
</glyph>
<glyph name="eight.sups" format="1">
  <advance width="538"/>
  <unicode hex="2078"/>
  <outline>
    <contour>
      <point x="491" y="386" type="line" smooth="yes"/>
      <point x="491" y="454"/>
      <point x="458" y="489"/>
      <point x="415" y="498" type="curve"/>
      <point x="446" y="512"/>
      <point x="457" y="539"/>
      <point x="457" y="576" type="curve" smooth="yes"/>
      <point x="457" y="617" type="line" smooth="yes"/>
      <point x="457" y="688"/>
      <point x="415" y="731"/>
      <point x="270" y="731" type="curve" smooth="yes"/>
      <point x="125" y="731"/>
      <point x="81" y="688"/>
      <point x="81" y="617" type="curve" smooth="yes"/>
      <point x="81" y="576" type="line" smooth="yes"/>
      <point x="81" y="539"/>
      <point x="91" y="512"/>
      <point x="123" y="498" type="curve"/>
      <point x="80" y="489"/>
      <point x="47" y="454"/>
      <point x="47" y="386" type="curve" smooth="yes"/>
      <point x="47" y="316" type="line" smooth="yes"/>
      <point x="47" y="242"/>
      <point x="96" y="191"/>
      <point x="269" y="191" type="curve" smooth="yes"/>
      <point x="443" y="191"/>
      <point x="491" y="242"/>
      <point x="491" y="316" type="curve" smooth="yes"/>
    </contour>
    <contour>
      <point x="206" y="344" type="curve" smooth="yes"/>
      <point x="206" y="382" type="line" smooth="yes"/>
      <point x="206" y="396"/>
      <point x="217" y="408"/>
      <point x="269" y="408" type="curve" smooth="yes"/>
      <point x="322" y="408"/>
      <point x="332" y="396"/>
      <point x="332" y="382" type="curve" smooth="yes"/>
      <point x="332" y="344" type="line" smooth="yes"/>
      <point x="332" y="329"/>
      <point x="322" y="317"/>
      <point x="269" y="317" type="curve" smooth="yes"/>
      <point x="217" y="317"/>
      <point x="206" y="329"/>
    </contour>
    <contour>
      <point x="224" y="548" type="curve"/>
      <point x="224" y="579" type="line" smooth="yes"/>
      <point x="224" y="594"/>
      <point x="229" y="605"/>
      <point x="269" y="605" type="curve" smooth="yes"/>
      <point x="310" y="605"/>
      <point x="314" y="594"/>
      <point x="314" y="579" type="curve" smooth="yes"/>
      <point x="314" y="548" type="line" smooth="yes"/>
      <point x="314" y="532"/>
      <point x="310" y="521"/>
      <point x="269" y="521" type="curve" smooth="yes"/>
      <point x="229" y="521"/>
      <point x="224" y="532"/>
    </contour>
  </outline>
</glyph>
<glyph name="nine.sups" format="2">
  <advance width="528"/>
  <unicode hex="2079"/>
  <outline>
    <contour>
      <point x="307" y="532" type="line" smooth="yes"/>
      <point x="307" y="517"/>
      <point x="301" y="506"/>
      <point x="259" y="506" type="curve" smooth="yes"/>
      <point x="216" y="506"/>
      <point x="210" y="517"/>
      <point x="210" y="532" type="curve" smooth="yes"/>
      <point x="210" y="574" type="line" smooth="yes"/>
      <point x="210" y="589"/>
      <point x="216" y="601"/>
      <point x="259" y="601" type="curve" smooth="yes"/>
      <point x="301" y="601"/>
      <point x="307" y="589"/>
      <point x="307" y="574" type="curve" smooth="yes"/>
    </contour>
    <contour>
      <point x="307" y="481" type="line"/>
      <point x="307" y="382" type="line" smooth="yes"/>
      <point x="307" y="347"/>
      <point x="297" y="339"/>
      <point x="262" y="339" type="curve" smooth="yes"/>
      <point x="127" y="339" type="line" smooth="yes"/>
      <point x="109" y="339"/>
      <point x="102" y="331"/>
      <point x="102" y="313" type="curve" smooth="yes"/>
      <point x="102" y="228" type="line" smooth="yes"/>
      <point x="102" y="210"/>
      <point x="109" y="202"/>
      <point x="127" y="202" type="curve" smooth="yes"/>
      <point x="293" y="202" type="line" smooth="yes"/>
      <point x="429" y="202"/>
      <point x="470" y="262"/>
      <point x="470" y="350" type="curve" smooth="yes"/>
      <point x="470" y="586" type="line" smooth="yes"/>
      <point x="470" y="674"/>
      <point x="431" y="731"/>
      <point x="254" y="731" type="curve" smooth="yes"/>
      <point x="89" y="731"/>
      <point x="47" y="674"/>
      <point x="47" y="586" type="curve" smooth="yes"/>
      <point x="47" y="517" type="line" smooth="yes"/>
      <point x="47" y="431"/>
      <point x="86" y="387"/>
      <point x="216" y="387" type="curve" smooth="yes"/>
      <point x="353" y="387"/>
      <point x="383" y="435"/>
      <point x="383" y="506" type="curve"/>
    </contour>
  </outline>
</glyph>
<glyph name="lira" format="2">
  <advance height="1000" width="695"/>
  <unicode hex="20A4"/>
  <outline>
    <contour>
      <point x="614" y="0" type="line" smooth="yes"/>
      <point x="639" y="0"/>
      <point x="650" y="11"/>
      <point x="650" y="36" type="curve" smooth="yes"/>
      <point x="650" y="291" type="line" smooth="yes"/>
      <point x="650" y="316"/>
      <point x="639" y="327"/>
      <point x="614" y="327" type="curve" smooth="yes"/>
      <point x="469" y="327" type="line" smooth="yes"/>
      <point x="444" y="327"/>
      <point x="433" y="316"/>
      <point x="433" y="291" type="curve" smooth="yes"/>
      <point x="433" y="189" type="line"/>
      <point x="296" y="189" type="line"/>
      <point x="296" y="477" type="line" smooth="yes"/>
      <point x="296" y="503"/>
      <point x="305" y="527"/>
      <point x="357" y="527" type="curve" smooth="yes"/>
      <point x="505" y="527" type="line" smooth="yes"/>
      <point x="530" y="527"/>
      <point x="541" y="538"/>
      <point x="541" y="563" type="curve" smooth="yes"/>
      <point x="541" y="684" type="line" smooth="yes"/>
      <point x="541" y="709"/>
      <point x="530" y="720"/>
      <point x="505" y="720" type="curve" smooth="yes"/>
      <point x="315" y="720" type="line" smooth="yes"/>
      <point x="126" y="720"/>
      <point x="69" y="637"/>
      <point x="69" y="516" type="curve"/>
      <point x="69" y="36" type="line"/>
      <point x="69" y="11"/>
      <point x="80" y="0"/>
      <point x="105" y="0" type="curve" smooth="yes"/>
    </contour>
    <contour>
      <point x="56" y="375" type="curve"/>
      <point x="344" y="375" type="line" smooth="yes"/>
      <point x="369" y="375"/>
      <point x="380" y="385"/>
      <point x="380" y="411" type="curve" smooth="yes"/>
      <point x="380" y="438" type="line" smooth="yes"/>
      <point x="380" y="464"/>
      <point x="369" y="474"/>
      <point x="344" y="474" type="curve" smooth="yes"/>
      <point x="56" y="474" type="line" smooth="yes"/>
      <point x="31" y="474"/>
      <point x="20" y="463"/>
      <point x="20" y="438" type="curve" smooth="yes"/>
      <point x="20" y="411" type="line" smooth="yes"/>
      <point x="20" y="385"/>
      <point x="31" y="375"/>
    </contour>
    <contour>
      <point x="56" y="235" type="curve"/>
      <point x="344" y="235" type="line" smooth="yes"/>
      <point x="369" y="235"/>
      <point x="380" y="245"/>
      <point x="380" y="271" type="curve" smooth="yes"/>
      <point x="380" y="298" type="line" smooth="yes"/>
      <point x="380" y="324"/>
      <point x="369" y="334"/>
      <point x="344" y="334" type="curve" smooth="yes"/>
      <point x="56" y="334" type="line" smooth="yes"/>
      <point x="31" y="334"/>
      <point x="20" y="323"/>
      <point x="20" y="298" type="curve" smooth="yes"/>
      <point x="20" y="271" type="line" smooth="yes"/>
      <point x="20" y="245"/>
      <point x="31" y="235"/>
    </contour>
  </outline>
</glyph>
<glyph name="peseta" format="1">
  <advance width="712.0"/>
  <unicode hex="20A7"/>
  <outline>
    <contour>
      <point x="88" y="528" type="line"/>
      <point x="56" y="528" type="line" smooth="yes"/>
      <point x="31" y="528"/>
      <point x="20" y="517"/>
      <point x="20" y="492" type="curve" smooth="yes"/>
      <point x="20" y="425" type="line" smooth="yes"/>
      <point x="20" y="399"/>
      <point x="31" y="389"/>
      <point x="56" y="389" type="curve"/>
      <point x="88" y="389" type="line"/>
    </contour>
    <contour>
      <point x="627" y="389" type="line"/>
      <point x="664" y="389" type="line" smooth="yes"/>
      <point x="689" y="389"/>
      <point x="700" y="399"/>
      <point x="700" y="425" type="curve" smooth="yes"/>
      <point x="700" y="492" type="line" smooth="yes"/>
      <point x="700" y="518"/>
      <point x="689" y="528"/>
      <point x="664" y="528" type="curve" smooth="yes"/>
      <point x="627" y="528" type="line"/>
    </contour>
    <contour>
      <point x="260" y="0" type="line" smooth="yes"/>
      <point x="285" y="0"/>
      <point x="296" y="11"/>
      <point x="296" y="36" type="curve" smooth="yes"/>
      <point x="296" y="202" type="line"/>
      <point x="411" y="202" type="line" smooth="yes"/>
      <point x="593" y="202"/>
      <point x="647" y="281"/>
      <point x="647" y="397" type="curve" smooth="yes"/>
      <point x="647" y="525" type="line" smooth="yes"/>
      <point x="647" y="641"/>
      <point x="593" y="720"/>
      <point x="411" y="720" type="curve" smooth="yes"/>
      <point x="105" y="720" type="line" smooth="yes"/>
      <point x="80" y="720"/>
      <point x="69" y="709"/>
      <point x="69" y="684" type="curve" smooth="yes"/>
      <point x="69" y="36" type="line" smooth="yes"/>
      <point x="69" y="11"/>
      <point x="80" y="0"/>
      <point x="105" y="0" type="curve" smooth="yes"/>
    </contour>
    <contour>
      <point x="294" y="533" type="line"/>
      <point x="384" y="533" type="line" smooth="yes"/>
      <point x="423" y="533"/>
      <point x="431" y="510"/>
      <point x="431" y="484" type="curve" smooth="yes"/>
      <point x="431" y="431" type="line" smooth="yes"/>
      <point x="431" y="405"/>
      <point x="423" y="382"/>
      <point x="384" y="382" type="curve" smooth="yes"/>
      <point x="294" y="382" type="line"/>
    </contour>
  </outline>
</glyph>
<glyph name="dong" format="2">
  <advance height="1000" width="682"/>
  <unicode hex="20AB"/>
  <outline>
    <contour>
      <point x="613" y="645" type="curve"/>
      <point x="295" y="645" type="line" smooth="yes"/>
      <point x="270" y="645"/>
      <point x="259" y="635"/>
      <point x="259" y="609" type="curve" smooth="yes"/>
      <point x="259" y="562" type="line" smooth="yes"/>
      <point x="259" y="536"/>
      <point x="270" y="526"/>
      <point x="295" y="526" type="curve" smooth="yes"/>
      <point x="613" y="526" type="line" smooth="yes"/>
      <point x="638" y="526"/>
      <point x="649" y="537"/>
      <point x="649" y="562" type="curve" smooth="yes"/>
      <point x="649" y="609" type="line" smooth="yes"/>
      <point x="649" y="635"/>
      <point x="638" y="645"/>
    </contour>
    <contour>
      <point x="493" y="-45" type="curve"/>
      <point x="125" y="-45" type="line" smooth="yes"/>
      <point x="100" y="-45"/>
      <point x="89" y="-55"/>
      <point x="89" y="-81" type="curve" smooth="yes"/>
      <point x="89" y="-138" type="line" smooth="yes"/>
      <point x="89" y="-164"/>
      <point x="100" y="-174"/>
      <point x="125" y="-174" type="curve" smooth="yes"/>
      <point x="493" y="-174" type="line" smooth="yes"/>
      <point x="518" y="-174"/>
      <point x="529" y="-163"/>
      <point x="529" y="-138" type="curve" smooth="yes"/>
      <point x="529" y="-81" type="line" smooth="yes"/>
      <point x="529" y="-55"/>
      <point x="518" y="-45"/>
    </contour>
    <contour>
      <point x="384" y="195" type="line"/>
      <point x="384" y="171"/>
      <point x="376" y="155"/>
      <point x="310" y="155" type="curve" smooth="yes"/>
      <point x="246" y="155"/>
      <point x="235" y="173"/>
      <point x="235" y="197" type="curve"/>
      <point x="235" y="269" type="line" smooth="yes"/>
      <point x="235" y="299"/>
      <point x="249" y="313"/>
      <point x="278" y="313" type="curve" smooth="yes"/>
      <point x="384" y="313" type="line"/>
    </contour>
    <contour>
      <point x="580" y="684" type="line"/>
      <point x="580" y="709"/>
      <point x="569" y="720"/>
      <point x="544" y="720" type="curve" smooth="yes"/>
      <point x="419" y="720" type="line" smooth="yes"/>
      <point x="394" y="720"/>
      <point x="383" y="709"/>
      <point x="383" y="684" type="curve"/>
      <point x="383" y="465" type="line"/>
      <point x="252" y="465" type="line" smooth="yes"/>
      <point x="106" y="465"/>
      <point x="40" y="406"/>
      <point x="40" y="279" type="curve" smooth="yes"/>
      <point x="40" y="184" type="line" smooth="yes"/>
      <point x="40" y="74"/>
      <point x="94" y="-2"/>
      <point x="310" y="-2" type="curve" smooth="yes"/>
      <point x="528" y="-2"/>
      <point x="580" y="74"/>
      <point x="580" y="184" type="curve"/>
    </contour>
  </outline>
</glyph>
<glyph name="indianrupee" format="2">
  <advance width="613"/>
  <unicode hex="20B9"/>
  <outline>
    <contour>
      <point x="85" y="351" type="line"/>
      <point x="60" y="351"/>
      <point x="49" y="340"/>
      <point x="49" y="314" type="curve" smooth="yes"/>
      <point x="49" y="237" type="line" smooth="yes"/>
      <point x="49" y="213"/>
      <point x="60" y="202"/>
      <point x="85" y="201" type="curve"/>
      <point x="305" y="201" type="line" smooth="yes"/>
      <point x="333" y="201"/>
      <point x="343" y="188"/>
      <point x="343" y="158" type="curve" smooth="yes"/>
      <point x="343" y="36" type="line" smooth="yes"/>
      <point x="343" y="11"/>
      <point x="354" y="0"/>
      <point x="379" y="0" type="curve" smooth="yes"/>
      <point x="534" y="0" type="line" smooth="yes"/>
      <point x="559" y="0"/>
      <point x="570" y="11"/>
      <point x="570" y="36" type="curve" smooth="yes"/>
      <point x="570" y="187" type="line" smooth="yes"/>
      <point x="570" y="271"/>
      <point x="514" y="323"/>
      <point x="429" y="332" type="curve"/>
      <point x="471" y="350"/>
      <point x="485" y="390"/>
      <point x="485" y="446" type="curve" smooth="yes"/>
      <point x="485" y="553" type="line" smooth="yes"/>
      <point x="485" y="652"/>
      <point x="438" y="720"/>
      <point x="288" y="720" type="curve" smooth="yes"/>
      <point x="86" y="720" type="line"/>
      <point x="61" y="720"/>
      <point x="50" y="709"/>
      <point x="50" y="684" type="curve" smooth="yes"/>
      <point x="50" y="616" type="line" smooth="yes"/>
      <point x="50" y="591"/>
      <point x="61" y="580"/>
      <point x="86" y="580" type="curve"/>
      <point x="220" y="580" type="line" smooth="yes"/>
      <point x="255" y="580"/>
      <point x="264" y="560"/>
      <point x="264" y="533" type="curve" smooth="yes"/>
      <point x="264" y="398" type="line" smooth="yes"/>
      <point x="264" y="371"/>
      <point x="255" y="351"/>
      <point x="220" y="351" type="curve" smooth="yes"/>
    </contour>
    <contour>
      <point x="86" y="581" type="curve"/>
      <point x="534" y="581" type="line" smooth="yes"/>
      <point x="559" y="581"/>
      <point x="570" y="591"/>
      <point x="570" y="617" type="curve" smooth="yes"/>
      <point x="570" y="684" type="line" smooth="yes"/>
      <point x="570" y="710"/>
      <point x="559" y="720"/>
      <point x="534" y="720" type="curve" smooth="yes"/>
      <point x="86" y="720" type="line" smooth="yes"/>
      <point x="61" y="720"/>
      <point x="50" y="709"/>
      <point x="50" y="684" type="curve" smooth="yes"/>
      <point x="50" y="617" type="line" smooth="yes"/>
      <point x="50" y="591"/>
      <point x="61" y="581"/>
    </contour>
    <contour>
      <point x="86" y="401" type="curve"/>
      <point x="534" y="401" type="line" smooth="yes"/>
      <point x="559" y="401"/>
      <point x="570" y="411"/>
      <point x="570" y="437" type="curve" smooth="yes"/>
      <point x="570" y="494" type="line" smooth="yes"/>
      <point x="570" y="520"/>
      <point x="559" y="530"/>
      <point x="534" y="530" type="curve" smooth="yes"/>
      <point x="86" y="530" type="line" smooth="yes"/>
      <point x="61" y="530"/>
      <point x="50" y="519"/>
      <point x="50" y="494" type="curve" smooth="yes"/>
      <point x="50" y="437" type="line" smooth="yes"/>
      <point x="50" y="411"/>
      <point x="61" y="401"/>
    </contour>
  </outline>
</glyph>
<glyph name="turkishlira" format="2">
  <advance width="695"/>
  <unicode hex="20BA"/>
  <outline>
    <contour>
      <point x="574" y="0"/>
      <point x="670" y="98"/>
      <point x="670" y="279" type="curve" smooth="yes"/>
      <point x="670" y="351" type="line" smooth="yes"/>
      <point x="670" y="376"/>
      <point x="659" y="387"/>
      <point x="634" y="387" type="curve" smooth="yes"/>
      <point x="489" y="387" type="line" smooth="yes"/>
      <point x="464" y="387"/>
      <point x="453" y="376"/>
      <point x="453" y="351" type="curve" smooth="yes"/>
      <point x="453" y="261" type="line" smooth="yes"/>
      <point x="453" y="214"/>
      <point x="433" y="189"/>
      <point x="396" y="189" type="curve" smooth="yes"/>
      <point x="296.0" y="189.0" type="line"/>
      <point x="296.0" y="684.0" type="line" smooth="yes"/>
      <point x="296.0" y="709.0"/>
      <point x="285.0" y="720.0"/>
      <point x="260.0" y="720.0" type="curve" smooth="yes"/>
      <point x="105.0" y="720.0" type="line" smooth="yes"/>
      <point x="80.0" y="720.0"/>
      <point x="69.0" y="709.0"/>
      <point x="69.0" y="684.0" type="curve" smooth="yes"/>
      <point x="69.0" y="36.0" type="line" smooth="yes"/>
      <point x="69.0" y="11.0"/>
      <point x="80" y="0"/>
      <point x="105.0" y="0.0" type="curve" smooth="yes"/>
      <point x="396" y="0" type="line" smooth="yes"/>
    </contour>
    <contour>
      <point x="56" y="425" type="curve" smooth="yes"/>
      <point x="344" y="475" type="line" smooth="yes"/>
      <point x="369" y="479"/>
      <point x="380" y="485"/>
      <point x="380" y="511" type="curve" smooth="yes"/>
      <point x="380" y="538" type="line" smooth="yes"/>
      <point x="380" y="564"/>
      <point x="369" y="578"/>
      <point x="344" y="574" type="curve" smooth="yes"/>
      <point x="56" y="524" type="line" smooth="yes"/>
      <point x="31" y="520"/>
      <point x="20" y="513"/>
      <point x="20" y="488" type="curve" smooth="yes"/>
      <point x="20" y="461" type="line" smooth="yes"/>
      <point x="20" y="435"/>
      <point x="31" y="421"/>
    </contour>
    <contour>
      <point x="56" y="285" type="curve" smooth="yes"/>
      <point x="344" y="335" type="line" smooth="yes"/>
      <point x="369" y="339"/>
      <point x="380" y="345"/>
      <point x="380" y="371" type="curve" smooth="yes"/>
      <point x="380" y="398" type="line" smooth="yes"/>
      <point x="380" y="424"/>
      <point x="369" y="438"/>
      <point x="344" y="434" type="curve" smooth="yes"/>
      <point x="56" y="384" type="line" smooth="yes"/>
      <point x="31" y="380"/>
      <point x="20" y="373"/>
      <point x="20" y="348" type="curve" smooth="yes"/>
      <point x="20" y="321" type="line" smooth="yes"/>
      <point x="20" y="295"/>
      <point x="31" y="281"/>
    </contour>
  </outline>
</glyph>
<glyph name="ruble" format="2">
  <advance height="1000" width="682"/>
  <unicode hex="20BD"/>
  <outline>
    <contour>
      <point x="56" y="85" type="curve"/>
      <point x="344" y="85" type="line" smooth="yes"/>
      <point x="369" y="85"/>
      <point x="380" y="95"/>
      <point x="380" y="121" type="curve" smooth="yes"/>
      <point x="380" y="178" type="line" smooth="yes"/>
      <point x="380" y="204"/>
      <point x="369" y="214"/>
      <point x="344" y="214" type="curve" smooth="yes"/>
      <point x="56" y="214" type="line" smooth="yes"/>
      <point x="31" y="214"/>
      <point x="20" y="203"/>
      <point x="20" y="178" type="curve" smooth="yes"/>
      <point x="20" y="121" type="line" smooth="yes"/>
      <point x="20" y="95"/>
      <point x="31" y="85"/>
    </contour>
    <contour>
      <point x="260" y="0" type="line" smooth="yes"/>
      <point x="285" y="0"/>
      <point x="296" y="11"/>
      <point x="296" y="36" type="curve" smooth="yes"/>
      <point x="296" y="252" type="line"/>
      <point x="411" y="252" type="line" smooth="yes"/>
      <point x="593" y="252"/>
      <point x="647" y="331"/>
      <point x="647" y="447" type="curve" smooth="yes"/>
      <point x="647" y="525" type="line" smooth="yes"/>
      <point x="647" y="641"/>
      <point x="593" y="720"/>
      <point x="411" y="720" type="curve" smooth="yes"/>
      <point x="105" y="720" type="line" smooth="yes"/>
      <point x="80" y="720"/>
      <point x="69" y="709"/>
      <point x="69" y="684" type="curve" smooth="yes"/>
      <point x="69" y="36" type="line" smooth="yes"/>
      <point x="69" y="11"/>
      <point x="80" y="0"/>
      <point x="105" y="0" type="curve" smooth="yes"/>
    </contour>
    <contour>
      <point x="294" y="543" type="line"/>
      <point x="384" y="543" type="line" smooth="yes"/>
      <point x="423" y="543"/>
      <point x="431" y="520"/>
      <point x="431" y="494" type="curve" smooth="yes"/>
      <point x="431" y="471" type="line" smooth="yes"/>
      <point x="431" y="445"/>
      <point x="423" y="422"/>
      <point x="384" y="422" type="curve" smooth="yes"/>
      <point x="294" y="422" type="line"/>
    </contour>
  </outline>
</glyph>
<glyph name="liter" format="2">
  <advance width="649"/>
  <unicode hex="2113"/>
  <outline>
    <contour>
      <point x="320" y="406" type="curve"/>
      <point x="276" y="406" type="line"/>
      <point x="276" y="515" type="line"/>
      <point x="276" y="542"/>
      <point x="282" y="562"/>
      <point x="320" y="562" type="curve" smooth="yes"/>
      <point x="358" y="562"/>
      <point x="364" y="542"/>
      <point x="364" y="515" type="curve" smooth="yes"/>
      <point x="364" y="453" type="line" smooth="yes"/>
      <point x="364" y="426"/>
      <point x="358" y="406"/>
    </contour>
    <contour>
      <point x="514" y="36" type="curve" smooth="yes"/>
      <point x="514" y="153" type="line" smooth="yes"/>
      <point x="514" y="178"/>
      <point x="503" y="189"/>
      <point x="478" y="189" type="curve" smooth="yes"/>
      <point x="337" y="189" type="line" smooth="yes"/>
      <point x="285" y="189"/>
      <point x="276" y="209"/>
      <point x="276" y="237" type="curve"/>
      <point x="276" y="247" type="line"/>
      <point x="320" y="247" type="line" smooth="yes"/>
      <point x="538" y="247"/>
      <point x="591" y="323"/>
      <point x="591" y="437" type="curve"/>
      <point x="591" y="531" type="line" smooth="yes"/>
      <point x="591" y="653"/>
      <point x="538" y="735"/>
      <point x="320" y="735" type="curve" smooth="yes"/>
      <point x="108" y="735"/>
      <point x="58" y="653"/>
      <point x="58" y="531" type="curve"/>
      <point x="58" y="204" type="line" smooth="yes"/>
      <point x="58" y="83"/>
      <point x="115" y="0"/>
      <point x="304" y="0" type="curve" smooth="yes"/>
      <point x="478" y="0" type="line" smooth="yes"/>
      <point x="503" y="0"/>
      <point x="514" y="11"/>
    </contour>
  </outline>
</glyph>
<glyph name="uni2117" format="2">
  <advance width="867"/>
  <unicode hex="2117"/>
  <outline>
    <contour>
      <point x="807.0" y="154.0" type="curve" smooth="yes"/>
      <point x="807.0" y="564.0" type="line" smooth="yes"/>
      <point x="807.0" y="711.0"/>
      <point x="735.0" y="811.0"/>
      <point x="434.0" y="811.0" type="curve" smooth="yes"/>
      <point x="134.0" y="811.0"/>
      <point x="60.0" y="711.0"/>
      <point x="60.0" y="564.0" type="curve" smooth="yes"/>
      <point x="60.0" y="154.0" type="line" smooth="yes"/>
      <point x="60.0" y="8.0"/>
      <point x="134.0" y="-91.0"/>
      <point x="434.0" y="-91.0" type="curve" smooth="yes"/>
      <point x="735.0" y="-91.0"/>
      <point x="807.0" y="8.0"/>
    </contour>
    <contour>
      <point x="707.0" y="150.0" type="line"/>
      <point x="707.0" y="64.0"/>
      <point x="654.0" y="5.0"/>
      <point x="434.0" y="5.0" type="curve" smooth="yes"/>
      <point x="214.0" y="5.0"/>
      <point x="160.0" y="64.0"/>
      <point x="160.0" y="150.0" type="curve"/>
      <point x="160.0" y="568.0" type="line"/>
      <point x="160.0" y="655.0"/>
      <point x="214.0" y="715.0"/>
      <point x="434.0" y="715.0" type="curve" smooth="yes"/>
      <point x="654.0" y="715.0"/>
      <point x="707.0" y="655.0"/>
      <point x="707.0" y="568.0" type="curve"/>
    </contour>
    <contour>
      <point x="370.419986486" y="110.0" type="line" smooth="yes"/>
      <point x="388.344985187" y="110.0"/>
      <point x="396.231984615" y="117.886999428"/>
      <point x="396.231984615" y="135.811998129" type="curve" smooth="yes"/>
      <point x="396.231984615" y="254.833989501" type="line"/>
      <point x="478.686978638" y="254.833989501" type="line" smooth="yes"/>
      <point x="609.180969179" y="254.833989501"/>
      <point x="647.898966372" y="311.476985395"/>
      <point x="647.898966372" y="394.648979366" type="curve" smooth="yes"/>
      <point x="647.898966372" y="486.424972713" type="line" smooth="yes"/>
      <point x="647.898966372" y="569.596966684"/>
      <point x="609.180969179" y="626.239962578"/>
      <point x="478.686978638" y="626.239962578" type="curve" smooth="yes"/>
      <point x="259.284994543" y="626.239962578" type="line" smooth="yes"/>
      <point x="241.359995842" y="626.239962578"/>
      <point x="233.472996414" y="618.35296315"/>
      <point x="233.472996414" y="600.427964449" type="curve" smooth="yes"/>
      <point x="233.472996414" y="135.811998129" type="line" smooth="yes"/>
      <point x="233.472996414" y="117.886999428"/>
      <point x="241.359995842" y="110.0"/>
      <point x="259.284994543" y="110.0" type="curve" smooth="yes"/>
    </contour>
    <contour>
      <point x="394.797984719" y="492.160972297" type="line"/>
      <point x="459.327980042" y="492.160972297" type="line" smooth="yes"/>
      <point x="487.290978015" y="492.160972297"/>
      <point x="493.026977599" y="475.669973493"/>
      <point x="493.026977599" y="457.027974844" type="curve" smooth="yes"/>
      <point x="493.026977599" y="419.026977599" type="line" smooth="yes"/>
      <point x="493.026977599" y="400.38497895"/>
      <point x="487.290978015" y="383.893980146"/>
      <point x="459.327980042" y="383.893980146" type="curve" smooth="yes"/>
      <point x="394.797984719" y="383.893980146" type="line"/>
    </contour>
  </outline>
</glyph>
<glyph name="uni2120" format="2">
  <advance width="903"/>
  <unicode hex="2120"/>
  <outline>
    <contour>
      <point x="541" y="287" type="line"/>
      <point x="558" y="287"/>
      <point x="567" y="296"/>
      <point x="567" y="313" type="curve"/>
      <point x="567" y="313"/>
      <point x="567" y="503"/>
      <point x="567" y="503" type="curve"/>
      <point x="593" y="454" type="line"/>
      <point x="600" y="439"/>
      <point x="611" y="432"/>
      <point x="627" y="432" type="curve"/>
      <point x="646" y="432" type="line"/>
      <point x="662" y="432"/>
      <point x="673" y="439"/>
      <point x="681" y="454" type="curve"/>
      <point x="707" y="503" type="line"/>
      <point x="707" y="313" type="line"/>
      <point x="707" y="296"/>
      <point x="714" y="287"/>
      <point x="733" y="287" type="curve"/>
      <point x="828" y="287" type="line"/>
      <point x="845" y="287"/>
      <point x="854" y="296"/>
      <point x="854" y="313" type="curve"/>
      <point x="854" y="694" type="line"/>
      <point x="854" y="712"/>
      <point x="845" y="720"/>
      <point x="828" y="720" type="curve"/>
      <point x="733" y="720" type="line"/>
      <point x="718" y="720"/>
      <point x="709" y="714"/>
      <point x="701" y="700" type="curve" smooth="yes"/>
      <point x="686" y="670"/>
      <point x="665" y="634"/>
      <point x="649" y="604" type="curve" smooth="yes"/>
      <point x="647" y="601"/>
      <point x="644" y="597"/>
      <point x="643" y="597" type="curve"/>
      <point x="638" y="597" type="line"/>
      <point x="635" y="597"/>
      <point x="634" y="599"/>
      <point x="631" y="604" type="curve" smooth="yes"/>
      <point x="613" y="634"/>
      <point x="595" y="669"/>
      <point x="578" y="700" type="curve" smooth="yes"/>
      <point x="570" y="713"/>
      <point x="561" y="720"/>
      <point x="546" y="720" type="curve"/>
      <point x="452" y="720" type="line"/>
      <point x="435" y="720"/>
      <point x="426" y="712"/>
      <point x="426" y="694" type="curve"/>
      <point x="426" y="313" type="line"/>
      <point x="426" y="296"/>
      <point x="435" y="287"/>
      <point x="452" y="287" type="curve"/>
    </contour>
    <contour>
      <point x="250" y="287" type="line" smooth="yes"/>
      <point x="327" y="287"/>
      <point x="374" y="324"/>
      <point x="374" y="392" type="curve" smooth="yes"/>
      <point x="374" y="455" type="line" smooth="yes"/>
      <point x="374" y="525"/>
      <point x="336" y="550"/>
      <point x="280" y="558" type="curve" smooth="yes"/>
      <point x="194" y="570" type="line" smooth="yes"/>
      <point x="184" y="571"/>
      <point x="178" y="578"/>
      <point x="178" y="587" type="curve" smooth="yes"/>
      <point x="178" y="596"/>
      <point x="184" y="602"/>
      <point x="194" y="602" type="curve" smooth="yes"/>
      <point x="330" y="602" type="line" smooth="yes"/>
      <point x="345" y="602"/>
      <point x="352" y="609"/>
      <point x="352" y="624" type="curve" smooth="yes"/>
      <point x="352" y="698" type="line" smooth="yes"/>
      <point x="352" y="713"/>
      <point x="345" y="720"/>
      <point x="330" y="720" type="curve" smooth="yes"/>
      <point x="163" y="720" type="line" smooth="yes"/>
      <point x="85" y="720"/>
      <point x="39" y="682"/>
      <point x="39" y="614" type="curve" smooth="yes"/>
      <point x="39" y="550" type="line" smooth="yes"/>
      <point x="39" y="481"/>
      <point x="75" y="456"/>
      <point x="131" y="448" type="curve" smooth="yes"/>
      <point x="218" y="435" type="line" smooth="yes"/>
      <point x="229" y="433"/>
      <point x="234" y="429"/>
      <point x="234" y="418" type="curve" smooth="yes"/>
      <point x="234" y="410"/>
      <point x="229" y="403"/>
      <point x="218" y="403" type="curve" smooth="yes"/>
      <point x="60" y="403" type="line" smooth="yes"/>
      <point x="45" y="403"/>
      <point x="39" y="397"/>
      <point x="39" y="382" type="curve" smooth="yes"/>
      <point x="39" y="309" type="line" smooth="yes"/>
      <point x="39" y="294"/>
      <point x="45" y="287"/>
      <point x="60" y="287" type="curve" smooth="yes"/>
    </contour>
  </outline>
</glyph>
<glyph name="trademark" format="2">
  <advance height="1000" width="903"/>
  <unicode hex="2122"/>
  <outline>
    <contour>
      <point x="244" y="287" type="line"/>
      <point x="262" y="287"/>
      <point x="271" y="296"/>
      <point x="271" y="313" type="curve"/>
      <point x="271" y="597" type="line"/>
      <point x="352" y="597" type="line"/>
      <point x="370" y="597"/>
      <point x="379" y="606"/>
      <point x="379" y="623" type="curve"/>
      <point x="379" y="694" type="line"/>
      <point x="379" y="712"/>
      <point x="370" y="720"/>
      <point x="352" y="720" type="curve"/>
      <point x="42" y="720" type="line"/>
      <point x="23" y="720"/>
      <point x="16" y="712"/>
      <point x="16" y="694" type="curve"/>
      <point x="16" y="623" type="line"/>
      <point x="16" y="606"/>
      <point x="23" y="597"/>
      <point x="42" y="597" type="curve"/>
      <point x="124" y="597" type="line"/>
      <point x="124" y="313" type="line"/>
      <point x="124" y="296"/>
      <point x="131" y="287"/>
      <point x="149" y="287" type="curve"/>
    </contour>
    <contour>
      <point x="541" y="287" type="line"/>
      <point x="558" y="287"/>
      <point x="567" y="296"/>
      <point x="567" y="313" type="curve"/>
      <point x="567" y="313"/>
      <point x="567.0" y="503.0"/>
      <point x="567" y="503" type="curve"/>
      <point x="593" y="454" type="line"/>
      <point x="600" y="439"/>
      <point x="611" y="432"/>
      <point x="627" y="432" type="curve"/>
      <point x="646" y="432" type="line"/>
      <point x="662" y="432"/>
      <point x="673" y="439"/>
      <point x="681" y="454" type="curve"/>
      <point x="707" y="503" type="line"/>
      <point x="707" y="313" type="line"/>
      <point x="707" y="296"/>
      <point x="714" y="287"/>
      <point x="733" y="287" type="curve"/>
      <point x="828" y="287" type="line"/>
      <point x="845" y="287"/>
      <point x="854" y="296"/>
      <point x="854" y="313" type="curve"/>
      <point x="854" y="694" type="line"/>
      <point x="854" y="712"/>
      <point x="845" y="720"/>
      <point x="828" y="720" type="curve"/>
      <point x="733" y="720" type="line"/>
      <point x="718" y="720"/>
      <point x="709" y="714"/>
      <point x="701" y="700" type="curve" smooth="yes"/>
      <point x="686" y="670"/>
      <point x="665" y="634"/>
      <point x="649" y="604" type="curve" smooth="yes"/>
      <point x="647" y="601"/>
      <point x="644" y="597"/>
      <point x="643" y="597" type="curve"/>
      <point x="638" y="597" type="line"/>
      <point x="635" y="597"/>
      <point x="634" y="599"/>
      <point x="631" y="604" type="curve" smooth="yes"/>
      <point x="613" y="634"/>
      <point x="595" y="669"/>
      <point x="578" y="700" type="curve" smooth="yes"/>
      <point x="570" y="713"/>
      <point x="561" y="720"/>
      <point x="546" y="720" type="curve"/>
      <point x="452" y="720" type="line"/>
      <point x="435" y="720"/>
      <point x="426" y="712"/>
      <point x="426" y="694" type="curve"/>
      <point x="426" y="313" type="line"/>
      <point x="426" y="296"/>
      <point x="435" y="287"/>
      <point x="452" y="287" type="curve"/>
    </contour>
  </outline>
</glyph>
<glyph name="Omega" format="2">
  <advance width="777"/>
  <unicode hex="2126"/>
  <unicode hex="03A9"/>
  <outline>
    <contour>
      <point x="389" y="735" type="line"/>
      <point x="139" y="735"/>
      <point x="78" y="652"/>
      <point x="78" y="530" type="curve" smooth="yes"/>
      <point x="78" y="309" type="line" smooth="yes"/>
      <point x="78" y="191"/>
      <point x="133" y="111"/>
      <point x="362" y="105" type="curve"/>
      <point x="362" y="150" type="line" smooth="yes"/>
      <point x="362" y="172"/>
      <point x="354" y="177"/>
      <point x="335" y="184" type="curve" smooth="yes"/>
      <point x="311" y="193"/>
      <point x="305" y="206"/>
      <point x="305" y="225" type="curve" smooth="yes"/>
      <point x="305" y="494" type="line" smooth="yes"/>
      <point x="305" y="520"/>
      <point x="317" y="540"/>
      <point x="389" y="540" type="curve"/>
    </contour>
    <contour>
      <point x="326" y="0" type="line" smooth="yes"/>
      <point x="351" y="0"/>
      <point x="362" y="11"/>
      <point x="362" y="36" type="curve" smooth="yes"/>
      <point x="362" y="122" type="line"/>
      <point x="135" y="189" type="line"/>
      <point x="72" y="189" type="line" smooth="yes"/>
      <point x="47" y="189"/>
      <point x="36" y="178"/>
      <point x="36" y="153" type="curve" smooth="yes"/>
      <point x="36" y="36" type="line" smooth="yes"/>
      <point x="36" y="11"/>
      <point x="47" y="0"/>
      <point x="72" y="0" type="curve" smooth="yes"/>
    </contour>
    <contour>
      <point x="389" y="540" type="line"/>
      <point x="461" y="540"/>
      <point x="473" y="520"/>
      <point x="473" y="494" type="curve" smooth="yes"/>
      <point x="473" y="225" type="line" smooth="yes"/>
      <point x="473" y="206"/>
      <point x="467" y="193"/>
      <point x="443" y="184" type="curve" smooth="yes"/>
      <point x="424" y="177"/>
      <point x="416" y="172"/>
      <point x="416" y="150" type="curve" smooth="yes"/>
      <point x="416" y="105" type="line"/>
      <point x="645" y="111"/>
      <point x="700" y="191"/>
      <point x="700" y="309" type="curve" smooth="yes"/>
      <point x="700" y="530" type="line" smooth="yes"/>
      <point x="700" y="652"/>
      <point x="639" y="735"/>
      <point x="389" y="735" type="curve"/>
    </contour>
    <contour>
      <point x="706" y="0" type="line" smooth="yes"/>
      <point x="731" y="0"/>
      <point x="742" y="11"/>
      <point x="742" y="36" type="curve" smooth="yes"/>
      <point x="742" y="153" type="line" smooth="yes"/>
      <point x="742" y="178"/>
      <point x="731" y="189"/>
      <point x="706" y="189" type="curve" smooth="yes"/>
      <point x="643" y="189" type="line"/>
      <point x="416" y="122" type="line"/>
      <point x="416" y="36" type="line" smooth="yes"/>
      <point x="416" y="11"/>
      <point x="427" y="0"/>
      <point x="452" y="0" type="curve" smooth="yes"/>
    </contour>
  </outline>
</glyph>
<glyph name="arrowleft" format="2">
  <advance width="1000"/>
  <unicode hex="2190"/>
  <outline>
    <contour>
      <point x="784" y="260" type="curve" smooth="yes"/>
      <point x="604" y="271" type="line"/>
      <point x="604" y="99" type="line" smooth="yes"/>
      <point x="604" y="77"/>
      <point x="573" y="64"/>
      <point x="551" y="79" type="curve" smooth="yes"/>
      <point x="204" y="313" type="line" smooth="yes"/>
      <point x="185" y="325"/>
      <point x="173" y="338"/>
      <point x="173" y="359" type="curve"/>
      <point x="173" y="381"/>
      <point x="185" y="394"/>
      <point x="204" y="406" type="curve" smooth="yes"/>
      <point x="551" y="640" type="line" smooth="yes"/>
      <point x="573" y="655"/>
      <point x="604" y="642"/>
      <point x="604" y="620" type="curve" smooth="yes"/>
      <point x="604" y="448" type="line"/>
      <point x="784" y="459" type="line" smooth="yes"/>
      <point x="806" y="460"/>
      <point x="815" y="448"/>
      <point x="815" y="426" type="curve" smooth="yes"/>
      <point x="815" y="293" type="line" smooth="yes"/>
      <point x="815" y="271"/>
      <point x="806" y="259"/>
    </contour>
  </outline>
</glyph>
<glyph name="arrowup" format="2">
  <advance width="1000"/>
  <unicode hex="2191"/>
  <outline>
    <contour>
      <point x="600" y="70" type="curve" smooth="yes"/>
      <point x="589" y="250" type="line"/>
      <point x="761" y="250" type="line" smooth="yes"/>
      <point x="783" y="250"/>
      <point x="796" y="281"/>
      <point x="781" y="303" type="curve" smooth="yes"/>
      <point x="547" y="650" type="line" smooth="yes"/>
      <point x="535" y="669"/>
      <point x="522" y="681"/>
      <point x="501" y="681" type="curve"/>
      <point x="479" y="681"/>
      <point x="466" y="669"/>
      <point x="454" y="650" type="curve" smooth="yes"/>
      <point x="220" y="303" type="line" smooth="yes"/>
      <point x="205" y="281"/>
      <point x="217" y="250"/>
      <point x="240" y="250" type="curve" smooth="yes"/>
      <point x="412" y="250" type="line"/>
      <point x="401" y="70" type="line" smooth="yes"/>
      <point x="400" y="48"/>
      <point x="412" y="39"/>
      <point x="434" y="39" type="curve" smooth="yes"/>
      <point x="567" y="39" type="line" smooth="yes"/>
      <point x="589" y="39"/>
      <point x="601" y="48"/>
    </contour>
  </outline>
</glyph>
<glyph name="arrowright" format="1">
  <advance width="1000"/>
  <unicode hex="2192"/>
  <outline>
    <contour>
      <point x="216" y="260" type="curve" smooth="yes"/>
      <point x="396" y="271" type="line"/>
      <point x="396" y="99" type="line" smooth="yes"/>
      <point x="396" y="77"/>
      <point x="427" y="64"/>
      <point x="449" y="79" type="curve" smooth="yes"/>
      <point x="796" y="313" type="line" smooth="yes"/>
      <point x="815" y="325"/>
      <point x="827" y="338"/>
      <point x="827" y="359" type="curve"/>
      <point x="827" y="381"/>
      <point x="815" y="394"/>
      <point x="796" y="406" type="curve" smooth="yes"/>
      <point x="449" y="640" type="line" smooth="yes"/>
      <point x="427" y="655"/>
      <point x="396" y="642"/>
      <point x="396" y="620" type="curve" smooth="yes"/>
      <point x="396" y="448" type="line"/>
      <point x="216" y="459" type="line" smooth="yes"/>
      <point x="194" y="460"/>
      <point x="185" y="448"/>
      <point x="185" y="426" type="curve" smooth="yes"/>
      <point x="185" y="293" type="line" smooth="yes"/>
      <point x="185" y="271"/>
      <point x="194" y="259"/>
    </contour>
  </outline>
</glyph>
<glyph name="arrowdown" format="2">
  <advance width="1000"/>
  <unicode hex="2193"/>
  <outline>
    <contour>
      <point x="401" y="650" type="curve" smooth="yes"/>
      <point x="412" y="470" type="line"/>
      <point x="240" y="470" type="line" smooth="yes"/>
      <point x="218" y="470"/>
      <point x="205" y="439"/>
      <point x="220" y="417" type="curve" smooth="yes"/>
      <point x="454" y="70" type="line" smooth="yes"/>
      <point x="466" y="51"/>
      <point x="479" y="39"/>
      <point x="500" y="39" type="curve"/>
      <point x="522" y="39"/>
      <point x="535" y="51"/>
      <point x="547" y="70" type="curve" smooth="yes"/>
      <point x="781" y="417" type="line" smooth="yes"/>
      <point x="796" y="439"/>
      <point x="784" y="470"/>
      <point x="761" y="470" type="curve" smooth="yes"/>
      <point x="589" y="470" type="line"/>
      <point x="600" y="650" type="line" smooth="yes"/>
      <point x="601" y="672"/>
      <point x="589" y="681"/>
      <point x="567" y="681" type="curve" smooth="yes"/>
      <point x="434" y="681" type="line" smooth="yes"/>
      <point x="412" y="681"/>
      <point x="400" y="672"/>
    </contour>
  </outline>
</glyph>
<glyph name="arrowupleft" format="2">
  <advance width="1000"/>
  <unicode hex="2196"/>
  <outline>
    <contour>
      <point x="611" y="108" type="curve" smooth="yes"/>
      <point x="493" y="242" type="line"/>
      <point x="371" y="121" type="line" smooth="yes"/>
      <point x="355" y="105"/>
      <point x="324" y="119"/>
      <point x="318" y="145" type="curve" smooth="yes"/>
      <point x="239" y="555" type="line" smooth="yes"/>
      <point x="234" y="577"/>
      <point x="234" y="595"/>
      <point x="249" y="610" type="curve"/>
      <point x="265" y="626"/>
      <point x="283" y="626"/>
      <point x="305" y="621" type="curve" smooth="yes"/>
      <point x="715" y="542" type="line" smooth="yes"/>
      <point x="741" y="536"/>
      <point x="755" y="505"/>
      <point x="739" y="489" type="curve" smooth="yes"/>
      <point x="618" y="367" type="line"/>
      <point x="752" y="249" type="line" smooth="yes"/>
      <point x="769" y="234"/>
      <point x="767" y="218"/>
      <point x="751" y="204" type="curve" smooth="yes"/>
      <point x="657" y="109" type="line" smooth="yes"/>
      <point x="642" y="93"/>
      <point x="627" y="91"/>
    </contour>
  </outline>
</glyph>
<glyph name="arrowupright" format="2">
  <advance height="1000" width="1000"/>
  <unicode hex="2197"/>
  <outline>
    <contour>
      <point x="389" y="108" type="curve" smooth="yes"/>
      <point x="507" y="242" type="line"/>
      <point x="629" y="121" type="line" smooth="yes"/>
      <point x="645" y="105"/>
      <point x="676" y="119"/>
      <point x="682" y="145" type="curve" smooth="yes"/>
      <point x="761" y="555" type="line" smooth="yes"/>
      <point x="766" y="577"/>
      <point x="766" y="595"/>
      <point x="751" y="610" type="curve"/>
      <point x="735" y="626"/>
      <point x="717" y="626"/>
      <point x="695" y="621" type="curve" smooth="yes"/>
      <point x="285" y="542" type="line" smooth="yes"/>
      <point x="259" y="536"/>
      <point x="245" y="505"/>
      <point x="261" y="489" type="curve" smooth="yes"/>
      <point x="382" y="367" type="line"/>
      <point x="248" y="249" type="line" smooth="yes"/>
      <point x="231" y="234"/>
      <point x="233" y="218"/>
      <point x="249" y="204" type="curve" smooth="yes"/>
      <point x="343" y="109" type="line" smooth="yes"/>
      <point x="358" y="93"/>
      <point x="373" y="91"/>
    </contour>
  </outline>
</glyph>
<glyph name="arrowdownright" format="1">
  <advance width="1000"/>
  <unicode hex="2198"/>
  <outline>
    <contour>
      <point x="248" y="471" type="curve" smooth="yes"/>
      <point x="382" y="353" type="line"/>
      <point x="261" y="231" type="line" smooth="yes"/>
      <point x="245" y="215"/>
      <point x="259" y="184"/>
      <point x="285" y="178" type="curve" smooth="yes"/>
      <point x="695" y="99" type="line" smooth="yes"/>
      <point x="717" y="94"/>
      <point x="735" y="94"/>
      <point x="750" y="109" type="curve"/>
      <point x="766" y="125"/>
      <point x="766" y="143"/>
      <point x="761" y="165" type="curve" smooth="yes"/>
      <point x="682" y="575" type="line" smooth="yes"/>
      <point x="676" y="602"/>
      <point x="645" y="615"/>
      <point x="629" y="599" type="curve" smooth="yes"/>
      <point x="507" y="478" type="line"/>
      <point x="389" y="612" type="line" smooth="yes"/>
      <point x="374" y="629"/>
      <point x="358" y="627"/>
      <point x="344" y="611" type="curve" smooth="yes"/>
      <point x="249" y="518" type="line" smooth="yes"/>
      <point x="233" y="502"/>
      <point x="231" y="487"/>
    </contour>
  </outline>
</glyph>
